<?xml version="1.0" ?><svg id="Layer_1" style="enable-background:new 0 0 108 108;" version="1.1" viewBox="0 0 108 108" xml:space="preserve" xmlns="http://www.w3.org/2000/svg" xmlns:xlink="http://www.w3.org/1999/xlink"><g><path d="M102,84c-1.013,0-1.974-0.541-2.938-1.654c-0.361-0.419-0.995-0.463-1.41-0.102c-0.418,0.361-0.463,0.993-0.102,1.41   C98.899,85.211,100.396,86,102,86c0.553,0,1-0.447,1-1S102.553,84,102,84z"/><path d="M102.941,32.306c0.169-0.526-0.121-1.089-0.646-1.258c-0.528-0.167-1.09,0.122-1.258,0.646   c-1.901,5.925-3.485,13.642-5.017,21.104c-0.948,4.622-1.937,9.438-3.023,13.865c-1.066-4.361-2.056-9.172-3.018-13.866   C86.519,35.932,83.249,20,76,20c-3.959,0-6.73,4.759-8.995,11.821C65.092,25.786,62.36,20,58,20   c-7.249,0-10.519,15.932-13.979,32.799c-0.948,4.622-1.937,9.438-3.023,13.865c-1.066-4.361-2.056-9.172-3.018-13.866   C34.519,35.932,31.249,20,24,20c-3.96,0-6.731,4.758-8.995,11.82C13.092,25.786,10.359,20,6,20c-0.553,0-1,0.447-1,1s0.447,1,1,1   c2.852,0,5.458,4.369,7.963,13.341c-1.426,5.199-2.672,11.264-3.943,17.458C8.499,60.21,6.927,67.873,5.059,73.694   c-0.169,0.526,0.121,1.089,0.646,1.258C5.807,74.984,5.91,75,6.011,75c0.423,0,0.816-0.271,0.952-0.694   c1.901-5.925,3.485-13.642,5.017-21.104C14.981,38.576,18.382,22,24,22s9.02,16.576,12.021,31.2   c1.232,6.003,2.505,12.203,3.938,17.445C37.823,78.303,35.293,84,32,84c-5.618,0-9.02-16.577-12.021-31.203   c-0.344-1.674-0.688-3.347-1.034-5.002c-0.113-0.542-0.644-0.886-1.184-0.773c-0.541,0.113-0.887,0.644-0.773,1.184   c0.346,1.652,0.688,3.323,1.031,4.993C21.482,70.067,24.75,86,32,86c7.249,0,10.519-15.932,13.979-32.799   C48.981,38.576,52.382,22,58,22c2.852,0,5.458,4.369,7.963,13.342c-1.426,5.199-2.672,11.263-3.943,17.457   C59.02,67.424,55.618,84,50,84c-1.013,0-1.974-0.541-2.938-1.654c-0.361-0.419-0.995-0.463-1.41-0.102   c-0.418,0.361-0.463,0.993-0.102,1.41C46.899,85.211,48.396,86,50,86c7.249,0,10.519-15.932,13.979-32.799   C66.981,38.576,70.382,22,76,22s9.02,16.576,12.021,31.2c1.232,6.003,2.505,12.203,3.938,17.445C89.823,78.303,87.293,84,84,84   c-5.618,0-9.02-16.577-12.021-31.203c-0.344-1.674-0.688-3.347-1.034-5.002c-0.113-0.542-0.646-0.886-1.184-0.773   c-0.541,0.113-0.887,0.644-0.773,1.184c0.346,1.652,0.688,3.323,1.031,4.993C73.482,70.067,76.75,86,84,86   s10.519-15.932,13.98-32.799C99.501,45.79,101.073,38.127,102.941,32.306z"/></g></svg>