<?xml version="1.0" ?><!DOCTYPE svg  PUBLIC '-//W3C//DTD SVG 1.1//EN'  'http://www.w3.org/Graphics/SVG/1.1/DTD/svg11.dtd'><svg enable-background="new 0 0 128 128" height="128px" id="Layer_1" version="1.1" viewBox="0 0 128 128" width="128px" xml:space="preserve" xmlns="http://www.w3.org/2000/svg" xmlns:xlink="http://www.w3.org/1999/xlink"><g><path d="M52,128H10c-5.514,0-10-4.486-10-10V76c0-5.514,4.486-10,10-10h42c5.514,0,10,4.486,10,10v42C62,123.514,57.515,128,52,128   z M10,74c-1.084,0-2,0.916-2,2v42c0,1.084,0.916,2,2,2h42c1.084,0,2-0.916,2-2V76c0-1.084-0.916-2-2-2H10z"/></g><g><path d="M118,128H76c-5.514,0-10-4.486-10-10V76c0-5.514,4.486-10,10-10h42c5.514,0,10,4.486,10,10v42   C128,123.514,123.514,128,118,128z M76,74c-1.084,0-2,0.916-2,2v42c0,1.084,0.916,2,2,2h42c1.084,0,2-0.916,2-2V76   c0-1.084-0.916-2-2-2H76z"/></g><g><path d="M85,62H43c-5.514,0-10-4.486-10-10V10c0-5.514,4.486-10,10-10h42c5.514,0,10,4.486,10,10v42C95,57.515,90.514,62,85,62z    M43,8c-1.084,0-2,0.916-2,2v42c0,1.084,0.916,2,2,2h42c1.084,0,2-0.916,2-2V10c0-1.084-0.916-2-2-2H43z"/></g><g><path d="M61.911,22.972l-2.414,0.625c-0.357,0.089-0.849,0.179-1.207,0.179c-1.609,0-2.995-1.341-2.995-2.949   c0-1.386,0.895-2.548,2.279-2.95L62,16.581C63.297,16.224,64.279,16,65.218,16h0.091c1.877,0,3.396,1.52,3.396,3.397v25.206   c0,1.877-1.521,3.397-3.396,3.397c-1.878,0-3.396-1.52-3.396-3.397L61.911,22.972L61.911,22.972z"/></g><g><path d="M20.859,106.238l8.969-7.346c3.921-3.201,5.453-4.959,5.453-7.572c0-2.658-1.757-4.103-4.236-4.103   c-1.983,0-3.38,0.856-5.139,2.75c-0.45,0.496-1.262,0.991-2.344,0.991c-1.757,0-3.154-1.396-3.154-3.154   c0-0.767,0.315-1.578,0.812-2.164C23.743,82.712,26.718,81,31.496,81c6.534,0,10.862,3.831,10.862,9.734v0.091   c0,5.272-2.705,7.888-8.294,12.213l-5.138,3.967h10.997c1.668,0,3.021,1.353,3.021,3.021s-1.353,2.976-3.021,2.976H22.798   c-2.164,0-3.742-1.217-3.742-3.29C19.056,108.357,19.688,107.186,20.859,106.238z"/></g><g><path d="M86.709,109.405c-0.631-0.54-1.17-1.484-1.17-2.474c0-1.797,1.527-3.326,3.326-3.326c0.988,0,1.662,0.404,2.203,0.854   c1.797,1.528,3.684,2.337,6.156,2.337c2.606,0,4.448-1.482,4.448-3.82v-0.09c0-2.562-2.293-4-6.157-4h-1.078   c-1.617,0-2.965-1.349-2.965-2.967c0-0.943,0.401-1.752,1.481-2.83l6.11-6.158h-9.662c-1.616,0-2.967-1.349-2.967-2.966   c0-1.616,1.352-2.966,2.969-2.966h15.326c2.021,0,3.504,1.168,3.504,3.057c0,1.709-0.81,2.652-2.066,3.864l-6.156,5.89   c4.268,0.717,8.449,2.965,8.449,8.809v0.09c0,5.934-4.314,10.292-11.326,10.292C92.641,113,89.27,111.605,86.709,109.405z"/></g></svg>