<?xml version="1.0" encoding="utf-8"?>
<!-- Svg Vector Icons : http://www.onlinewebfonts.com/icon -->
<!DOCTYPE svg PUBLIC "-//W3C//DTD SVG 1.1//EN" "http://www.w3.org/Graphics/SVG/1.1/DTD/svg11.dtd">
<svg version="1.1" xmlns="http://www.w3.org/2000/svg" xmlns:xlink="http://www.w3.org/1999/xlink" x="0px" y="0px" viewBox="0 0 1000 1000" enable-background="new 0 0 1000 1000" xml:space="preserve">
<metadata> Svg Vector Icons : http://www.onlinewebfonts.com/icon </metadata>
<g><g transform="translate(0.000000,511.000000) scale(0.100000,-0.100000)"><path d="M4733.9,4998.9C2957,4897,1388.1,3857.7,602.6,2258.7C228.8,1497.2,62.9,687.7,106.9-159.7c125.9-2408.4,2012.7-4377.1,4419.1-4613c313.8-32,917.4-16,1213.2,30c987.4,153.9,1918.8,613.6,2640.3,1305.1c1553,1487,1960.7,3777.6,1017.3,5696.3c-591.6,1205.2-1640.9,2110.6-2918.1,2518.3c-381.7,121.9-787.5,197.9-1159.2,213.9c-125.9,6-251.8,14-279.8,18C5011.7,5010.9,4875.8,5006.9,4733.9,4998.9z M4779.9,4249.4c0-375.8,18-443.7,129.9-495.7c81.9-40,97.9-40,179.9,0c111.9,52,129.9,119.9,129.9,493.7v331.8l115.9-10c371.8-32,893.4-143.9,1189.2-255.8c221.9-83.9,513.7-215.9,513.7-233.8c0-10-73.9-145.9-163.9-301.8c-193.9-335.8-207.9-401.7-99.9-497.7c78-70,191.9-77.9,267.8-18c28,20,119.9,159.9,205.9,309.8c84,147.9,161.9,273.8,169.9,279.8c40,24,539.6-373.8,781.5-623.6c243.8-251.8,569.6-669.6,547.6-705.5c-4-8-129.9-83.9-279.8-169.9c-147.9-83.9-287.8-177.9-309.8-205.9c-60-76-52-187.9,18-267.8c95.9-107.9,161.9-93.9,495.7,99.9c155.9,89.9,291.8,163.9,301.8,163.9c18,0,149.9-285.8,235.8-513.7c113.9-299.8,213.9-769.5,255.8-1199.2l10-105.9H9145c-375.8,0-443.7-18-495.7-129.9c-40-81.9-40-97.9,0-179.9c52-111.9,119.9-129.9,495.7-129.9h329.8l-10-103.9c-18-185.9-69.9-539.6-91.9-639.6l-22-95.9H7913.8H6478.7l-12,56c-50,231.9-127.9,411.7-257.8,593.6C6081-123.7,5977.1-33.8,5681.3,158.1c-4,2,173.9,501.7,393.7,1109.3c219.8,607.6,405.7,1125.3,411.7,1149.2c32,101.9-89.9,245.8-207.9,245.8c-66,0-155.9-56-185.9-115.9c-16-30-205.9-545.6-423.7-1145.3L5273.5,310h-241.8c-271.8,0-433.7-30-639.6-123.9c-243.8-109.9-451.7-279.8-603.6-495.7c-127.9-177.9-201.9-345.8-255.8-589.6l-12-56H2083.6H648.5l-22,105.9c-32,143.9-78,457.7-89.9,609.6l-10,123.9h329.8c373.7,0,441.7,18,493.7,129.9c40,82,40,98,0,179.9C1298.1,306,1230.2,324,856.4,324H524.6l10,115.9c32,371.8,133.9,855.4,245.8,1159.2c86,233.8,225.9,543.6,245.8,543.6c10,0,145.9-74,301.8-163.9c333.8-193.9,399.7-207.9,495.7-99.9c70,78,77.9,191.9,20,267.8c-22,26-153.9,113.9-295.8,195.9c-317.8,181.9-309.8,175.9-285.8,219.9c109.9,203.9,571.6,727.5,839.5,951.4c193.9,161.9,461.7,349.8,479.7,337.8c8-6,85.9-131.9,169.9-279.8c85.9-149.9,177.9-289.8,205.9-309.8c76-60,189.9-52,267.8,18c107.9,95.9,93.9,161.9-99.9,495.7c-89.9,155.9-163.9,291.8-163.9,301.8c0,20,309.8,159.9,543.7,245.8c291.8,107.9,817.5,219.9,1135.3,243.8c50,4,101.9,8,115.9,10C4773.9,4581.2,4779.9,4503.3,4779.9,4249.4z M5269.5-145.7c433.7-113.9,789.5-547.6,789.5-965.4c0-48,14-117.9,32-153.9c64-133.9,2-129.9,1644.9-129.9c815.5,0,1481-4,1481-10c0-4-42-105.9-91.9-223.9c-613.6-1447-1918.7-2458.4-3485.7-2698.2c-317.8-47.9-961.4-47.9-1279.2,0C2793.2-4087.2,1490-3077.8,874.4-1628.8c-50,117.9-91.9,219.9-91.9,223.9c0,6,669.6,10,1489,10c1636.9,0,1575-4,1638.9,119.9c16,32,30,102,30,153.9c0,423.7,349.8,857.5,781.5,973.4C4865.8-109.8,5123.6-107.7,5269.5-145.7z"/><path d="M4905.8-995.2c-77.9-46-105.9-95.9-105.9-185.9c0-141.9,151.9-241.8,285.8-187.9c88,38,133.9,103.9,133.9,193.9c0,83.9-40,149.9-119.9,189.9C5023.7-945.2,4981.7-947.2,4905.8-995.2z"/></g></g>
</svg>