<?xml version="1.0" encoding="utf-8"?>
<!-- Svg Vector Icons : http://www.onlinewebfonts.com/icon -->
<!DOCTYPE svg PUBLIC "-//W3C//DTD SVG 1.1//EN" "http://www.w3.org/Graphics/SVG/1.1/DTD/svg11.dtd">
<svg version="1.1" xmlns="http://www.w3.org/2000/svg" xmlns:xlink="http://www.w3.org/1999/xlink" x="0px" y="0px" viewBox="0 0 1000 1000" enable-background="new 0 0 1000 1000" xml:space="preserve">
<metadata> Svg Vector Icons : http://www.onlinewebfonts.com/icon </metadata>
<g><path d="M607,666.2H503.7c-19,0-34.4-15.4-34.4-34.5c0-19,15.4-34.5,34.4-34.5H607v-34.4h137.8c19,0,34.5,15.4,34.5,34.4v68.5c56.6-4.9,101.2-56.8,101.2-120.2c0-66.6-49.2-120.6-109.9-120.6H597.2l59-68.9h123c95.1,0,172.2,84.8,172.2,189.5c0,104.6-77.1,189.5-172.2,189.5v68.9c0,19-15.4,34.4-34.5,34.4H607v-34.4H503.7c-19,0-34.4-15.4-34.4-34.5c0-19,15.4-34.5,34.4-34.5H607L607,666.2L607,666.2z"/><path d="M265.4,10l379.5,1l-246,345.2h237.7L65.2,990l204.4-437.9h-221L265.4,10z"/></g>
</svg>