<?xml version="1.0" encoding="utf-8"?>
<!-- Svg Vector Icons : http://www.onlinewebfonts.com/icon -->
<!DOCTYPE svg PUBLIC "-//W3C//DTD SVG 1.1//EN" "http://www.w3.org/Graphics/SVG/1.1/DTD/svg11.dtd">
<svg version="1.1" xmlns="http://www.w3.org/2000/svg" xmlns:xlink="http://www.w3.org/1999/xlink" x="0px" y="0px" viewBox="0 0 1000 1000" enable-background="new 0 0 1000 1000" xml:space="preserve">
<metadata> Svg Vector Icons : http://www.onlinewebfonts.com/icon </metadata>
<g><path d="M799.7,105.1c52.5,0,95.1,42.6,95.1,95.1v599.4c0,52.5-42.6,95.1-95.1,95.1H200.3c-52.5,0-95.1-42.6-95.1-95.1V200.3c0-52.5,42.6-95.1,95.1-95.1H799.7z M990,188.4C990,89.9,910.1,10,811.6,10H188.4C89.9,10,10,89.9,10,188.4v623.2C10,910.1,89.9,990,188.4,990h623.2c98.5,0,178.4-79.9,178.4-178.4V188.4z M627.5,408.3c-70.4-70.4-184.6-70.4-255,0c-70.4,70.4-70.4,184.6,0,255c70.4,70.4,184.6,70.4,255,0C697.9,592.9,697.9,478.8,627.5,408.3z M453.6,525.9l-60.5-60.5l36.4-36.4l60.5,60.5L453.6,525.9L453.6,525.9z M763.6,554.6c-1.6,23.1-6.2,45.4-13.4,66.4l41.1,17.3c-4.2,11.8-9,23.4-14.6,34.5l-41.1-17.3c-9.8,19.3-22,37.2-36,53.4l31.6,31.6c-8.3,9.4-17.1,18.2-26.5,26.5l-58.1-58.1c49.1-41.6,80.3-103.7,80.3-173c0-125.1-101.7-226.8-226.8-226.8c-125.1,0-226.8,101.7-226.8,226.8c0,69.3,31.2,131.3,80.3,173l-59.4,59.4l-26.5-26.5l32.9-32.9c-14.4-16.6-26.9-35.1-36.8-54.9L222.4,671c-5.5-11.2-10.2-22.7-14.3-34.6l41.2-17.1c-6.9-20.6-11.3-42.3-12.9-64.8h-44.5v-37.5h44.5c1.6-23.1,6.2-45.4,13.4-66.4l-41.1-17.3c4.2-11.9,9-23.4,14.6-34.5l41.1,17.3c9.8-19.3,22-37.2,36-53.4l-31.6-31.6c8.3-9.4,17.1-18.2,26.5-26.5l31.6,31.6c16.6-14.4,35.1-26.8,55-36.8l-17.1-41.2c11.2-5.4,22.7-10.2,34.6-14.3l17.1,41.2c20.6-6.9,42.3-11.3,64.8-12.9v-44.5h37.5v44.5c23.1,1.6,45.3,6.2,66.4,13.4l17.3-41.1c11.9,4.2,23.4,9,34.5,14.6l-17.3,41.1c19.3,9.8,37.2,22,53.4,36l31.6-31.6c9.4,8.3,18.2,17.1,26.5,26.5l-31.6,31.6c14.4,16.6,26.8,35.1,36.8,55l41.2-17.1c5.4,11.2,10.2,22.7,14.3,34.6l-41.2,17.1c6.9,20.6,11.3,42.3,12.9,64.8h44.5v37.5L763.6,554.6L763.6,554.6z"/></g>
</svg>