<?xml version="1.0" encoding="utf-8"?>
<!-- Svg Vector Icons : http://www.onlinewebfonts.com/icon -->
<!DOCTYPE svg PUBLIC "-//W3C//DTD SVG 1.1//EN" "http://www.w3.org/Graphics/SVG/1.1/DTD/svg11.dtd">
<svg version="1.1" xmlns="http://www.w3.org/2000/svg" xmlns:xlink="http://www.w3.org/1999/xlink" x="0px" y="0px" viewBox="0 0 1000 1000" enable-background="new 0 0 1000 1000" xml:space="preserve">
<metadata> Svg Vector Icons : http://www.onlinewebfonts.com/icon </metadata>
<g><g transform="translate(0.000000,511.000000) scale(0.100000,-0.100000)"><path d="M4911.6,4361.3c-21.6-9.8-52.9-33.3-70.6-52.9c-17.6-21.6-1091.7-1873.7-2387.2-4115.8C515.5-3168.6,100-3899.7,100-3958.5c0-49,15.7-88.2,56.8-133.3l56.8-64.7h4786.1h4786.1l56.8,64.7c76.4,84.3,76.4,176.4,0,296c-31.3,49-662.4,1138.7-1403.3,2422.4C5040.9,4516.1,5154.6,4320.2,5095.8,4349.6C5035,4380.9,4972.3,4384.8,4911.6,4361.3z M7163.5,0.5c1181.8-2048.1,2146.1-3725.8,2142.2-3729.7c-3.9-2-1948.2-3.9-4317.7-2l-4311.8,5.9L2834.1,12.3c1185.7,2055.9,2161.8,3731.6,2167.7,3723.8C5009.6,3728.3,5981.7,2046.7,7163.5,0.5z"/><path d="M4088.4,1254.9c-31.4-13.7-72.5-43.1-92.1-62.7c-41.2-49-513.5-2393-493.9-2465.6c5.9-27.4,39.2-74.5,72.5-101.9l62.7-52.9l570.3,15.7l572.3,13.7l11.8-301.8c5.9-164.6,15.7-621.3,21.6-1011.3c11.8-754.6,17.6-797.7,105.8-846.7c68.6-35.3,192.1-23.5,245,25.5c62.7,54.9,1285.7,3243.6,1285.7,3349.5c0,90.2-60.7,166.6-152.9,192.1C6256,18.2,6017,28,5756.3,28c-364.5,0-464.5,5.9-456.7,25.5c3.9,11.7,80.4,243,168.6,509.6c117.6,356.7,158.7,501.7,148.9,542.9c-15.7,74.5-94.1,148.9-168.6,164.6c-35.3,5.9-341,11.8-682,11.8C4296.2,1280.3,4133.5,1274.5,4088.4,1254.9z M5117.3,845.2c0-2-74.5-229.3-166.6-503.7c-92.1-274.4-166.6-515.4-166.6-535c0-60.8,56.8-149,117.6-180.3c47-23.5,147-29.4,550.7-29.4c460.6,0,492-2,478.2-33.3c-5.9-19.6-162.7-427.3-346.9-907.4c-182.3-480.2-339.1-883.9-348.9-899.6c-7.9-15.7-17.6,231.3-23.5,548.8c-7.8,627.2-9.8,635-123.5,693.8c-50.9,27.4-125.4,29.4-588,13.7c-290.1-7.9-531.1-13.7-533.1-13.7c-5.9,2,331.2,1697.3,356.7,1809c9.8,43.1,11.8,43.1,401.8,43.1C4941,851.1,5117.3,849.2,5117.3,845.2z"/></g></g>
</svg>