<?xml version="1.0"?>
<svg enable-background="new 0 0 140 140" height="140px" id="Слой_1" version="1.1" viewBox="0 0 140 140" width="140px" xml:space="preserve" xmlns="http://www.w3.org/2000/svg" xmlns:xlink="http://www.w3.org/1999/xlink">
 <g>
  <title>Layer 1</title>
  <path id="svg_4" d="m70.100125,139.848296c-37.329,0 -67.699,-30.369 -67.699,-67.698s30.37,-67.699 67.699,-67.699s67.698,30.37 67.698,67.699s-30.369,67.698 -67.698,67.698zm0,-129.397c-34.021,0 -61.699,27.678 -61.699,61.699c0,34.021 27.678,61.698 61.699,61.698c34.021,0 61.698,-27.678 61.698,-61.698c0,-34.022 -27.678,-61.699 -61.698,-61.699z"/>
  <path id="svg_6" d="m109.631125,75.150296c-1.105,0 -2,-0.895 -2,-2l0,-2c0,-1.104 0.895,-2 2,-2l8.441,0c-1.554,-25.111 -22.477,-45.066 -47.973,-45.066s-46.418,19.955 -47.972,45.066l8.441,0c1.105,0 2,0.896 2,2l0,2c0,1.105 -0.895,2 -2,2l-14.534,0l0,-3c0,-29.813 24.254,-54.066 54.065,-54.066c29.811,0 54.065,24.254 54.065,54.066l0,3l-14.533,0z"/>
  <path id="svg_9" d="m70.104125,82.466296l0,0c-4.093,0 -7.801,-2.42 -9.447,-6.165c-2.289,-5.207 0.085,-11.307 5.292,-13.595c1.319,-0.58 2.715,-0.874 4.147,-0.874c4.092,0 7.8,2.42 9.447,6.165c2.289,5.207 -0.085,11.306 -5.292,13.595c-1.319,0.58 -2.715,0.874 -4.147,0.874zm-0.008,-14.633c-0.597,0 -1.18,0.123 -1.733,0.366c-2.179,0.958 -3.171,3.51 -2.214,5.688c0.69,1.566 2.241,2.579 3.955,2.579l0,0c0.596,0 1.18,-0.123 1.733,-0.366c2.178,-0.958 3.171,-3.509 2.214,-5.688c-0.69,-1.567 -2.242,-2.579 -3.955,-2.579z"/>
  <path id="svg_11" d="m52.909125,40.501296c-0.444,-1.011 0.015,-2.191 1.026,-2.636l1.83,-0.805c1.011,-0.444 2.191,0.015 2.636,1.026l11.501,26.158l-5.492,2.414l-11.501,-26.157z"/>
 </g>
</svg>