<?xml version="1.0" encoding="utf-8"?>
<!-- Svg Vector Icons : http://www.onlinewebfonts.com/icon -->
<!DOCTYPE svg PUBLIC "-//W3C//DTD SVG 1.1//EN" "http://www.w3.org/Graphics/SVG/1.1/DTD/svg11.dtd">
<svg version="1.1" xmlns="http://www.w3.org/2000/svg" xmlns:xlink="http://www.w3.org/1999/xlink" x="0px" y="0px" viewBox="0 0 1000 1000" enable-background="new 0 0 1000 1000" xml:space="preserve">
<metadata> Svg Vector Icons : http://www.onlinewebfonts.com/icon </metadata>
<g><g transform="translate(0.000000,511.000000) scale(0.100000,-0.100000)"><path d="M6820.4,4980.8c-73.1-35.4-374.3-321.1-1156.1-1103L4605.6,2821.3l-536,536c-296.8,294.6-567,547-600.2,558.1c-104.1,39.9-261.4,28.8-345.5-22.1c-241.4-146.2-254.7-442.9-26.6-648.9l46.5-42.1l-449.6-456.2c-245.8-250.3-509.4-536-582.5-633.4c-365.4-485-595.8-985.6-719.8-1557c-57.6-272.4-81.9-921.4-44.3-1207.1c55.4-418.6,214.8-894.8,416.4-1242.5l99.7-175l-841.6-843.8C83-3856.2,96.3-3836.3,100.7-4133.1C103-4372.3,209.3-4567.2,402-4689c121.8-77.5,332.2-126.3,458.5-108.5c225.9,33.2,259.1,59.8,1134,932.4l830.5,830.5l276.9-144c305.6-157.2,571.4-254.7,899.2-327.8c188.3-42.1,283.5-48.7,715.4-48.7c434.1,0,527.1,6.7,719.8,48.7c642.3,141.8,1231.4,429.7,1696.5,826.1c88.6,77.5,343.3,316.7,564.8,533.8l400.9,394.2l42.1-46.5c57.6-64.2,203.8-130.7,292.4-130.7c175,0,345.5,146.2,369.9,318.9c28.8,188.3,4.4,223.7-571.4,806.2l-533.8,536L8773.8,812.5C9941,1984.2,9914.5,1948.7,9894.5,2181.3c-13.3,159.5-93,274.6-241.4,349.9c-132.9,66.4-250.3,73.1-369.9,24.4c-55.4-24.4-416.4-369.9-1156.1-1107.4L7052.9,374l-897,897l-897,897l1078.6,1078.6c976.7,978.9,1078.6,1089.7,1103,1180.5c35.4,128.4,15.5,292.4-46.5,389.8C7281.1,5000.7,7021.9,5073.8,6820.4,4980.8z M7081.7-1676.9c-507.2-500.5-735.3-675.5-1105.2-848.3c-454-212.6-759.7-279.1-1282.3-279.1c-352.1,2.2-409.7,6.6-631.2,64.2c-493.9,126.2-879.3,343.3-1220.3,686.6c-542.6,544.8-788.5,1196-755.2,2000c17.7,434.1,101.9,768.5,290.1,1165c166.1,345.5,325.6,551.5,830.5,1063.1l476.2,482.8L5620,723.9l1933.5-1933.5L7081.7-1676.9z"/></g></g>
</svg>