<?xml version="1.0" ?><svg enable-background="new 0 0 512 512" id="Layer_2" version="1.0" viewBox="0 0 512 512" xml:space="preserve" xmlns="http://www.w3.org/2000/svg" xmlns:xlink="http://www.w3.org/1999/xlink"><g><g><circle cx="177.712" cy="438.012" fill="#474747" r="12.546"/><circle cx="268.398" cy="473.214" fill="#474747" r="12.546"/><circle cx="383.375" cy="387.461" fill="#474747" r="12.546"/><circle cx="370.829" cy="468.451" fill="#474747" r="12.546"/><circle cx="453.463" cy="419.874" fill="#474747" r="12.546"/><circle cx="481.994" cy="351.142" fill="#474747" r="12.546"/><circle cx="370.829" cy="329.331" fill="#474747" r="12.546"/><circle cx="370.829" cy="146.324" fill="#474747" r="12.546"/><circle cx="210.855" cy="43.443" fill="#474747" r="12.546"/><circle cx="440.916" cy="101.157" fill="#474747" r="12.546"/><circle cx="308.762" cy="55.989" fill="#474747" r="12.546"/><circle cx="152.619" cy="121.232" fill="#474747" r="12.546"/></g><g><path d="    M221.517,165.336c0-21.065,17.077-38.142,38.142-38.142s38.142,17.077,38.142,38.142s-17.077,38.142-38.142,38.142H92.404" fill="none" stroke="#474747" stroke-linecap="round" stroke-linejoin="round" stroke-miterlimit="10" stroke-width="15"/><path d="    M221.517,376.737c0,21.065,17.077,38.142,38.142,38.142c21.065,0,38.142-17.077,38.142-38.142    c0-21.065-17.077-38.142-38.142-38.142H92.404" fill="none" stroke="#474747" stroke-linecap="round" stroke-linejoin="round" stroke-miterlimit="10" stroke-width="15"/><path d="    M403.118,232.89c0-21.065,17.077-38.142,38.142-38.142c21.065,0,38.142,17.077,38.142,38.142s-17.077,38.142-38.142,38.142H22.066    " fill="none" stroke="#474747" stroke-linecap="round" stroke-linejoin="round" stroke-miterlimit="10" stroke-width="15"/></g></g></svg>