<?xml version="1.0" ?><!DOCTYPE svg  PUBLIC '-//W3C//DTD SVG 1.1//EN'  'http://www.w3.org/Graphics/SVG/1.1/DTD/svg11.dtd'><svg enable-background="new 0 0 100 100" height="100px" id="Your_Icon" version="1.1" viewBox="0 0 100 100" width="100px" xml:space="preserve" xmlns="http://www.w3.org/2000/svg" xmlns:xlink="http://www.w3.org/1999/xlink"><g><g><path d="M9.25,69.25c-0.552,0-1-0.447-1-1v-36c0-0.552,0.448-1,1-1h10c0.552,0,1,0.448,1,1v36c0,0.553-0.448,1-1,1H9.25z"/></g><g><g><path d="M19.25,32.25v36h-10v-36H19.25 M19.25,30.25h-10c-1.104,0-2,0.896-2,2v36c0,1.104,0.896,2,2,2h10c1.104,0,2-0.896,2-2     v-36C21.25,31.146,20.354,30.25,19.25,30.25L19.25,30.25z"/></g></g></g><g><g><path d="M25.25,69.25c-0.552,0-1-0.447-1-1v-36c0-0.552,0.448-1,1-1h10c0.552,0,1,0.448,1,1v36c0,0.553-0.448,1-1,1H25.25z"/></g><g><g><path d="M35.25,32.25v36h-10v-36H35.25 M35.25,30.25h-10c-1.104,0-2,0.896-2,2v36c0,1.104,0.896,2,2,2h10c1.104,0,2-0.896,2-2     v-36C37.25,31.146,36.354,30.25,35.25,30.25L35.25,30.25z"/></g></g></g><g><g><path d="M41.25,69.25c-0.552,0-1-0.447-1-1v-36c0-0.552,0.448-1,1-1h10c0.553,0,1,0.448,1,1v36c0,0.553-0.447,1-1,1H41.25z"/></g><g><g><path d="M51.25,32.25v36h-10v-36H51.25 M51.25,30.25h-10c-1.104,0-2,0.896-2,2v36c0,1.104,0.896,2,2,2h10c1.104,0,2-0.896,2-2     v-36C53.25,31.146,52.354,30.25,51.25,30.25L51.25,30.25z"/></g></g></g><g><g><path d="M57.25,69.25c-0.553,0-1-0.447-1-1v-36c0-0.552,0.447-1,1-1h10c0.553,0,1,0.448,1,1v36c0,0.553-0.447,1-1,1H57.25z"/></g><g><g><path d="M67.25,32.25v36h-10v-36H67.25 M67.25,30.25h-10c-1.104,0-2,0.896-2,2v36c0,1.104,0.896,2,2,2h10c1.104,0,2-0.896,2-2     v-36C69.25,31.146,68.354,30.25,67.25,30.25L67.25,30.25z"/></g></g></g><path d="M95,41.5h-4.75V28.25c0-0.893-0.397-1.685-1.016-2.234C88.685,25.397,87.893,25,87,25H5c-1.657,0-3,1.343-3,3v44  c0,0.893,0.397,1.686,1.016,2.234c0.549,0.618,1.342,1.016,2.234,1.016h82c1.657,0,3-1.343,3-3V60.5H95c0.828,0,1.5-0.672,1.5-1.5  V43C96.5,42.171,95.828,41.5,95,41.5z M87,28.25V72H5.25V28.25H87z"/></svg>