<?xml version="1.0" ?><svg height="60" viewBox="0 0 66 60" width="66" xmlns="http://www.w3.org/2000/svg"><path d="M539,1186.91078 L539,1193 C539,1195.76142 541.238576,1198 544,1198 L602,1198 C602.552285,1198 603,1198.44772 603,1199 C603,1199.55228 602.552285,1200 602,1200 L544,1200 C540.134007,1200 537,1196.86599 537,1193 L537,1141 C537,1140.44772 537.447715,1140 538,1140 C538.552285,1140 539,1140.44772 539,1141 L539,1167 L546.709126,1167 C548.196295,1160.73813 548.964363,1158.00567 550.159641,1155.22954 C551.89889,1151.18999 554.058469,1149 557,1149 C559.941531,1149 562.10111,1151.18999 563.840359,1155.22954 C565.035637,1158.00567 565.803705,1160.73813 567.290874,1167 L584.709126,1167 C586.196295,1160.73813 586.964363,1158.00567 588.159641,1155.22954 C589.89889,1151.18999 592.058469,1149 595,1149 C595.552285,1149 596,1149.44772 596,1150 C596,1150.55228 595.552285,1151 595,1151 C591.513273,1151 589.629332,1155.11135 586.766402,1167 L598,1167 C598.552285,1167 599,1167.44772 599,1168 C599,1168.55228 598.552285,1169 598,1169 L586.290874,1169 C584.803705,1175.26187 584.035637,1177.99433 582.840359,1180.77046 C581.10111,1184.81001 578.941531,1187 576,1187 C573.058469,1187 570.89889,1184.81001 569.159641,1180.77046 C567.964363,1177.99433 567.196295,1175.26187 565.709126,1169 L548.290874,1169 C546.803705,1175.26187 546.035637,1177.99433 544.840359,1180.77046 C543.304404,1184.33784 541.440638,1186.46277 539,1186.91078 Z M539,1184.87313 C541.873092,1184.10049 543.656807,1179.70043 546.233598,1169 L539,1169 L539,1184.87313 Z M567.766402,1169 C570.629332,1180.88865 572.513273,1185 576,1185 C579.486727,1185 581.370668,1180.88865 584.233598,1169 L567.766402,1169 Z M565.233598,1167 C562.370668,1155.11135 560.486727,1151 557,1151 C553.513273,1151 551.629332,1155.11135 548.766402,1167 L565.233598,1167 Z" fill="#000000" transform="translate(-537 -1140)"/></svg>