<?xml version="1.0" ?><svg baseProfile="tiny" height="512px" id="Layer_1" version="1.2" viewBox="0 0 512 512" width="512px" xml:space="preserve" xmlns="http://www.w3.org/2000/svg" xmlns:xlink="http://www.w3.org/1999/xlink"><polygon points="243.739,135.58 356.345,134.74 309.286,219.614 362.647,217.093 213.067,399.866 257.605,287.681 208.445,286.841   "/><path d="M-115.924,70.454" fill="#FFFFFF"/><path d="M435.058,87.119c-42.068-42.068-98.001-65.236-157.495-65.236c-59.493,0-115.426,23.168-157.494,65.236  c-41.423,41.423-64.504,96.292-65.203,154.764h40.001c1.467-99.503,82.851-180,182.696-180  c100.759,0,182.731,81.973,182.731,182.731s-81.973,182.731-182.731,182.731c-0.632,0-1.26-0.018-1.891-0.024v40.001  c0.631,0.006,1.259,0.023,1.891,0.023c59.494,0,115.427-23.168,157.495-65.236s65.236-98.001,65.236-157.495  S477.126,129.188,435.058,87.119z"/><path d="M138.739,258.928c0-0.083,0.006-0.164,0.006-0.247c0-33.642-27.273-60.915-60.915-60.915  c-33.643,0-60.915,27.273-60.915,60.915c0,0.083,0.005,0.164,0.006,0.247H138.739z"/><path d="M59.877,292.448c0,4.097-3.321,7.418-7.418,7.418l0,0c-4.097,0-7.417-3.321-7.417-7.418v-35.165  c0-4.096,3.321-7.417,7.417-7.417l0,0c4.097,0,7.418,3.321,7.418,7.417V292.448z"/><path d="M109.877,292.448c0,4.097-3.321,7.418-7.418,7.418l0,0c-4.097,0-7.417-3.321-7.417-7.418v-35.165  c0-4.096,3.321-7.417,7.417-7.417l0,0c4.097,0,7.418,3.321,7.418,7.417V292.448z"/></svg>