<?xml version="1.0" encoding="UTF-8"?>
<svg xmlns="http://www.w3.org/2000/svg" xmlns:xlink="http://www.w3.org/1999/xlink" enable-background="new 0 0 59 57" height="57px" version="1.1" viewBox="0 0 59 57" width="59px" xml:space="preserve">
    <g>
        <path stroke="black" stroke-opacity="0" id="svg_1" fill="black" d="m34.364,56.95c-3.411,0.001 -7.127,-1.309 -11.333,-2.792c-5.007,-1.765 -10.68,-3.764 -17.653,-4.346c-0.442,-0.036 -0.808,-0.361 -0.896,-0.795c-3.945,-19.221 17.399,-42.854 17.619,-43.073c2.699,-2.698 8.923,-4.977 13.593,-4.977c2.922,0 5.659,1.278 7.141,3.335c1.105,1.533 1.403,3.312 0.837,5.008c-0.897,2.694 -3.701,5.375 -6.249,5.976c-1.412,0.332 -2.692,0.013 -3.607,-0.9c-0.745,-0.745 -2.209,-1.962 -3.645,-1.728c-1.017,0.165 -1.934,1.053 -2.727,2.639c-1.711,3.419 -2.249,7.462 -2.817,11.742c-0.348,2.612 -0.702,5.279 -1.339,7.914c2.65,-2.372 5.692,-3.534 9.202,-3.534c5.574,0 9.071,3.352 10.566,5.186c1.83,-2.145 6.55,-6.45 14.201,-5.172c0.545,0.091 0.913,0.606 0.822,1.15c-0.091,0.545 -0.606,0.91 -1.15,0.822c-8.533,-1.424 -12.873,5.131 -13.054,5.411c-0.187,0.29 -0.522,0.464 -0.857,0.458c-0.345,-0.006 -0.664,-0.188 -0.841,-0.484c-0.132,-0.218 -3.332,-5.371 -9.687,-5.371c-4.431,0 -7.889,2.091 -10.883,6.582c-0.287,0.429 -0.852,0.57 -1.309,0.324c-0.454,-0.246 -0.647,-0.798 -0.442,-1.273c1.675,-3.909 2.241,-8.163 2.788,-12.277c0.592,-4.45 1.151,-8.654 3.01,-12.372c1.098,-2.194 2.51,-3.445 4.197,-3.719c1.739,-0.279 3.599,0.508 5.38,2.288c0.155,0.156 0.623,0.631 1.733,0.368c1.883,-0.445 4.131,-2.623 4.812,-4.663c0.457,-1.371 -0.054,-2.5 -0.563,-3.206c-1.114,-1.545 -3.229,-2.505 -5.519,-2.505c-4.589,0 -10.101,2.315 -12.179,4.392c-3.245,3.244 -19.933,24.254 -17.209,40.531c6.877,0.677 12.451,2.642 17.39,4.384c4.858,1.711 8.694,3.064 12.084,2.581c7.782,-1.111 12.277,-5.528 12.322,-5.574c0.212,-0.211 0.5,-0.312 0.805,-0.287c0.298,0.029 0.568,0.191 0.734,0.44c0.083,0.122 2.133,3.068 6.197,3.068c0.553,0 1,0.448 1,1c0,0.553 -0.447,1 -1,1c-3.664,0 -6.033,-1.914 -7.139,-3.082c-1.719,1.417 -6.088,4.48 -12.635,5.415c-0.559,0.079 -1.125,0.116 -1.7,0.116z"/>
    </g>                                                                                   
</svg>