<?xml version="1.0" ?><!DOCTYPE svg  PUBLIC '-//W3C//DTD SVG 1.1//EN'  'http://www.w3.org/Graphics/SVG/1.1/DTD/svg11.dtd'><svg enable-background="new 0 0 26 26" id="Слой_1" version="1.1" viewBox="0 0 26 26" xml:space="preserve" xmlns="http://www.w3.org/2000/svg" xmlns:xlink="http://www.w3.org/1999/xlink"><g><path d="M21.25,1H4.75C2.6826172,1,1,2.6821289,1,4.75v16.5C1,23.3178711,2.6826172,25,4.75,25h16.5   c2.0673828,0,3.75-1.6821289,3.75-3.75V4.75C25,2.6821289,23.3173828,1,21.25,1z M23.5,21.25c0,1.2407227-1.0097656,2.25-2.25,2.25   H4.75c-1.2402344,0-2.25-1.0092773-2.25-2.25V4.75c0-1.2407227,1.0097656-2.25,2.25-2.25h16.5   c1.2402344,0,2.25,1.0092773,2.25,2.25V21.25z" fill="#1D1D1B"/><path d="M13.8084106,5.7979126C13.7883301,5.7954712,13.7706909,5.7861328,13.75,5.7861328   c-0.0028076,0-0.005188,0.0015259-0.0079956,0.0015869C13.4979858,5.7628174,13.2504883,5.75,13,5.75   c-3.9980469,0-7.25,3.2524414-7.25,7.25s3.2519531,7.25,7.25,7.25s7.25-3.2524414,7.25-7.25   C20.25,9.2759399,17.4268799,6.2015991,13.8084106,5.7979126z M13.25,6.7626953v0.2788086h-0.5V6.7626953   C12.8335571,6.7593384,12.9155884,6.75,13,6.75S13.1664429,6.7593384,13.25,6.7626953z M12.75,19.2373047v-0.2431641h0.5v0.2431641   C13.1664429,19.2406616,13.0844116,19.25,13,19.25S12.8335571,19.2406616,12.75,19.2373047z M14.25,19.1240234v-0.6298828   c0-0.2763672-0.2236328-0.5-0.5-0.5h-1.5c-0.2763672,0-0.5,0.2236328-0.5,0.5v0.6298828   C8.9006958,18.543335,6.75,16.0183105,6.75,13s2.1506958-5.543335,5-6.1240234v0.6655273c0,0.2763672,0.2236328,0.5,0.5,0.5h1.5   c0.2763672,0,0.5-0.2236328,0.5-0.5V6.8759766c2.8493042,0.5806885,5,3.1057129,5,6.1240234S17.0993042,18.543335,14.25,19.1240234   z" fill="#1D1D1B"/><circle cx="10.25" cy="13" fill="#1D1D1B" r="1"/><circle cx="15.75" cy="13" fill="#1D1D1B" r="1"/></g></svg>