<?xml version="1.0" ?><!DOCTYPE svg  PUBLIC '-//W3C//DTD SVG 1.1//EN'  'http://www.w3.org/Graphics/SVG/1.1/DTD/svg11.dtd'><svg enable-background="new 0 0 26 26" id="Слой_1" version="1.1" viewBox="0 0 26 26" xml:space="preserve" xmlns="http://www.w3.org/2000/svg" xmlns:xlink="http://www.w3.org/1999/xlink"><g><path d="M11.0966797,15.2324219c0.6474609,0,1.2568359-0.2519531,1.7138672-0.7099609   c0.4580078-0.4570313,0.7099609-1.0664063,0.7099609-1.7138672c0-0.6484375-0.2519531-1.2578125-0.7099609-1.7148438   c-0.9150391-0.9169922-2.515625-0.9160156-3.4287109,0c-0.4580078,0.4570313-0.7099609,1.0664063-0.7099609,1.7148438   c0,0.6474609,0.2519531,1.2568359,0.7099609,1.7138672C9.8388672,14.9804688,10.4482422,15.2324219,11.0966797,15.2324219z    M10.0888672,11.8007813c0.2685547-0.2695313,0.6269531-0.4169922,1.0078125-0.4169922   c0.3798828,0,0.7382813,0.1474609,1.0068359,0.4169922c0.2695313,0.2685547,0.4169922,0.6269531,0.4169922,1.0078125   c0,0.3798828-0.1474609,0.7382813-0.4169922,1.0068359c-0.5380859,0.5400391-1.4785156,0.5380859-2.0146484,0   C9.8193359,13.546875,9.671875,13.1884766,9.671875,12.8085938C9.671875,12.4277344,9.8193359,12.0693359,10.0888672,11.8007813z" fill="#1D1D1B"/><path d="M10.5419922,12.6464844c0.1044922,0,0.203125-0.0410156,0.2773438-0.1152344   s0.1152344-0.1728516,0.1152344-0.2783203c0-0.1044922-0.0410156-0.203125-0.1152344-0.2773438   c-0.1494141-0.1494141-0.4082031-0.1484375-0.5556641,0c-0.1533203,0.1533203-0.1533203,0.4023438,0,0.5556641   C10.3378906,12.6054688,10.4365234,12.6464844,10.5419922,12.6464844z" fill="#1D1D1B"/><path d="M11.6513672,13.7558594c0.1044922,0,0.203125-0.0410156,0.2773438-0.1152344   s0.1152344-0.1728516,0.1152344-0.2783203c0-0.1044922-0.0410156-0.203125-0.1152344-0.2773438   c-0.1484375-0.1494141-0.4072266-0.1474609-0.5556641,0c-0.1533203,0.1533203-0.1533203,0.4023438,0,0.5556641   C11.4472656,13.7148438,11.5458984,13.7558594,11.6513672,13.7558594z" fill="#1D1D1B"/><path d="M9.0546875,18.2792969c0.9443359-0.9453125,0.9443359-2.484375,0-3.4296875   c-0.9160156-0.9160156-2.5136719-0.9160156-3.4296875,0c-0.9453125,0.9453125-0.9453125,2.484375,0,3.4296875   c0.4580078,0.4580078,1.0673828,0.7099609,1.7148438,0.7099609S8.5966797,18.7373047,9.0546875,18.2792969z M6.3320313,15.5566406   c0.2695313-0.2685547,0.6269531-0.4169922,1.0078125-0.4169922s0.7382813,0.1484375,1.0078125,0.4169922   c0.5546875,0.5556641,0.5546875,1.4599609,0,2.015625c-0.5390625,0.5390625-1.4765625,0.5390625-2.015625,0   C5.7763672,17.0166016,5.7763672,16.1123047,6.3320313,15.5566406z" fill="#1D1D1B"/><path d="M6.5078125,15.7324219c-0.1533203,0.1533203-0.1533203,0.4023438,0,0.5556641   c0.0742188,0.0742188,0.1728516,0.1152344,0.2773438,0.1152344s0.203125-0.0410156,0.2773438-0.1152344   c0.1533203-0.1533203,0.1533203-0.4023438,0-0.5556641C6.9140625,15.5839844,6.65625,15.5839844,6.5078125,15.7324219z" fill="#1D1D1B"/><path d="M7.8935547,17.5117188c0.1054688,0,0.2041016-0.0410156,0.2783203-0.1152344   c0.1533203-0.1533203,0.1533203-0.4013672,0-0.5546875c-0.1484375-0.1484375-0.4072266-0.1494141-0.5556641,0   c-0.1533203,0.1533203-0.1533203,0.4013672,0,0.5546875C7.6904297,17.4707031,7.7890625,17.5117188,7.8935547,17.5117188z" fill="#1D1D1B"/><path d="M14.8525391,11.4765625c0.6474609,0,1.2568359-0.2519531,1.7148438-0.7099609   c0.9453125-0.9453125,0.9453125-2.484375,0-3.4296875c-0.9160156-0.9160156-2.5136719-0.9160156-3.4296875,0   c-0.9443359,0.9453125-0.9443359,2.484375,0,3.4296875C13.5957031,11.2246094,14.2050781,11.4765625,14.8525391,11.4765625z    M13.8447266,8.0439453c0.2695313-0.2695313,0.6269531-0.4169922,1.0078125-0.4169922s0.7382813,0.1474609,1.0078125,0.4169922   c0.5556641,0.5556641,0.5556641,1.4599609,0,2.015625c-0.5390625,0.5371094-1.4765625,0.5371094-2.015625,0   C13.2900391,9.5039063,13.2900391,8.5996094,13.8447266,8.0439453z" fill="#1D1D1B"/><path d="M14.2978516,8.8896484c0.1054688,0,0.2041016-0.0410156,0.2783203-0.1152344   c0.1533203-0.1533203,0.1533203-0.4013672,0-0.5546875c-0.1484375-0.1484375-0.40625-0.1494141-0.5556641,0   c-0.1533203,0.1533203-0.1533203,0.4013672,0,0.5546875C14.0947266,8.8486328,14.1933594,8.8896484,14.2978516,8.8896484z" fill="#1D1D1B"/><path d="M15.4072266,9.9990234c0.1044922,0,0.203125-0.0410156,0.2773438-0.1152344   c0.1533203-0.1533203,0.1533203-0.4023438,0-0.5556641c-0.1484375-0.1484375-0.40625-0.1484375-0.5546875,0   c-0.1533203,0.1533203-0.1533203,0.4023438,0,0.5556641C15.2041016,9.9580078,15.3027344,9.9990234,15.4072266,9.9990234z" fill="#1D1D1B"/><path d="M18.421875,8.2050781c0.09375,0.09375,0.2207031,0.1464844,0.3535156,0.1464844   s0.2597656-0.0527344,0.3535156-0.1464844l1.0244141-1.0244141c0.1953125-0.1953125,0.1953125-0.5117188,0-0.7070313   l-2.7226563-2.7226563c-0.1953125-0.1953125-0.5117188-0.1953125-0.7070313,0l-1.0244141,1.0244141   c-0.09375,0.09375-0.1464844,0.2207031-0.1464844,0.3535156s0.0527344,0.2597656,0.1464844,0.3535156L18.421875,8.2050781z    M18.7753906,7.1445313L17.6308594,6l0.3173828-0.3173828l1.1445313,1.1445313L18.7753906,7.1445313z M17.0771484,4.8115234   l0.5175781,0.5175781l-0.3173828,0.3173828l-0.5175781-0.5175781L17.0771484,4.8115234z" fill="#1D1D1B"/><path d="M23.9990234,15.9873047c-0.1425781-0.2363281-0.4511719-0.3105469-0.6865234-0.1689453   l-1.3401489,0.8123779l-0.7473755-1.2327881l1.3394775-0.8120117c0.2363281-0.1435547,0.3115234-0.4511719,0.1689453-0.6865234   c-0.1425781-0.2363281-0.4501953-0.3105469-0.6865234-0.1689453l-1.340271,0.8125l-0.1089478-0.1796875   c-0.2158203-0.3535156-0.6767578-0.4677734-1.0302734-0.2529297l-0.1650391,0.0996094   c-1.2562256,0.7591553-2.7815552,1.6876221-2.1698608,3.5581055l-8.7752686,5.0675049   c-1.8920898,0.9695435-2.6966553,0.7550659-3.319519,0.1322021c-0.6794434-0.6794434-0.8178711-1.68927-0.4314575-2.5125122   l1.2595825,1.2595825c0.3291016,0.3291016,0.7666016,0.5107422,1.2324219,0.5107422s0.9033203-0.1816406,1.2324219-0.5107422   L22.3935547,7.7519531c0.6796875-0.6796875,0.6796875-1.7851563,0-2.4648438l-3.7763672-3.7763672   c-0.6582031-0.6582031-1.8066406-0.6582031-2.4648438,0L2.1894531,15.4736328   c-0.6796875,0.6796875-0.6796875,1.7851563,0,2.4648438l1.411377,1.411377   c-0.9520874,1.4432983-0.793396,3.4096069,0.4763184,4.6784668c0.7138672,0.7148438,1.4970703,0.9746094,2.2792969,0.9746094   c0.9755859,0,1.9521484-0.4052734,2.7958984-0.8378906c0.0066528-0.003418,0.010376-0.0098267,0.0169067-0.0134277   c0.0048828-0.0026855,0.010498-0.0013428,0.0153198-0.0041504l8.8185425-5.0924683   c0.5256348,0.5480347,1.0733643,0.7565308,1.6209106,0.7565308c0.890625,0,1.7773438-0.5390625,2.5585938-1.0146484   l0.1616821-0.0981445c0.0010986-0.0006104,0.0022583-0.0007935,0.0033569-0.0014648   c0.3544922-0.2148438,0.4677734-0.6757813,0.2529297-1.0302734l-0.1098633-0.1812134l1.3393555-0.8119507   C24.0664063,16.5302734,24.1416016,16.2226563,23.9990234,15.9873047z M3.1787109,16.7060547   c0-0.0380859,0.0097656-0.1103516,0.0712891-0.171875L17.2128906,2.5712891C17.2744141,2.5097656,17.3466797,2.5,17.3847656,2.5   s0.1103516,0.0097656,0.171875,0.0712891l3.7763672,3.7763672c0.0947266,0.0947266,0.0947266,0.2490234,0,0.34375   L7.3701172,20.6542969c-0.1230469,0.1230469-0.2207031,0.1230469-0.34375,0L3.25,16.8779297   C3.1884766,16.8164063,3.1787109,16.7441406,3.1787109,16.7060547z M18.8265991,17.6977539   c-0.4584961-0.862915-0.2981567-1.1696777,0.8788452-1.9121704l1.2207031,2.0133667   C19.7258911,18.4971313,19.3789063,18.4979858,18.8265991,17.6977539z" fill="#1D1D1B"/></g></svg>