<?xml version="1.0" ?><svg id="Layer_1" style="enable-background:new 0 0 48 48;" version="1.1" viewBox="0 0 48 48" xml:space="preserve" xmlns="http://www.w3.org/2000/svg" xmlns:xlink="http://www.w3.org/1999/xlink"><g><path d="M9.86,33.28c0.26,0,0.51-0.1,0.71-0.29c0.39-0.39,0.39-1.02,0-1.41C6.98,27.99,5,23.22,5,18.14S6.98,8.3,10.56,4.71   c0.39-0.39,0.39-1.02,0-1.41s-1.02-0.39-1.41,0c-8.19,8.19-8.19,21.51,0,29.7C9.35,33.19,9.6,33.28,9.86,33.28z"/><path d="M38.85,3.29c-0.39-0.39-1.02-0.39-1.41,0s-0.39,1.02,0,1.41c7.41,7.41,7.41,19.46,0,26.87c-0.39,0.39-0.39,1.02,0,1.41   c0.2,0.2,0.45,0.29,0.71,0.29s0.51-0.1,0.71-0.29C47.04,24.8,47.04,11.48,38.85,3.29z"/><path d="M14.81,27.33c0.2,0.2,0.45,0.29,0.71,0.29s0.51-0.1,0.71-0.29c0.39-0.39,0.39-1.02,0-1.41c-4.29-4.29-4.29-11.27,0-15.56   c0.39-0.39,0.39-1.02,0-1.41s-1.02-0.39-1.41,0C9.74,14.02,9.74,22.27,14.81,27.33z"/><path d="M33.19,8.95c-0.39-0.39-1.02-0.39-1.41,0s-0.39,1.02,0,1.41C33.86,12.44,35,15.2,35,18.14s-1.14,5.7-3.22,7.78   c-0.39,0.39-0.39,1.02,0,1.41c0.2,0.2,0.45,0.29,0.71,0.29s0.51-0.1,0.71-0.29c2.46-2.46,3.81-5.72,3.81-9.19   S35.65,11.41,33.19,8.95z"/><path d="M24,11c-3.86,0-7,3.14-7,7c0,2.98,1.87,5.52,4.5,6.53V44c0,0.55,0.45,1,1,1h3c0.55,0,1-0.45,1-1V24.53   C29.13,23.52,31,20.98,31,18C31,14.14,27.86,11,24,11z M24.5,43h-1V24.97C23.67,24.99,23.83,25,24,25s0.33-0.01,0.5-0.03V43z    M24,23c-2.76,0-5-2.24-5-5s2.24-5,5-5s5,2.24,5,5S26.76,23,24,23z"/></g></svg>