<?xml version="1.0" ?><svg enable-background="new 0 0 26 26" id="Слой_1" version="1.1" viewBox="0 0 26 26" xml:space="preserve" xmlns="http://www.w3.org/2000/svg" xmlns:xlink="http://www.w3.org/1999/xlink"><g><path d="M24.25,13.25h-1.5v-0.5h1.5c0.4140625,0,0.75-0.3359375,0.75-0.75s-0.3359375-0.75-0.75-0.75h-1.5V5.5   c0-0.9648438-0.7851563-1.75-1.75-1.75H5c-0.9648438,0-1.75,0.7851563-1.75,1.75v5.75h-1.5C1.3359375,11.25,1,11.5859375,1,12   s0.3359375,0.75,0.75,0.75h1.5v0.5h-1.5C1.3359375,13.25,1,13.5859375,1,14s0.3359375,0.75,0.75,0.75h1.5v5.75   c0,0.9648438,0.7851563,1.75,1.75,1.75h16c0.9648438,0,1.75-0.7851563,1.75-1.75v-5.75h1.5c0.4140625,0,0.75-0.3359375,0.75-0.75   S24.6640625,13.25,24.25,13.25z M21.25,20.5c0,0.1357422-0.1142578,0.25-0.25,0.25H5c-0.1357422,0-0.25-0.1142578-0.25-0.25v-15   c0-0.1357422,0.1142578-0.25,0.25-0.25h16c0.1357422,0,0.25,0.1142578,0.25,0.25V20.5z" fill="#1D1D1B"/><path d="M9.25,5.75c-1.9296875,0-3.5,1.5703125-3.5,3.5s1.5703125,3.5,3.5,3.5s3.5-1.5703125,3.5-3.5   S11.1796875,5.75,9.25,5.75z M9.25,11.75c-1.3789063,0-2.5-1.1210938-2.5-2.5s1.1210938-2.5,2.5-2.5s2.5,1.1210938,2.5,2.5   S10.6289063,11.75,9.25,11.75z" fill="#1D1D1B"/><path d="M16.75,5.75c-1.9296875,0-3.5,1.5703125-3.5,3.5s1.5703125,3.5,3.5,3.5s3.5-1.5703125,3.5-3.5   S18.6796875,5.75,16.75,5.75z M16.75,11.75c-1.3789063,0-2.5-1.1210938-2.5-2.5s1.1210938-2.5,2.5-2.5s2.5,1.1210938,2.5,2.5   S18.1289063,11.75,16.75,11.75z" fill="#1D1D1B"/><path d="M16.75,13.25c-1.9296875,0-3.5,1.5703125-3.5,3.5s1.5703125,3.5,3.5,3.5s3.5-1.5703125,3.5-3.5   S18.6796875,13.25,16.75,13.25z M16.75,19.25c-1.3789063,0-2.5-1.1210938-2.5-2.5s1.1210938-2.5,2.5-2.5s2.5,1.1210938,2.5,2.5   S18.1289063,19.25,16.75,19.25z" fill="#1D1D1B"/><path d="M9.25,13.25c-1.9296875,0-3.5,1.5703125-3.5,3.5s1.5703125,3.5,3.5,3.5s3.5-1.5703125,3.5-3.5   S11.1796875,13.25,9.25,13.25z M9.25,19.25c-1.3789063,0-2.5-1.1210938-2.5-2.5s1.1210938-2.5,2.5-2.5s2.5,1.1210938,2.5,2.5   S10.6289063,19.25,9.25,19.25z" fill="#1D1D1B"/><path d="M10.25,7.75h-2c-0.2763672,0-0.5,0.2236328-0.5,0.5v2c0,0.2763672,0.2236328,0.5,0.5,0.5h2   c0.2763672,0,0.5-0.2236328,0.5-0.5v-2C10.75,7.9736328,10.5263672,7.75,10.25,7.75z M9.75,9.75h-1v-1h1V9.75z" fill="#1D1D1B"/><path d="M17.75,7.75h-2c-0.2763672,0-0.5,0.2236328-0.5,0.5v2c0,0.2763672,0.2236328,0.5,0.5,0.5h2   c0.2763672,0,0.5-0.2236328,0.5-0.5v-2C18.25,7.9736328,18.0263672,7.75,17.75,7.75z M17.25,9.75h-1v-1h1V9.75z" fill="#1D1D1B"/><path d="M10.25,15.25h-2c-0.2763672,0-0.5,0.2236328-0.5,0.5v2c0,0.2763672,0.2236328,0.5,0.5,0.5h2   c0.2763672,0,0.5-0.2236328,0.5-0.5v-2C10.75,15.4736328,10.5263672,15.25,10.25,15.25z M9.75,17.25h-1v-1h1V17.25z" fill="#1D1D1B"/><path d="M17.75,15.25h-2c-0.2763672,0-0.5,0.2236328-0.5,0.5v2c0,0.2763672,0.2236328,0.5,0.5,0.5h2   c0.2763672,0,0.5-0.2236328,0.5-0.5v-2C18.25,15.4736328,18.0263672,15.25,17.75,15.25z M17.25,17.25h-1v-1h1V17.25z" fill="#1D1D1B"/></g></svg>