<?xml version="1.0" ?><svg enable-background="new 0 0 26 26" id="Слой_1" version="1.1" viewBox="0 0 26 26" xml:space="preserve" xmlns="http://www.w3.org/2000/svg" xmlns:xlink="http://www.w3.org/1999/xlink"><g><path d="M24.25,10.0458984h-10.5V7.5463867H16c0.4140625,0,0.75-0.3359375,0.75-0.75s-0.3359375-0.75-0.75-0.75h-6   c-0.4140625,0-0.75,0.3359375-0.75,0.75s0.3359375,0.75,0.75,0.75h2.25v2.4995117H1.75c-0.4140625,0-0.75,0.3359375-0.75,0.75v3   c0,0.4140625,0.3359375,0.75,0.75,0.75h22.5c0.4140625,0,0.75-0.3359375,0.75-0.75v-3   C25,10.3818359,24.6640625,10.0458984,24.25,10.0458984z M23.5,13.0458984h-21v-1.5h10.4975586   c0.0008545,0,0.0015869,0.0004883,0.0024414,0.0004883s0.0015869-0.0004883,0.0024414-0.0004883H23.5V13.0458984z" fill="#1D1D1B"/><path d="M13,16.5380859c-0.1376953,0-0.25,0.1123047-0.25,0.25v2.9160156c0,0.1376953,0.1123047,0.25,0.25,0.25   s0.25-0.1123047,0.25-0.25v-2.9160156C13.25,16.6503906,13.1376953,16.5380859,13,16.5380859z" fill="#1D1D1B"/><path d="M9.0556641,16.2519531l-1.359375,2.0732422c-0.0761719,0.1152344-0.0439453,0.2705078,0.0722656,0.3457031   c0.0419922,0.0273438,0.0898438,0.0410156,0.1367188,0.0410156c0.0810547,0,0.1611328-0.0400391,0.2089844-0.1132813   l1.359375-2.0732422c0.0761719-0.1152344,0.0439453-0.2705078-0.0722656-0.3457031   C9.2871094,16.1064453,9.1308594,16.1367188,9.0556641,16.2519531z" fill="#1D1D1B"/><path d="M16.9443359,16.2519531c-0.0751953-0.1152344-0.2314453-0.1464844-0.3457031-0.0722656   c-0.1162109,0.0751953-0.1484375,0.2304688-0.0722656,0.3457031l1.359375,2.0732422   c0.0478516,0.0732422,0.1279297,0.1132813,0.2089844,0.1132813c0.046875,0,0.0947266-0.0136719,0.1367188-0.0410156   c0.1162109-0.0751953,0.1484375-0.2304688,0.0722656-0.3457031L16.9443359,16.2519531z" fill="#1D1D1B"/></g></svg>