<?xml version="1.0" ?><!DOCTYPE svg  PUBLIC '-//W3C//DTD SVG 1.1//EN'  'http://www.w3.org/Graphics/SVG/1.1/DTD/svg11.dtd'><svg enable-background="new 0 0 26 26" id="Слой_1" version="1.1" viewBox="0 0 26 26" xml:space="preserve" xmlns="http://www.w3.org/2000/svg" xmlns:xlink="http://www.w3.org/1999/xlink"><g><path d="M13,4.4677734c-6.7285156,0-12,2.5244141-12,5.7470703c0,3.2216797,5.2714844,5.7460938,12,5.7460938   s12-2.5244141,12-5.7460938C25,6.9921875,19.7285156,4.4677734,13,4.4677734z M13,14.4609375   c-6.1875,0-10.5-2.2373047-10.5-4.2460938S6.8125,5.9677734,13,5.9677734s10.5,2.2382813,10.5,4.2470703   S19.1875,14.4609375,13,14.4609375z" fill="#1D1D1B"/><path d="M16.4873657,7.8366089c-0.0465698-0.026062-0.0950317-0.0500488-0.1504517-0.0602417   c-0.0587769-0.0117798-0.1165161-0.0078735-0.1726685,0.0014038c-1.979187-0.3291626-4.3561401-0.3289185-6.3345337,0.0009155   C9.7752686,7.7705688,9.7195435,7.7660522,9.6621094,7.7773438c-0.053772,0.0098877-0.1004028,0.0336304-0.145874,0.0585938   c-2.1142578,0.3995361-3.6998291,1.1908569-3.6998291,2.3789063c0,1.7890625,3.6142578,2.7255859,7.1835938,2.7255859   s7.1835938-0.9365234,7.1835938-2.7255859C20.1835938,9.0274658,18.5997925,8.2363892,16.4873657,7.8366089z M15.5349731,8.6566162   C15.1016235,9.274292,14.1123047,9.7128906,13,9.7128906s-2.1016235-0.4385986-2.5349731-1.0562744   C11.2162476,8.5516357,12.0656128,8.4882813,13,8.4882813S14.7837524,8.5516357,15.5349731,8.6566162z M13,11.9404297   c-3.7744141,0-6.1835938-1.0224609-6.1835938-1.7255859c0-0.4425659,0.9538574-1.0101318,2.5981445-1.3712769   C9.9074707,9.9510498,11.3223877,10.7128906,13,10.7128906c1.6776733,0,3.0923462-0.7618408,3.5852661-1.8693237   c1.6443481,0.361145,2.5983276,0.9287109,2.5983276,1.3712769C19.1835938,10.9179688,16.7744141,11.9404297,13,11.9404297z" fill="#1D1D1B"/><path d="M13,17.6162109c-0.1376953,0-0.25,0.1123047-0.25,0.25v2.9160156c0,0.1376953,0.1123047,0.25,0.25,0.25   s0.25-0.1123047,0.25-0.25v-2.9160156C13.25,17.7285156,13.1376953,17.6162109,13,17.6162109z" fill="#1D1D1B"/><path d="M9.0556641,17.3310547l-1.359375,2.0732422C7.6201172,19.5195313,7.6523438,19.6748047,7.7685547,19.75   c0.0419922,0.0273438,0.0898438,0.0410156,0.1367188,0.0410156c0.0810547,0,0.1611328-0.0400391,0.2089844-0.1132813   l1.359375-2.0732422c0.0761719-0.1152344,0.0439453-0.2705078-0.0722656-0.3457031   C9.2880859,17.1845703,9.1318359,17.2158203,9.0556641,17.3310547z" fill="#1D1D1B"/><path d="M16.9443359,17.3310547c-0.0751953-0.1152344-0.2304688-0.1474609-0.3457031-0.0722656   c-0.1162109,0.0751953-0.1484375,0.2304688-0.0722656,0.3457031l1.359375,2.0732422   c0.0478516,0.0732422,0.1279297,0.1132813,0.2089844,0.1132813c0.046875,0,0.0947266-0.0136719,0.1367188-0.0410156   c0.1162109-0.0751953,0.1484375-0.2304688,0.0722656-0.3457031L16.9443359,17.3310547z" fill="#1D1D1B"/></g></svg>