<?xml version="1.0" ?><svg enable-background="new 0 0 26 26" id="Слой_1" version="1.1" viewBox="0 0 26 26" xml:space="preserve" xmlns="http://www.w3.org/2000/svg" xmlns:xlink="http://www.w3.org/1999/xlink"><path d="M25,10c0-0.4140625-0.3359375-0.75-0.75-0.75h-10.5V7c0-0.4140625-0.3359375-0.75-0.75-0.75  S12.25,6.5859375,12.25,7v2.25H1.75C1.3359375,9.25,1,9.5859375,1,10c0,2.2996216,0.984375,4.1617432,2.3353271,4.6296997  C3.9317017,17.1234741,7.9378052,19.75,13,19.75s9.0682983-2.6265259,9.6646729-5.1203003C24.015625,14.1617432,25,12.2996216,25,10  z M22,13.25H4c-0.6085815,0-1.276001-1.0299683-1.4523315-2.5h20.9046631C23.276001,12.2200317,22.6085815,13.25,22,13.25z   M13,18.25c-4.0457153,0-7.223877-1.9033203-8.0395508-3.5h16.0791016C20.223877,16.3466797,17.0457153,18.25,13,18.25z" fill="#1D1D1B"/></svg>