<?xml version="1.0" ?><svg enable-background="new 0 0 26 26" id="Слой_1" version="1.1" viewBox="0 0 26 26" xml:space="preserve" xmlns="http://www.w3.org/2000/svg" xmlns:xlink="http://www.w3.org/1999/xlink"><path d="M19.2436523,17.0351563C18.0175781,16.0712891,16.75,15.0742188,16.75,14.25v-2.5  c0-0.4140625-0.3359375-0.75-0.75-0.75h-2.25V2.5H15c0.4140625,0,0.75-0.3359375,0.75-0.75S15.4140625,1,15,1h-4  c-0.4140625,0-0.75,0.3359375-0.75,0.75S10.5859375,2.5,11,2.5h1.25V11H10c-0.4140625,0-0.75,0.3359375-0.75,0.75v2.5  c0,0.8242188-1.2675781,1.8212891-2.4936523,2.7851563C5.112793,18.3271484,3.25,19.7910156,3.25,21.75  c0,0.4140625,0.3359375,0.75,0.75,0.75h5.8459473C10.1865845,23.9300537,11.4672241,25,13,25s2.8134155-1.0699463,3.1540527-2.5H22  c0.4140625,0,0.75-0.3359375,0.75-0.75C22.75,19.7910156,20.887207,18.3271484,19.2436523,17.0351563z M7.6831055,18.2138672  C9.2602539,16.9746094,10.75,15.8037109,10.75,14.25V12.5h4.5v1.75c0,1.5537109,1.4897461,2.7246094,3.0668945,3.9638672  C19.4626465,19.1148071,20.626709,20.0408936,21.0617676,21H4.9382324  C5.373291,20.0408936,6.5373535,19.1148071,7.6831055,18.2138672z M13,23.5c-0.6954346,0-1.2924194-0.4109497-1.5744629-1h3.1489258  C14.2924194,23.0890503,13.6954346,23.5,13,23.5z" fill="#1D1D1B"/></svg>