<?xml version="1.0" ?><svg enable-background="new 0 0 26 26" id="Слой_1" version="1.1" viewBox="0 0 26 26" xml:space="preserve" xmlns="http://www.w3.org/2000/svg" xmlns:xlink="http://www.w3.org/1999/xlink"><path d="M24.25,9C24.6640625,9,25,8.6640625,25,8.25S24.6640625,7.5,24.25,7.5H1.75  C1.3359375,7.5,1,7.8359375,1,8.25S1.3359375,9,1.75,9H5.5v2.562561l-0.3535156-0.3535767  c-0.2929688-0.2929688-0.7675781-0.2929688-1.0605469,0l-2.121582,2.1210938  c-0.140625,0.140625-0.2197266,0.3310547-0.2197266,0.5302734S1.8237305,14.25,1.9643555,14.390625l3.8891602,3.8896484  C6,18.4267578,6.1918945,18.5,6.3837891,18.5s0.3837891-0.0732422,0.5302734-0.2197266l2.121582-2.1210938  c0.140625-0.140625,0.2197266-0.3310547,0.2197266-0.5302734s-0.0791016-0.3896484-0.2197266-0.5302734L7,13.0627441V9h6v2.562561  l-0.3535156-0.3535767c-0.2929688-0.2929688-0.7675781-0.2929688-1.0605469,0l-2.121582,2.1210938  c-0.140625,0.140625-0.2197266,0.3310547-0.2197266,0.5302734S9.3237305,14.25,9.4643555,14.390625l3.8891602,3.8896484  C13.5,18.4267578,13.6918945,18.5,13.8837891,18.5s0.3837891-0.0732422,0.5302734-0.2197266l2.121582-2.1210938  c0.140625-0.140625,0.2197266-0.3310547,0.2197266-0.5302734s-0.0791016-0.3896484-0.2197266-0.5302734L14.5,13.0627441V9h6  v2.562561l-0.3535156-0.3535767c-0.2929688-0.2929688-0.7675781-0.2929688-1.0605469,0l-2.121582,2.1210938  c-0.140625,0.140625-0.2197266,0.3310547-0.2197266,0.5302734S16.8237305,14.25,16.9643555,14.390625l3.8891602,3.8896484  C21,18.4267578,21.1918945,18.5,21.3837891,18.5s0.3837891-0.0732422,0.5302734-0.2197266l2.121582-2.1210938  c0.140625-0.140625,0.2197266-0.3310547,0.2197266-0.5302734s-0.0791016-0.3896484-0.2197266-0.5302734L22,13.0627441V9H24.25z   M6.3837891,16.6894531l-2.8286133-2.8291016l1.0610352-1.0605469l1.1018677,1.1020508  c0.0014038,0.0014038,0.0026855,0.0026855,0.0040894,0.0040894l1.7226563,1.7229614L6.3837891,16.6894531z M13.8837891,16.6894531  l-2.8286133-2.8291016l1.0610352-1.0605469l1.1018677,1.1020508c0.0014038,0.0014038,0.0026855,0.0026855,0.0040894,0.0040894  l1.7226563,1.7229614L13.8837891,16.6894531z M21.3837891,16.6894531l-2.8286133-2.8291016l1.0610352-1.0605469l1.1018677,1.1020508  c0.0014038,0.0014038,0.0026855,0.0026855,0.0040894,0.0040894l1.7226563,1.7229614L21.3837891,16.6894531z" fill="#1D1D1B"/></svg>