<?xml version="1.0" encoding="UTF-8" standalone="no"?>
<svg
   xmlns:dc="http://purl.org/dc/elements/1.1/"
   xmlns:cc="http://creativecommons.org/ns#"
   xmlns:rdf="http://www.w3.org/1999/02/22-rdf-syntax-ns#"
   xmlns:svg="http://www.w3.org/2000/svg"
   xmlns="http://www.w3.org/2000/svg"
   xmlns:sodipodi="http://sodipodi.sourceforge.net/DTD/sodipodi-0.dtd"
   xmlns:inkscape="http://www.inkscape.org/namespaces/inkscape"
   id="Line"
   viewBox="0 0 64 64"
   version="1.1"
   sodipodi:docname="Ceiling fan.svg"
   inkscape:version="1.0.2-2 (e86c870879, 2021-01-15)">
  <metadata
     id="metadata25">
    <rdf:RDF>
      <cc:Work
         rdf:about="">
        <dc:format>image/svg+xml</dc:format>
        <dc:type
           rdf:resource="http://purl.org/dc/dcmitype/StillImage" />
        <dc:title></dc:title>
      </cc:Work>
    </rdf:RDF>
  </metadata>
  <sodipodi:namedview
     pagecolor="#ffffff"
     bordercolor="#666666"
     borderopacity="1"
     objecttolerance="10"
     gridtolerance="10"
     guidetolerance="10"
     inkscape:pageopacity="0"
     inkscape:pageshadow="2"
     inkscape:window-width="2560"
     inkscape:window-height="1017"
     id="namedview23"
     showgrid="false"
     inkscape:zoom="13.28125"
     inkscape:cx="32"
     inkscape:cy="32"
     inkscape:window-x="-8"
     inkscape:window-y="-8"
     inkscape:window-maximized="1"
     inkscape:current-layer="Line" />
  <defs
     id="defs4">
    <style
       id="style2">.cls-1{fill:none;stroke:#000;stroke-linecap:round;stroke-linejoin:round;stroke-width:2px;}</style>
  </defs>
  <path
     class="cls-1"
     d="M22,8.9338H42a0,0,0,0,1,0,0v2a2,2,0,0,1-2,2H24a2,2,0,0,1-2-2v-2A0,0,0,0,1,22,8.9338Z"
     id="path8"
     style="stroke-width:2.9;stroke-miterlimit:4;stroke-dasharray:none" />
  <rect
     class="cls-1"
     height="20"
     width="4"
     x="30"
     y="18.9338"
     id="rect10"
     style="stroke-width:2.9;stroke-miterlimit:4;stroke-dasharray:none" />
  <path
     class="cls-1"
     d="M38,46.9338a5.97,5.97,0,0,1-.7488,2.9005l11.6071,4.6428A8.1244,8.1244,0,0,0,60,46.9338Z"
     id="path12"
     style="stroke-width:2.9;stroke-miterlimit:4;stroke-dasharray:none" />
  <path
     class="cls-1"
     d="M4,46.9338a8.1244,8.1244,0,0,0,11.1417,7.5433l11.6071-4.6428A5.97,5.97,0,0,1,26,46.9338Z"
     id="path14"
     style="stroke-width:2.9;stroke-miterlimit:4;stroke-dasharray:none" />
  <path
     class="cls-1"
     d="M28,12.9338h8a0,0,0,0,1,0,0v4a2,2,0,0,1-2,2H30a2,2,0,0,1-2-2v-4A0,0,0,0,1,28,12.9338Z"
     id="path16"
     style="stroke-width:2.9;stroke-miterlimit:4;stroke-dasharray:none" />
  <path
     class="cls-1"
     d="M30,38.9338h4a2,2,0,0,1,2,2v4a0,0,0,0,1,0,0H28a0,0,0,0,1,0,0v-4A2,2,0,0,1,30,38.9338Z"
     id="path18"
     style="stroke-width:2.9;stroke-miterlimit:4;stroke-dasharray:none" />
  <path
     class="cls-1"
     d="M26,44.9338H38a0,0,0,0,1,0,0v2a6,6,0,0,1-6,6h0a6,6,0,0,1-6-6v-2a0,0,0,0,1,0,0Z"
     id="path20"
     style="stroke-width:2.9;stroke-miterlimit:4;stroke-dasharray:none" />
</svg>
