<?xml version="1.0" ?><svg enable-background="new 0 0 26 26" id="Слой_1" version="1.1" viewBox="0 0 26 26" xml:space="preserve" xmlns="http://www.w3.org/2000/svg" xmlns:xlink="http://www.w3.org/1999/xlink"><g><path d="M24.25,3.0458984H1.75c-0.4140625,0-0.75,0.3359375-0.75,0.75s0.3359375,0.75,0.75,0.75h7.5v12.25   c0,0.4140625,0.3359375,0.75,0.75,0.75h6c0.4140625,0,0.75-0.3359375,0.75-0.75   c0-0.0185547-0.0092163-0.0340576-0.0105591-0.0522461C16.7407837,16.7254639,16.75,16.7099609,16.75,16.6914063V4.5458984h7.5   c0.4140625,0,0.75-0.3359375,0.75-0.75S24.6640625,3.0458984,24.25,3.0458984z M15.25,16.0458984h-4.5v-1.75h4.5V16.0458984z    M15.25,13.2958984h-4.5v-8.75h4.5V13.2958984z" fill="#1D1D1B"/><path d="M13,20.4541016c-0.1381836,0-0.25,0.1123047-0.25,0.25v2c0,0.1376953,0.1118164,0.25,0.25,0.25   s0.25-0.1123047,0.25-0.25v-2C13.25,20.5664063,13.1381836,20.4541016,13,20.4541016z" fill="#1D1D1B"/><path d="M16.3588867,19.2099609c-0.0976563-0.0976563-0.2558594-0.0976563-0.3535156,0   s-0.0976563,0.2558594,0,0.3535156l1.4140625,1.4140625c0.0488281,0.0488281,0.112793,0.0732422,0.1767578,0.0732422   s0.1279297-0.0244141,0.1767578-0.0732422c0.0976563-0.0976563,0.0976563-0.2558594,0-0.3535156L16.3588867,19.2099609z" fill="#1D1D1B"/><path d="M9.6411133,19.2099609l-1.4140625,1.4140625c-0.0976563,0.0976563-0.0976563,0.2558594,0,0.3535156   c0.0488281,0.0488281,0.112793,0.0732422,0.1767578,0.0732422s0.1279297-0.0244141,0.1767578-0.0732422l1.4140625-1.4140625   c0.0976563-0.0976563,0.0976563-0.2558594,0-0.3535156S9.7387695,19.1123047,9.6411133,19.2099609z" fill="#1D1D1B"/></g></svg>