<?xml version="1.0" ?><svg enable-background="new 0 0 26 26" id="Слой_1" version="1.1" viewBox="0 0 26 26" xml:space="preserve" xmlns="http://www.w3.org/2000/svg" xmlns:xlink="http://www.w3.org/1999/xlink"><path d="M21.7587891,18.1308594L11.6083984,7.9799805c-0.0004272-0.0004272-0.0005493-0.0010376-0.0009766-0.0014648  c-0.7649536-0.7631836-2.0723877-0.4452515-3.3041992,0.362793V2.9208984h2.25c0.4140625,0,0.75-0.3359375,0.75-0.75  s-0.3359375-0.75-0.75-0.75h-6c-0.4140625,0-0.75,0.3359375-0.75,0.75s0.3359375,0.75,0.75,0.75h2.25v6.6992188  c-0.6276855,0.6723633-1.1239014,1.4022217-1.3974609,2.0859375c-0.5200195,1.300293-0.1030273,1.9887695,0.1914063,2.2836914  c0.0004272,0.0004272,0.0010376,0.0005493,0.0014648,0.0009766L15.7485352,24.140625  c0.1928711,0.1933594,0.5551758,0.4384766,1.1479492,0.4384766c0.3120117,0,0.6875-0.0673828,1.1357422-0.2470703  c0.7602539-0.3037109,1.581543-0.8740234,2.3125-1.6054688C21.8378906,21.2333984,22.8027344,19.1748047,21.7587891,18.1308594z   M8.0717773,10.4541016C9.296875,9.2285156,10.3500977,8.953125,10.546875,9.0400391  c0.0004272,0.0004272,0.0010376,0.0005493,0.0014648,0.0009766l8.9172974,8.9177246  c-0.7839355,0.3155518-1.6044922,0.8874512-2.3030396,1.5861816c-0.7254028,0.7244263-1.2903442,1.5379028-1.5963135,2.2923584  l-8.8952026-8.8952026C6.578064,12.7207031,6.8538818,11.6719971,8.0717773,10.4541016z M19.2841797,21.6660156  C18.0576172,22.8925781,17,23.1630859,16.8232422,23.0986328c-0.0976563-0.2128906,0.1748047-1.2685547,1.3999023-2.4931641  C19.3007813,19.5283203,20.246582,19.1875,20.6040039,19.1875c0.0356445,0,0.0649414,0.0029297,0.0883789,0.0097656  C20.762207,19.4570313,20.4677734,20.4824219,19.2841797,21.6660156z" fill="#1D1D1B"/></svg>