<?xml version="1.0" ?><svg enable-background="new 0 0 26 26" id="Слой_1" version="1.1" viewBox="0 0 26 26" xml:space="preserve" xmlns="http://www.w3.org/2000/svg" xmlns:xlink="http://www.w3.org/1999/xlink"><path d="M24.8947754,16.3604736c0.0231934-0.0411987,0.0429077-0.0818481,0.0581055-0.1273804  c0.0161743-0.0484009,0.0239868-0.0970459,0.0300903-0.1486816C24.9863892,16.0553589,25,16.0299683,25,16  c0-0.0211182-0.0103149-0.0388184-0.0120239-0.0594482c-0.0016479-0.0217896,0.0058594-0.0421143,0.0022583-0.0640869l-1-6  c-0.0050659-0.0303345-0.0233154-0.053833-0.0318604-0.0826416c-0.0144653-0.0494385-0.0303955-0.0956421-0.0541382-0.1402588  c-0.0218506-0.0405884-0.0466919-0.0760498-0.0751953-0.1115112c-0.0325317-0.0410767-0.0662231-0.0778198-0.1065674-0.1113281  c-0.0332031-0.0274658-0.0675659-0.0492554-0.1048584-0.0706787c-0.0454102-0.0262451-0.0906372-0.0479736-0.1413574-0.0643311  c-0.0452271-0.0148315-0.090271-0.0219116-0.1380005-0.0278931C23.3079834,9.2640991,23.281311,9.25,23.25,9.25h-4  c-0.0309448,0-0.057312,0.0139771-0.0872803,0.0176392c-0.0491333,0.0060425-0.09552,0.0133057-0.1418457,0.0286255  c-0.0484619,0.0158691-0.0917358,0.0367432-0.1353149,0.0616455c-0.0396729,0.022522-0.0761108,0.0456543-0.111145,0.0749512  c-0.0384521,0.0322266-0.0704346,0.0674438-0.1017456,0.1066895c-0.02948,0.0365601-0.0553589,0.0731812-0.0777588,0.1152344  c-0.0233154,0.0440063-0.0388184,0.0896606-0.0531006,0.1383057c-0.008606,0.0290527-0.0269165,0.0527344-0.0320435,0.083374l-1,6  c-0.0036011,0.0219727,0.0039063,0.0422363,0.0022583,0.0640259C17.5103149,15.9611816,17.5,15.9788818,17.5,16  c0,0.0300293,0.0136719,0.055603,0.0170898,0.0847168c0.0060425,0.0513916,0.013855,0.0999756,0.0299683,0.1481934  c0.0151367,0.0456543,0.0350342,0.0863647,0.0582275,0.1276245c0.0237427,0.0424194,0.0484619,0.0814209,0.079895,0.1184692  c0.0310059,0.0366211,0.0650024,0.0669556,0.102417,0.0970459c0.0371704,0.0299683,0.0744629,0.0565796,0.1173706,0.0791626  c0.0446167,0.0236206,0.0910034,0.0391846,0.1403809,0.0534668c0.0284424,0.0083008,0.0516357,0.026123,0.081604,0.0310669  c0.0404663,0.0067749,0.0819092,0.0100098,0.1223755,0.0101318C18.2495728,16.7498779,18.2497559,16.75,18.25,16.75h2.25V18  c0,1.7919922-1.4580078,3.25-3.25,3.25H17c-1.7919922,0-3.25-1.4580078-3.25-3.25v-1.25H16  c0.0002441,0,0.0004272-0.0001221,0.0006714-0.0001221c0.0404663-0.0001221,0.0819092-0.0033569,0.1223755-0.0101318  c0.0299683-0.0050049,0.0531616-0.0228271,0.081665-0.0311279c0.0493774-0.0143433,0.0956421-0.0297852,0.1402588-0.0534058  c0.0430908-0.0227051,0.0803223-0.0491333,0.1175537-0.0792236c0.0374146-0.0300293,0.0712891-0.0603638,0.1022949-0.0969238  c0.0314941-0.0371094,0.0562134-0.0761108,0.0799561-0.1185913c0.0231934-0.0411987,0.0429077-0.0818481,0.0581055-0.1273804  c0.0161743-0.0484009,0.0239868-0.0970459,0.0300903-0.1486816C16.7363892,16.0553589,16.75,16.0299683,16.75,16  c0-0.0211182-0.0103149-0.0388184-0.0120239-0.0594482c-0.0016479-0.0217896,0.0058594-0.0421143,0.0022583-0.0640869l-1-6  c-0.0050659-0.0302124-0.0233154-0.0535889-0.0317993-0.0822754c-0.0145264-0.0498047-0.0306396-0.0963135-0.0546265-0.1412964  c-0.0214844-0.039856-0.0460205-0.074707-0.0739136-0.1095581c-0.0332642-0.0421753-0.0678101-0.0795898-0.1091919-0.1137695  c-0.0322266-0.0264282-0.0654297-0.0476074-0.1015015-0.0684814c-0.0462646-0.0269165-0.0925293-0.0490723-0.1444092-0.0656738  c-0.0446777-0.0146484-0.0892944-0.0215454-0.1364136-0.0275269C15.0580444,9.2641602,15.0313721,9.25,15,9.25h-1.25v-4.5H15  c0.4140625,0,0.75-0.3359375,0.75-0.75S15.4140625,3.25,15,3.25h-4c-0.4140625,0-0.75,0.3359375-0.75,0.75S10.5859375,4.75,11,4.75  h1.25v4.5H11c-0.0310059,0-0.0574341,0.0139771-0.0874634,0.0176392c-0.0482788,0.0059814-0.0938721,0.0132446-0.1395264,0.0281982  c-0.0501709,0.0162354-0.0948486,0.0377808-0.1397705,0.0636597c-0.0377808,0.0216675-0.0725708,0.0437012-0.1061401,0.0715332  c-0.0401001,0.0333252-0.0734863,0.0698242-0.105896,0.1107178c-0.0285645,0.0355225-0.0536499,0.071106-0.0755005,0.1118774  c-0.0237427,0.0446167-0.0395508,0.0906982-0.0540161,0.1401367c-0.0085449,0.0288086-0.0268555,0.0523071-0.0319214,0.0827026l-1,6  c-0.0036011,0.0219727,0.0039063,0.0422363,0.0022583,0.0640259C9.2603149,15.9611816,9.25,15.9788818,9.25,16  c0,0.0300293,0.0136719,0.055603,0.0170898,0.0847168c0.0060425,0.0513916,0.013855,0.0999756,0.0299683,0.1481934  c0.0151367,0.0456543,0.0350342,0.0863647,0.0582275,0.1276245c0.0237427,0.0424194,0.0484619,0.0814209,0.079895,0.1184692  c0.0310059,0.0366211,0.0650024,0.0669556,0.102417,0.0970459c0.0371704,0.0299683,0.0744629,0.0565796,0.1173706,0.0791626  c0.0446167,0.0236206,0.0910034,0.0391846,0.1403809,0.0534668c0.0284424,0.0083008,0.0516357,0.026123,0.081604,0.0310669  c0.0404663,0.0067749,0.0819092,0.0100098,0.1223755,0.0101318C9.9995728,16.7498779,9.9997559,16.75,10,16.75h2.25V18  c0,1.7919922-1.4580078,3.25-3.25,3.25H8.75c-1.7919922,0-3.25-1.4580078-3.25-3.25v-1.25h2.25  c0.0002441,0,0.0004272-0.0001221,0.0006714-0.0001221c0.0404663-0.0001221,0.0819092-0.0033569,0.1223755-0.0101318  c0.0299683-0.0050049,0.0531616-0.0228271,0.081665-0.0311279c0.0493774-0.0143433,0.0956421-0.0297852,0.1402588-0.0534058  c0.0430908-0.0227051,0.0803223-0.0491333,0.1175537-0.0792236c0.0374146-0.0300293,0.0712891-0.0603638,0.1022949-0.0969238  c0.0314941-0.0371094,0.0562134-0.0761108,0.0799561-0.1185913c0.0231934-0.0411987,0.0429077-0.0818481,0.0581055-0.1273804  c0.0161743-0.0484009,0.0239868-0.0970459,0.0300903-0.1486816C8.4863892,16.0553589,8.5,16.0299683,8.5,16  c0-0.0211182-0.0103149-0.0388184-0.0120239-0.0594482c-0.0016479-0.0217896,0.0058594-0.0421143,0.0022583-0.0640869l-1-6  C7.4851074,9.8460083,7.4668579,9.8223877,7.458313,9.7935181C7.4439087,9.7443848,7.4282227,9.6984253,7.4046021,9.6540527  C7.3825684,9.612915,7.3572998,9.5770874,7.3284912,9.5411987C7.2962646,9.5006714,7.2631226,9.4645386,7.2233887,9.4313965  C7.1896973,9.4034424,7.1547852,9.3812866,7.1168213,9.3594971C7.0718994,9.3336182,7.0271606,9.3120728,6.9769897,9.2958374  C6.9315796,9.2809448,6.8862305,9.2738037,6.8381958,9.2678223C6.8079224,9.2640991,6.78125,9.25,6.75,9.25h-4  c-0.0310059,0-0.057373,0.0139771-0.0873413,0.0176392C2.6138306,9.2736206,2.567688,9.2809448,2.5216064,9.2961426  C2.4725952,9.3120728,2.428833,9.333252,2.3847656,9.3584595C2.3457642,9.3807373,2.3098145,9.4034424,2.2752686,9.432251  C2.2363281,9.4647827,2.2038574,9.5004883,2.1721802,9.5402222C2.1430054,9.5764771,2.1173706,9.612793,2.0951538,9.65448  C2.0717163,9.6986694,2.0560303,9.7443848,2.041748,9.7932739c-0.008606,0.0289917-0.0268555,0.0526123-0.0319824,0.0831909l-1,6  c-0.0036011,0.0219727,0.0039063,0.0422363,0.0022583,0.0640259C1.0103149,15.9611816,1,15.9788818,1,16  c0,0.0300293,0.0136719,0.055603,0.0170898,0.0847168c0.0060425,0.0513916,0.013855,0.0999756,0.0299683,0.1481934  c0.0151367,0.0456543,0.0350342,0.0863647,0.0582275,0.1276245c0.0237427,0.0424194,0.0484619,0.0814209,0.079895,0.1184692  c0.0310059,0.0366211,0.0650024,0.0669556,0.102417,0.0970459c0.0371704,0.0299683,0.0744629,0.0565796,0.1173706,0.0791626  c0.0446167,0.0236206,0.0910034,0.0391846,0.1403809,0.0534668c0.0284424,0.0083008,0.0516357,0.026123,0.081604,0.0310669  c0.0404663,0.0067749,0.0819092,0.0100098,0.1223755,0.0101318C1.7495728,16.7498779,1.7497559,16.75,1.75,16.75H4V18  c0,2.6191406,2.1308594,4.75,4.75,4.75H9c1.6834717,0,3.1561279-0.8862915,4-2.2107544  C13.8438721,21.8637085,15.3165283,22.75,17,22.75h0.25c2.6191406,0,4.75-2.1308594,4.75-4.75v-1.25h2.25  c0.0002441,0,0.0004272-0.0001221,0.0006714-0.0001221c0.0404663-0.0001221,0.0819092-0.0033569,0.1223755-0.0101318  c0.0299683-0.0050049,0.0531616-0.0228271,0.081665-0.0311279c0.0493774-0.0143433,0.0956421-0.0297852,0.1402588-0.0534058  c0.0430908-0.0227051,0.0803223-0.0491333,0.1175537-0.0792236c0.0374146-0.0300293,0.0712891-0.0603638,0.1022949-0.0969238  C24.8463135,16.4419556,24.8710327,16.4029541,24.8947754,16.3604736z M11.6358032,10.75h2.7283936l0.75,4.5h-4.2283936  L11.6358032,10.75z M3.3858032,10.75h2.7283936l0.75,4.5H2.6358032L3.3858032,10.75z M19.1358032,15.25l0.75-4.5h2.7283936l0.75,4.5  H19.1358032z" fill="#1D1D1B"/></svg>