<?xml version="1.0" ?><!DOCTYPE svg  PUBLIC '-//W3C//DTD SVG 1.1//EN'  'http://www.w3.org/Graphics/SVG/1.1/DTD/svg11.dtd'><svg enable-background="new 0 0 26 26" id="Слой_1" version="1.1" viewBox="0 0 26 26" xml:space="preserve" xmlns="http://www.w3.org/2000/svg" xmlns:xlink="http://www.w3.org/1999/xlink"><g><path d="M22,1H4C3.5859375,1,3.25,1.3359375,3.25,1.75v22.5C3.25,24.6640625,3.5859375,25,4,25h18   c0.4140625,0,0.75-0.3359375,0.75-0.75V1.75C22.75,1.3359375,22.4140625,1,22,1z M15.75,19.75v3.75h-5.5v-3.75H15.75z M4.75,18.75   V12H5.5v3.5C5.5,15.7763672,5.7236328,16,6,16h2c0.2763672,0,0.5-0.2236328,0.5-0.5V12H10c0.2763672,0,0.5-0.2236328,0.5-0.5v-2   C10.5,9.2236328,10.2763672,9,10,9H4.75V7.25h16.5V9H16c-0.2763672,0-0.5,0.2236328-0.5,0.5v2c0,0.2763672,0.2236328,0.5,0.5,0.5   h1.5v3.5c0,0.2763672,0.2236328,0.5,0.5,0.5h2c0.2763672,0,0.5-0.2236328,0.5-0.5V12h0.75v6.75H4.75z M7.5,15h-1v-3h1V15z M4.75,11   v-1H9.5v1H4.75z M10.25,6.25V2.5h5.5v3.75H10.25z M19.5,15h-1v-3h1V15z M16.5,11v-1h4.75v1H16.5z M21.25,6.25h-5V2.5h5V6.25z    M9.75,2.5v3.75h-5V2.5H9.75z M4.75,19.75h5v3.75h-5V19.75z M16.25,23.5v-3.75h5v3.75H16.25z" fill="#1D1D1B"/><circle cx="13" cy="4.25" fill="#1D1D1B" r="0.625"/><circle cx="13" cy="21.75" fill="#1D1D1B" r="0.625"/><circle cx="19" cy="4.25" fill="#1D1D1B" r="0.625"/><circle cx="19" cy="21.75" fill="#1D1D1B" r="0.625"/><circle cx="7" cy="4.25" fill="#1D1D1B" r="0.625"/><circle cx="7" cy="21.75" fill="#1D1D1B" r="0.625"/><path d="M16,14h-1.5v-3.5c0-0.2763672-0.2236328-0.5-0.5-0.5h-2c-0.2763672,0-0.5,0.2236328-0.5,0.5V14H10   c-0.2763672,0-0.5,0.2236328-0.5,0.5v2c0,0.2763672,0.2236328,0.5,0.5,0.5h6c0.2763672,0,0.5-0.2236328,0.5-0.5v-2   C16.5,14.2236328,16.2763672,14,16,14z M12.5,11h1v3h-1V11z M15.5,16h-5v-1h5V16z" fill="#1D1D1B"/></g></svg>