<?xml version="1.0" ?><!DOCTYPE svg  PUBLIC '-//W3C//DTD SVG 1.1//EN'  'http://www.w3.org/Graphics/SVG/1.1/DTD/svg11.dtd'><svg height="64px" id="ICONS" style="enable-background:new 0 0 64 64;" version="1.1" viewBox="0 0 64 64" width="64px" xml:space="preserve" xmlns="http://www.w3.org/2000/svg" xmlns:xlink="http://www.w3.org/1999/xlink"><g><rect height="5" style="fill:none;stroke:#202020;stroke-width:2;stroke-linecap:round;stroke-linejoin:round;stroke-miterlimit:10;" width="52" x="6" y="5"/><line style="fill:none;stroke:#202020;stroke-width:2;stroke-linecap:round;stroke-linejoin:round;stroke-miterlimit:10;" x1="54" x2="54" y1="5" y2="10"/><line style="fill:none;stroke:#202020;stroke-width:2;stroke-linecap:round;stroke-linejoin:round;stroke-miterlimit:10;" x1="10" x2="10" y1="5" y2="10"/><path d="M9,10   l-1.261,5.991c-0.059,0.294,0.018,0.536,0.207,0.768C8.137,16.99,8.42,17,8.72,17H55.28c0.3,0,0.583-0.01,0.773-0.241   c0.189-0.231,0.266-0.474,0.207-0.768L55,10" style="fill:none;stroke:#202020;stroke-width:2;stroke-linecap:round;stroke-linejoin:round;stroke-miterlimit:10;"/><path d="M9,17   l-1.261,5.991c-0.059,0.294,0.018,0.536,0.207,0.768C8.137,23.99,8.42,24,8.72,24H55.28c0.3,0,0.583-0.01,0.773-0.241   c0.189-0.231,0.266-0.474,0.207-0.768L55,17" style="fill:none;stroke:#202020;stroke-width:2;stroke-linecap:round;stroke-linejoin:round;stroke-miterlimit:10;"/><path d="M9,24   l-1.261,5.991c-0.059,0.294,0.018,0.536,0.207,0.768C8.137,30.99,8.42,31,8.72,31H55.28c0.3,0,0.583-0.01,0.773-0.241   c0.189-0.231,0.266-0.474,0.207-0.768L55,24" style="fill:none;stroke:#202020;stroke-width:2;stroke-linecap:round;stroke-linejoin:round;stroke-miterlimit:10;"/><path d="M9,31   l-1.261,5.991c-0.059,0.294,0.018,0.536,0.207,0.768C8.137,37.99,8.42,38,8.72,38H55.28c0.3,0,0.583-0.01,0.773-0.241   c0.189-0.231,0.266-0.474,0.207-0.768L55,31" style="fill:none;stroke:#202020;stroke-width:2;stroke-linecap:round;stroke-linejoin:round;stroke-miterlimit:10;"/><path d="M9,38   l-1.261,5.991c-0.059,0.294,0.018,0.536,0.207,0.768C8.137,44.99,8.42,45,8.72,45H55.28c0.3,0,0.583-0.01,0.773-0.241   c0.189-0.231,0.266-0.474,0.207-0.768L55,38" style="fill:none;stroke:#202020;stroke-width:2;stroke-linecap:round;stroke-linejoin:round;stroke-miterlimit:10;"/><path d="M9,45   l-1.261,5.991c-0.059,0.294,0.018,0.536,0.207,0.768C8.137,51.99,8.42,52,8.72,52H55.28c0.3,0,0.583-0.01,0.773-0.241   c0.189-0.231,0.266-0.474,0.207-0.768L55,45" style="fill:none;stroke:#202020;stroke-width:2;stroke-linecap:round;stroke-linejoin:round;stroke-miterlimit:10;"/><path d="M9,52   l-1.261,5.991c-0.059,0.294,0.018,0.536,0.207,0.768C8.137,58.99,8.42,59,8.72,59H55.28c0.3,0,0.583-0.01,0.773-0.241   c0.189-0.231,0.266-0.474,0.207-0.768L55,52" style="fill:none;stroke:#202020;stroke-width:2;stroke-linecap:round;stroke-linejoin:round;stroke-miterlimit:10;"/><line style="fill:none;stroke:#202020;stroke-width:2;stroke-linecap:round;stroke-linejoin:round;stroke-miterlimit:10;" x1="52" x2="52" y1="10" y2="42"/><line style="fill:none;stroke:#202020;stroke-width:2;stroke-linecap:round;stroke-linejoin:round;stroke-miterlimit:10;" x1="48" x2="48" y1="10" y2="59"/><line style="fill:none;stroke:#202020;stroke-width:2;stroke-linecap:round;stroke-linejoin:round;stroke-miterlimit:10;" x1="16" x2="16" y1="10" y2="59"/><line style="fill:none;stroke:#202020;stroke-width:2;stroke-linecap:round;stroke-linejoin:round;stroke-miterlimit:10;" x1="44" x2="44" y1="10" y2="59"/><line style="fill:none;stroke:#202020;stroke-width:2;stroke-linecap:round;stroke-linejoin:round;stroke-miterlimit:10;" x1="20" x2="20" y1="10" y2="59"/></g></svg>