<?xml version="1.0" ?><!DOCTYPE svg  PUBLIC '-//W3C//DTD SVG 1.1//EN'  'http://www.w3.org/Graphics/SVG/1.1/DTD/svg11.dtd'><svg enable-background="new 0 0 512 512" height="512px" version="1.1" viewBox="0 0 512 512" width="512px" xml:space="preserve" xmlns="http://www.w3.org/2000/svg" xmlns:xlink="http://www.w3.org/1999/xlink"><g id="Layer_1"><g><line fill="none" stroke="#000000" stroke-linecap="round" stroke-linejoin="round" stroke-miterlimit="10" stroke-width="25" x1="147" x2="88" y1="351.694" y2="351.694"/><line fill="none" stroke="#000000" stroke-linecap="round" stroke-linejoin="round" stroke-miterlimit="10" stroke-width="25" x1="365" x2="424" y1="351.694" y2="351.694"/><path d="    M218.831,106.507c-45.587-2.536-89.871-9.952-132.331-21.756V230v202.912v21.782h111.152c-13.438-36-30.408-70.564-50.492-102.914    C179.963,298.927,204.465,177.526,218.831,106.507z" fill="none" stroke="#000000" stroke-linecap="round" stroke-linejoin="round" stroke-miterlimit="10" stroke-width="25"/><path d="    M364.818,351.78c-20.084,32.35-37.054,66.914-50.492,102.914H425.5v-21.782V230V83.633c-42.457,12.109-86.768,19.738-132.4,22.562    C307.459,177.271,331.979,298.868,364.818,351.78z" fill="none" stroke="#000000" stroke-linecap="round" stroke-linejoin="round" stroke-miterlimit="10" stroke-width="25"/><path d="    M86.5,84.751C139.804,99.568,195.975,107.5,254,107.5c59.478,0,117.01-8.325,171.5-23.867V56.694h-339V84.751z" fill="none" stroke="#000000" stroke-linecap="round" stroke-linejoin="round" stroke-miterlimit="10" stroke-width="25"/><line fill="none" stroke="#000000" stroke-linecap="round" stroke-linejoin="round" stroke-miterlimit="10" stroke-width="25" x1="173" x2="337" y1="398.694" y2="398.694"/><line fill="none" stroke="#000000" stroke-linecap="round" stroke-linejoin="round" stroke-miterlimit="10" stroke-width="25" x1="253.5" x2="253.5" y1="107.194" y2="396.194"/></g></g></svg>