<?xml version="1.0" ?><!DOCTYPE svg  PUBLIC '-//W3C//DTD SVG 1.1//EN'  'http://www.w3.org/Graphics/SVG/1.1/DTD/svg11.dtd'><svg height="64px" id="ICONS" style="enable-background:new 0 0 64 64;" version="1.1" viewBox="0 0 64 64" width="64px" xml:space="preserve" xmlns="http://www.w3.org/2000/svg" xmlns:xlink="http://www.w3.org/1999/xlink"><g><rect height="4" style="fill:none;stroke:#202020;stroke-width:2;stroke-linecap:round;stroke-linejoin:round;stroke-miterlimit:10;" width="52" x="6" y="5"/><rect height="46" style="fill:none;stroke:#202020;stroke-width:2;stroke-linecap:round;stroke-linejoin:round;stroke-miterlimit:10;" width="42" x="9" y="13"/><line style="fill:none;stroke:#202020;stroke-width:2;stroke-linecap:round;stroke-linejoin:round;stroke-miterlimit:10;" x1="45" x2="45" y1="13" y2="59"/><line style="fill:none;stroke:#202020;stroke-width:2;stroke-linecap:round;stroke-linejoin:round;stroke-miterlimit:10;" x1="39" x2="39" y1="13" y2="59"/><line style="fill:none;stroke:#202020;stroke-width:2;stroke-linecap:round;stroke-linejoin:round;stroke-miterlimit:10;" x1="33" x2="33" y1="13" y2="59"/><line style="fill:none;stroke:#202020;stroke-width:2;stroke-linecap:round;stroke-linejoin:round;stroke-miterlimit:10;" x1="27" x2="27" y1="13" y2="59"/><line style="fill:none;stroke:#202020;stroke-width:2;stroke-linecap:round;stroke-linejoin:round;stroke-miterlimit:10;" x1="21" x2="21" y1="13" y2="59"/><line style="fill:none;stroke:#202020;stroke-width:2;stroke-linecap:round;stroke-linejoin:round;stroke-miterlimit:10;" x1="15" x2="15" y1="13" y2="59"/><line style="fill:none;stroke:#202020;stroke-width:2;stroke-linecap:round;stroke-linejoin:round;stroke-miterlimit:10;" x1="45" x2="9" y1="55" y2="55"/><line style="fill:none;stroke:#202020;stroke-width:2;stroke-linecap:round;stroke-linejoin:round;stroke-miterlimit:10;" x1="48" x2="48" y1="9" y2="13"/><line style="fill:none;stroke:#202020;stroke-width:2;stroke-linecap:round;stroke-linejoin:round;stroke-miterlimit:10;" x1="42" x2="42" y1="9" y2="13"/><line style="fill:none;stroke:#202020;stroke-width:2;stroke-linecap:round;stroke-linejoin:round;stroke-miterlimit:10;" x1="36" x2="36" y1="9" y2="13"/><line style="fill:none;stroke:#202020;stroke-width:2;stroke-linecap:round;stroke-linejoin:round;stroke-miterlimit:10;" x1="30" x2="30" y1="9" y2="13"/><line style="fill:none;stroke:#202020;stroke-width:2;stroke-linecap:round;stroke-linejoin:round;stroke-miterlimit:10;" x1="24" x2="24" y1="9" y2="13"/><line style="fill:none;stroke:#202020;stroke-width:2;stroke-linecap:round;stroke-linejoin:round;stroke-miterlimit:10;" x1="18" x2="18" y1="9" y2="13"/><line style="fill:none;stroke:#202020;stroke-width:2;stroke-linecap:round;stroke-linejoin:round;stroke-miterlimit:10;" x1="12" x2="12" y1="9" y2="13"/><g><g><path d="M56,13c-0.26,0-0.52-0.11-0.71-0.29C55.11,12.52,55,12.27,55,12s0.11-0.52,0.29-0.71     c0.37-0.37,1.04-0.37,1.42,0C56.89,11.48,57,11.74,57,12c0,0.26-0.11,0.52-0.29,0.71C56.52,12.89,56.26,13,56,13z" style="fill:#202020;"/></g><g><path d="M55,45c0-0.55,0.45-1,1-1l0,0c0.55,0,1,0.45,1,1l0,0c0,0.55-0.45,1-1,1l0,0     C55.45,46,55,45.55,55,45z M55,42c0-0.55,0.45-1,1-1l0,0c0.55,0,1,0.45,1,1l0,0c0,0.55-0.45,1-1,1l0,0C55.45,43,55,42.55,55,42z      M55,39c0-0.55,0.45-1,1-1l0,0c0.55,0,1,0.45,1,1l0,0c0,0.55-0.45,1-1,1l0,0C55.45,40,55,39.55,55,39z M55,36c0-0.55,0.45-1,1-1     l0,0c0.55,0,1,0.45,1,1l0,0c0,0.55-0.45,1-1,1l0,0C55.45,37,55,36.55,55,36z M55,33c0-0.55,0.45-1,1-1l0,0c0.55,0,1,0.45,1,1l0,0     c0,0.55-0.45,1-1,1l0,0C55.45,34,55,33.55,55,33z M55,30c0-0.55,0.45-1,1-1l0,0c0.55,0,1,0.45,1,1l0,0c0,0.55-0.45,1-1,1l0,0     C55.45,31,55,30.55,55,30z M55,27c0-0.55,0.45-1,1-1l0,0c0.55,0,1,0.45,1,1l0,0c0,0.55-0.45,1-1,1l0,0C55.45,28,55,27.55,55,27z      M55,24c0-0.55,0.45-1,1-1l0,0c0.55,0,1,0.45,1,1l0,0c0,0.55-0.45,1-1,1l0,0C55.45,25,55,24.55,55,24z M55,21c0-0.55,0.45-1,1-1     l0,0c0.55,0,1,0.45,1,1l0,0c0,0.55-0.45,1-1,1l0,0C55.45,22,55,21.55,55,21z M55,18c0-0.55,0.45-1,1-1l0,0c0.55,0,1,0.45,1,1l0,0     c0,0.55-0.45,1-1,1l0,0C55.45,19,55,18.55,55,18z M55,15c0-0.55,0.45-1,1-1l0,0c0.55,0,1,0.45,1,1l0,0c0,0.55-0.45,1-1,1l0,0     C55.45,16,55,15.55,55,15z" style="fill:#202020;"/></g><g><path d="M56,49c-0.26,0-0.52-0.11-0.71-0.29C55.11,48.52,55,48.26,55,48c0-0.26,0.11-0.52,0.29-0.71     c0.37-0.37,1.05-0.37,1.42,0C56.89,47.48,57,47.74,57,48c0,0.26-0.11,0.52-0.29,0.71C56.52,48.89,56.26,49,56,49z" style="fill:#202020;"/></g></g><path d="   M58,55h-4v-2c0-1.104,0.896-2,2-2s2,0.896,2,2V55z" style="fill:none;stroke:#202020;stroke-width:2;stroke-linecap:round;stroke-linejoin:round;stroke-miterlimit:10;"/><line style="fill:none;stroke:#202020;stroke-width:2;stroke-linecap:round;stroke-linejoin:round;stroke-miterlimit:10;" x1="54" x2="54" y1="5" y2="9"/><line style="fill:none;stroke:#202020;stroke-width:2;stroke-linecap:round;stroke-linejoin:round;stroke-miterlimit:10;" x1="10" x2="10" y1="5" y2="9"/></g></svg>