<?xml version="1.0" ?><svg enable-background="new 0 0 26 26" id="Слой_1" version="1.1" viewBox="0 0 26 26" xml:space="preserve" xmlns="http://www.w3.org/2000/svg" xmlns:xlink="http://www.w3.org/1999/xlink"><path d="M18,13h-0.25V5.75C17.75,3.1308594,15.6191406,1,13,1S8.25,3.1308594,8.25,5.75V13H8  c-0.4140625,0-0.75,0.3359375-0.75,0.75v2c0,0.4140625,0.3359375,0.75,0.75,0.75h2.75v7.75c0,0.4140625,0.3359375,0.75,0.75,0.75  s0.75-0.3359375,0.75-0.75V16.5h1.5v7.75c0,0.4140625,0.3359375,0.75,0.75,0.75s0.75-0.3359375,0.75-0.75V16.5H18  c0.4140625,0,0.75-0.3359375,0.75-0.75v-2C18.75,13.3359375,18.4140625,13,18,13z M9,14.5h1.75V15h-2v-0.5H9z M11.75,15v-0.5h2.5V15  H11.75z M15.25,14.5H17h0.25V15h-2V14.5z M13,2.5c1.7919922,0,3.25,1.4580078,3.25,3.25v7.75h-1v-2.75  c0-0.0650635-0.0131836-0.1298218-0.0384521-0.190918c-0.0506592-0.1224365-0.1481934-0.2199707-0.2706299-0.2706299  c-0.1221924-0.0505371-0.2596436-0.0505371-0.3818359,0c-0.0615234,0.0254517-0.1169434,0.0622559-0.163208,0.1086426  l-1.4993896,1.4993896c-0.1953125,0.1953125-0.1953125,0.5117188,0,0.7070313C12.9941406,12.7011719,13.1220703,12.75,13.25,12.75  s0.2558594-0.0488281,0.3535156-0.1464844L14.25,11.9570313V13.5h-2.5V9.75h1.2929688l-0.6464844,0.6464844  c-0.1953125,0.1953125-0.1953125,0.5117188,0,0.7070313C12.4941406,11.2011719,12.6220703,11.25,12.75,11.25  s0.2558594-0.0488281,0.3535156-0.1464844l1.4993896-1.4993896c0.0463867-0.0462646,0.0831909-0.1016846,0.1086426-0.163208  c0.0505371-0.1221924,0.0505371-0.2596436,0-0.3818359c-0.0506592-0.1224365-0.1481934-0.2199707-0.2706299-0.2706299  C14.3798218,8.7631836,14.3150635,8.75,14.25,8.75h-3c-0.2763672,0-0.5,0.2236328-0.5,0.5v4.25h-1V5.75  C9.75,3.9580078,11.2080078,2.5,13,2.5z" fill="#1D1D1B"/></svg>