<?xml version="1.0" encoding="UTF-8" standalone="no"?>
<svg
   xmlns:dc="http://purl.org/dc/elements/1.1/"
   xmlns:cc="http://creativecommons.org/ns#"
   xmlns:rdf="http://www.w3.org/1999/02/22-rdf-syntax-ns#"
   xmlns:svg="http://www.w3.org/2000/svg"
   xmlns="http://www.w3.org/2000/svg"
   xmlns:sodipodi="http://sodipodi.sourceforge.net/DTD/sodipodi-0.dtd"
   xmlns:inkscape="http://www.inkscape.org/namespaces/inkscape"
   id="Layer_1"
   style="enable-background:new 0 0 64 64;"
   version="1.1"
   viewBox="0 0 64 64"
   xml:space="preserve"
   sodipodi:docname="door_sensor.svg"
   inkscape:version="1.0.2-2 (e86c870879, 2021-01-15)"><metadata
     id="metadata21"><rdf:RDF><cc:Work
         rdf:about=""><dc:format>image/svg+xml</dc:format><dc:type
           rdf:resource="http://purl.org/dc/dcmitype/StillImage" /></cc:Work></rdf:RDF></metadata><defs
     id="defs19" /><sodipodi:namedview
     pagecolor="#ffffff"
     bordercolor="#666666"
     borderopacity="1"
     objecttolerance="10"
     gridtolerance="10"
     guidetolerance="10"
     inkscape:pageopacity="0"
     inkscape:pageshadow="2"
     inkscape:window-width="2560"
     inkscape:window-height="1017"
     id="namedview17"
     showgrid="false"
     inkscape:zoom="13.28125"
     inkscape:cx="31.831622"
     inkscape:cy="26.304682"
     inkscape:window-x="-8"
     inkscape:window-y="-8"
     inkscape:window-maximized="1"
     inkscape:current-layer="g14"
     inkscape:document-rotation="0" /><style
     type="text/css"
     id="style2">
	.st0{fill:#59595B;}
</style><g
     id="g14"
     style="fill:#000000"
     transform="matrix(-1,0,0,1,64,0)"><path
       class="st0"
       d="M 39.968842,7.14 H 37.928715 L 30.638885,4 V 7.14 H 20.549 v 10.31 c -1.089966,0.400025 -1.86,1.429988 -1.86,2.63 v 3.85 c 0,1.200012 0.770034,2.230036 1.86,2.63 v 28.91 h 7.759868 V 14.380005 h 2.330017 V 54.470032 60 L 47.158499,55.47 H 55.999 V 7.14 Z M 23.408844,23.929993 c 0,0.470031 -0.889813,0.850007 -1.359844,0.850007 -0.479981,0 -1.36,-0.379976 -1.36,-0.850007 V 20.08 c 0,-0.469971 0.880019,-0.84 1.36,-0.84 0.470031,0 1.359844,0.370046 1.359844,0.840017 z M 26.308868,12.410034 V 52.51001 H 23.548859 V 26.559998 c 1.080017,-0.399964 1.859985,-1.429993 1.859985,-2.630005 v -3.849976 c 0,-1.200012 -0.779968,-2.22998 -1.859985,-2.630005 v -7.339966 h 7.090026 v 2.299988 z m 6.330017,44.919983 V 54.470032 14.380005 12.410034 10.110046 8.1400146 7.0400391 l 2.479981,1.0999756 3.809998,1.6900024 0.590026,0.2800289 4.819947,2.299988 3.350036,1.599976 v 38.5 0.25 l -5.630005,1.710022 z M 52.998871,52.51001 H 49.688873 V 13.400024 12.780029 l -5.590027,-2.669983 h 8.900025 z"
       id="path4"
       style="fill:#000000"
       sodipodi:nodetypes="ccccccsscccccccccccsssssssccccsscccccccccccccccccccccccccccc" /><path
       class="st0"
       d="m 35.328888,29.400024 c -0.550049,0 -1,0.440003 -1,0.979981 v 8.210022 c 0,0.549988 0.449951,0.98999 1,0.98999 0.559997,0 1,-0.440002 1,-0.98999 v -8.210022 c 0,-0.539978 -0.440003,-0.979981 -1,-0.979981 z"
       id="path6"
       style="fill:#000000" /><path
       class="st0"
       d="m 17.272613,22.004883 c 0,-0.543946 -0.447265,-0.984131 -1,-0.984131 h -6.271484 c -0.5527343,0 -0.9999999,0.440185 -0.9999999,0.984131 0,0.544006 0.4472656,0.984192 0.9999999,0.984192 h 6.271484 c 0.552735,0 1,-0.440186 1,-0.984192 z"
       id="path8"
       style="fill:#000000" /><path
       class="st0"
       d="m 16.343903,30.672974 -4.081055,4.22882 c -0.380859,0.394043 -0.364258,1.016846 0.03613,1.390686 0.193359,0.181702 0.441406,0.271058 0.688476,0.271058 0.264649,0 0.528321,-0.102845 0.72461,-0.30658 l 4.081054,-4.228821 c 0.38086,-0.394043 0.364258,-1.016846 -0.03613,-1.390686 -0.400391,-0.375793 -1.03418,-0.35852 -1.413086,0.03552 z"
       id="path10"
       style="fill:#000000" /><path
       class="st0"
       d="M 14.170075,7.7788086 C 13.799957,7.3722534 13.169098,7.3386231 12.757965,7.6980591 12.345856,8.0604248 12.308746,8.682251 12.675934,9.0878296 l 3.943359,4.3556514 c 0.198242,0.218201 0.47168,0.329651 0.74707,0.329651 0.237305,0 0.47461,-0.08264 0.66504,-0.248901 0.412109,-0.362366 0.449218,-0.984192 0.08203,-1.389771 z"
       id="path12"
       style="fill:#000000" /></g></svg>
