<?xml version="1.0" ?><svg enable-background="new 0 0 26 26" id="Слой_1" version="1.1" viewBox="0 0 26 26" xml:space="preserve" xmlns="http://www.w3.org/2000/svg" xmlns:xlink="http://www.w3.org/1999/xlink"><g><path d="M19.5,10H19V9.5C19,9.2236328,18.7763672,9,18.5,9S18,9.2236328,18,9.5V10h-0.5   c-0.2763672,0-0.5,0.2236328-0.5,0.5s0.2236328,0.5,0.5,0.5H18v0.5c0,0.2763672,0.2236328,0.5,0.5,0.5s0.5-0.2236328,0.5-0.5V11   h0.5c0.2763672,0,0.5-0.2236328,0.5-0.5S19.7763672,10,19.5,10z" fill="#1D1D1B"/><path d="M8,14c-0.2763672,0-0.5,0.2236328-0.5,0.5v0.5003052l-0.6000977-0.8001099   c-0.007019-0.0092773-0.0174561-0.0136108-0.0249634-0.0222778c-0.0235596-0.0274048-0.0504761-0.0490112-0.0794067-0.0707397   c-0.0241699-0.0181274-0.046875-0.0360718-0.0733643-0.0493774c-0.0280762-0.0141602-0.0576782-0.0220947-0.0884399-0.0308228   c-0.0335693-0.0095215-0.0657959-0.0178223-0.1005249-0.0202637C6.5216064,14.0059204,6.5117798,14,6.5,14   c-0.0193481,0-0.0357056,0.0088501-0.0544434,0.0109863c-0.0353394,0.0037842-0.0690308,0.0092773-0.1032715,0.020813   c-0.0319824,0.0108032-0.0601196,0.0256958-0.0888672,0.0424194c-0.017334,0.0100098-0.0368652,0.0130615-0.0532227,0.0253906   c-0.0097656,0.0073242-0.0143433,0.0183716-0.0234375,0.0262451c-0.0262451,0.0227051-0.046875,0.048584-0.0679321,0.0762329   c-0.019043,0.0250854-0.0377808,0.0488281-0.0515747,0.0765381c-0.0137939,0.0274658-0.0214844,0.0565186-0.0300903,0.0865479   c-0.0096436,0.0336914-0.0179443,0.0661621-0.0203247,0.1010742C6.0059814,14.4780273,6,14.4880371,6,14.5v2   C6,16.7763672,6.2236328,17,6.5,17S7,16.7763672,7,16.5v-0.5003052l0.6000977,0.8001099   c0.0061646,0.0082397,0.0160522,0.0110474,0.022644,0.0187988c0.0349731,0.0414429,0.0765991,0.0738525,0.1231689,0.1021118   c0.0161133,0.0097046,0.0290527,0.0232544,0.0460205,0.0310059C7.8557129,16.9811401,7.9251099,17,8,17   c0.0001221,0,0.0001221-0.000061,0.0002441-0.000061C8.0003052,16.999939,8.0004272,17,8.0004883,17   c0.0002441,0,0.0004883-0.0002441,0.0007324-0.0002441c0.1009521-0.0002441,0.1894531-0.0375977,0.2678833-0.0891724   c0.0095215-0.0061646,0.0214844-0.0032959,0.0307007-0.0101929c0.0097656-0.0073242,0.0142822-0.0183716,0.0233765-0.0262451   c0.0263062-0.0227051,0.0470581-0.0487061,0.0681152-0.076416c0.0189819-0.0250244,0.0377197-0.0487061,0.0514526-0.0762939   c0.0137939-0.0274658,0.0214844-0.0565796,0.0300903-0.0866699c0.0095825-0.0336914,0.0179443-0.0661011,0.0203247-0.1010132   C8.4940186,16.5219727,8.5,16.5119629,8.5,16.5v-2C8.5,14.2236328,8.2763672,14,8,14z" fill="#1D1D1B"/><path d="M8,11H7V9.5C7,9.2236328,6.7763672,9,6.5,9S6,9.2236328,6,9.5v2C6,11.7763672,6.2236328,12,6.5,12H8   c0.2763672,0,0.5-0.2236328,0.5-0.5S8.2763672,11,8,11z" fill="#1D1D1B"/><path d="M19.5,15h-2c-0.2763672,0-0.5,0.2236328-0.5,0.5s0.2236328,0.5,0.5,0.5h2   c0.2763672,0,0.5-0.2236328,0.5-0.5S19.7763672,15,19.5,15z" fill="#1D1D1B"/><path d="M24.25,15.75h-1.5v-5.5h1.5c0.4140625,0,0.75-0.3359375,0.75-0.75s-0.3359375-0.75-0.75-0.75h-1.5V7.5   c0-0.4140625-0.3359375-0.75-0.75-0.75H4c-0.4140625,0-0.75,0.3359375-0.75,0.75v1.25h-1.5C1.3359375,8.75,1,9.0859375,1,9.5   s0.3359375,0.75,0.75,0.75h1.5v2h-1.5C1.3359375,12.25,1,12.5859375,1,13s0.3359375,0.75,0.75,0.75h1.5v2h-1.5   C1.3359375,15.75,1,16.0859375,1,16.5s0.3359375,0.75,0.75,0.75h1.5v1.25c0,0.4140625,0.3359375,0.75,0.75,0.75h18   c0.4140625,0,0.75-0.3359375,0.75-0.75v-1.25h1.5c0.4140625,0,0.75-0.3359375,0.75-0.75S24.6640625,15.75,24.25,15.75z    M21.25,17.75H4.75v-9.5h16.5V17.75z" fill="#1D1D1B"/></g></svg>