<?xml version="1.0" ?><svg enable-background="new 0 0 26 26" id="Слой_1" version="1.1" viewBox="0 0 26 26" xml:space="preserve" xmlns="http://www.w3.org/2000/svg" xmlns:xlink="http://www.w3.org/1999/xlink"><g><path d="M21.25,1H4.75C2.6821289,1,1,2.6826172,1,4.75v16.5C1,23.3173828,2.6821289,25,4.75,25h16.5   c2.0678711,0,3.75-1.6826172,3.75-3.75V4.75C25,2.6826172,23.3178711,1,21.25,1z M23.5,21.25c0,1.2402344-1.0092773,2.25-2.25,2.25   H4.75c-1.2407227,0-2.25-1.0097656-2.25-2.25V4.75c0-1.2402344,1.0092773-2.25,2.25-2.25h16.5   c1.2407227,0,2.25,1.0097656,2.25,2.25V21.25z" fill="#1D1D1B"/><path d="M13,5.75c-3.9975586,0-7.25,3.2519531-7.25,7.25s3.2524414,7.25,7.25,7.25s7.25-3.2519531,7.25-7.25   S16.9975586,5.75,13,5.75z M13,19.25c-3.4462891,0-6.25-2.8037109-6.25-6.25S9.5537109,6.75,13,6.75s6.25,2.8037109,6.25,6.25   S16.4462891,19.25,13,19.25z" fill="#1D1D1B"/><path d="M13,13.75c-0.7583008,0-1.375,0.6171875-1.375,1.375v0.75c0,0.2763672,0.2236328,0.5,0.5,0.5h1.75   c0.2763672,0,0.5-0.2236328,0.5-0.5v-0.75C14.375,14.3671875,13.7583008,13.75,13,13.75z M13,14.75   c0.206543,0,0.375,0.1679688,0.375,0.375v0.25h-0.75v-0.25C12.625,14.9179688,12.793457,14.75,13,14.75z" fill="#1D1D1B"/><path d="M11.75,10.625c0-0.4140625-0.3359375-0.75-0.75-0.75s-0.75,0.3359375-0.75,0.75v1.5   c0,0.4140625,0.3359375,0.75,0.75,0.75s0.75-0.3359375,0.75-0.75V10.625z" fill="#1D1D1B"/><path d="M15,9.875c-0.4140625,0-0.75,0.3359375-0.75,0.75v1.5c0,0.4140625,0.3359375,0.75,0.75,0.75   s0.75-0.3359375,0.75-0.75v-1.5C15.75,10.2109375,15.4140625,9.875,15,9.875z" fill="#1D1D1B"/></g></svg>