<?xml version="1.0" ?><svg enable-background="new 0 0 26 26" id="Слой_1" version="1.1" viewBox="0 0 26 26" xml:space="preserve" xmlns="http://www.w3.org/2000/svg" xmlns:xlink="http://www.w3.org/1999/xlink"><path d="M15.9824524,1.75v6.3369141h-5.9667969V1.75c0-0.4140625-0.3359375-0.75-0.75-0.75  s-0.75,0.3359375-0.75,0.75v6.3369141H7.0918274c-0.4140625,0-0.75,0.3359375-0.75,0.75L6.3408508,9.4326172  c-0.0018921,5.0009155,0.0033569,9.3896484,5.9091797,10.0108032V24.25c0,0.4140625,0.3359375,0.75,0.75,0.75  s0.75-0.3359375,0.75-0.75v-4.8051758c5.6901245-0.595459,5.9091797-4.6622925,5.9091797-9.4575195  c0-0.1835938,0-0.3691406,0-0.5546875l-0.0009766-0.5957031c0-0.4140625-0.3359375-0.75-0.75-0.75h-1.4257813V1.75  c0-0.4140625-0.3359375-0.75-0.75-0.75S15.9824524,1.3359375,15.9824524,1.75z M12.9999084,18.0095215  c-4.864502-0.2553101-5.1590576-2.8776245-5.1590576-8.2888184c0-0.0438232,0-0.0891724,0-0.1337891h10.3181763  C18.1687317,15.0899658,17.9039612,17.751709,12.9999084,18.0095215z" fill="#1D1D1B"/></svg>