<?xml version="1.0" ?><!DOCTYPE svg  PUBLIC '-//W3C//DTD SVG 1.1//EN'  'http://www.w3.org/Graphics/SVG/1.1/DTD/svg11.dtd'><svg enable-background="new 0 0 26 26" id="Слой_1" version="1.1" viewBox="0 0 26 26" xml:space="preserve" xmlns="http://www.w3.org/2000/svg" xmlns:xlink="http://www.w3.org/1999/xlink"><g><path d="M22,1H4C3.5859375,1,3.25,1.3359375,3.25,1.75v22.5C3.25,24.6640625,3.5859375,25,4,25h18   c0.4140625,0,0.75-0.3359375,0.75-0.75V1.75C22.75,1.3359375,22.4140625,1,22,1z M21.25,23.5H4.75v-21h16.5V23.5z" fill="#1D1D1B"/><path d="M7,15.8618164c0.4755859,0,0.8623047-0.3867188,0.8623047-0.8618164S7.4755859,14.1381836,7,14.1381836   S6.1376953,14.5249023,6.1376953,15S6.5244141,15.8618164,7,15.8618164z M7,14.6381836   c0.2001953,0,0.3623047,0.1621094,0.3623047,0.3618164S7.2001953,15.3618164,7,15.3618164S6.6376953,15.199707,6.6376953,15   S6.7998047,14.6381836,7,14.6381836z" fill="#1D1D1B"/><path d="M15.25,14.9262695h-1.2001953v-2.2011719c0-0.2167969-0.1396484-0.4086914-0.3457031-0.4755859   C13.5,12.1826172,13.2724609,12.2558594,13.1455078,12.4311523l-2.7998047,3.8486328   c-0.1103516,0.1518555-0.1269531,0.3530273-0.0410156,0.5209961c0.0849609,0.1674805,0.2568359,0.2729492,0.4453125,0.2729492   h1.2001953v2.2011719c0,0.2167969,0.1396484,0.4086914,0.3457031,0.4755859   c0.0507813,0.0166016,0.1025391,0.0244141,0.1542969,0.0244141c0.1572266,0,0.3085938-0.0742188,0.4042969-0.2060547   l2.7998047-3.8486328c0.1103516-0.1518555,0.1269531-0.3530273,0.0410156-0.5209961   C15.6103516,15.0317383,15.4384766,14.9262695,15.25,14.9262695z M12.9501953,17.737793v-1.1640625   c0-0.2763672-0.2236328-0.5-0.5-0.5h-0.7177734l1.3173828-1.8115234v1.1640625c0,0.2763672,0.2236328,0.5,0.5,0.5h0.7177734   L12.9501953,17.737793z" fill="#1D1D1B"/><path d="M7,10.75h12c0.2763672,0,0.5-0.2236328,0.5-0.5V6.5C19.5,6.2236328,19.2763672,6,19,6H7   C6.7236328,6,6.5,6.2236328,6.5,6.5v3.75C6.5,10.5263672,6.7236328,10.75,7,10.75z M7.5,7h6.3914185l-1.1052856,1.1098633   c-0.0976563,0.0976563-0.0976563,0.2558594,0,0.3535156c0.0488281,0.0483398,0.1132813,0.0727539,0.1767578,0.0727539   c0.0644531,0,0.1279297-0.0244141,0.1767578-0.0737305L14.5960693,7h0.9372559l-1.2589111,1.2636719   c-0.0976563,0.0976563-0.0976563,0.2558594,0,0.3535156c0.0488281,0.0483398,0.1132813,0.0727539,0.1767578,0.0727539   c0.0644531,0,0.1279297-0.0244141,0.1767578-0.0737305L16.2380371,7H18.5v2.75h-11V7z" fill="#1D1D1B"/></g></svg>