<?xml version="1.0" ?><svg enable-background="new 0 0 26 26" id="Слой_1" version="1.1" viewBox="0 0 26 26" xml:space="preserve" xmlns="http://www.w3.org/2000/svg" xmlns:xlink="http://www.w3.org/1999/xlink"><g><path d="M24.8994141,22.3681641l-11.25-19.4863281c-0.2675781-0.4648438-1.03125-0.4648438-1.2988281,0   l-11.25,19.4863281c-0.1337891,0.2324219-0.1337891,0.5175781,0,0.75s0.3818359,0.375,0.6494141,0.375h22.5   c0.2675781,0,0.515625-0.1425781,0.6494141-0.375S25.0332031,22.6005859,24.8994141,22.3681641z M3.0488281,21.9931641   L13,4.7568359l9.9511719,17.2363281H3.0488281z" fill="#1D1D1B"/><path d="M9.4628906,16.515625c0.0849609,0.1679688,0.2568359,0.2734375,0.4453125,0.2734375h1.8359375V20   c0,0.2167969,0.1396484,0.4082031,0.3457031,0.4755859C12.140625,20.4921875,12.1923828,20.5,12.2441406,20.5   c0.1572266,0,0.3085938-0.0742188,0.4042969-0.2060547l3.8476563-5.2890625   c0.1103516-0.1523438,0.1269531-0.3535156,0.0410156-0.5205078c-0.0849609-0.1679688-0.2568359-0.2734375-0.4453125-0.2734375   h-1.8359375V11c0-0.2167969-0.1396484-0.4082031-0.3457031-0.4755859s-0.4316406,0.0068359-0.5585938,0.1816406   l-3.8476563,5.2890625C9.3935547,16.1474609,9.3769531,16.3486328,9.4628906,16.515625z M13.2558594,12.5371094v2.1738281   c0,0.2763672,0.2236328,0.5,0.5,0.5h1.3535156l-2.3652344,3.2519531v-2.1738281c0-0.2763672-0.2236328-0.5-0.5-0.5H10.890625   L13.2558594,12.5371094z" fill="#1D1D1B"/></g></svg>