<?xml version="1.0" ?><!DOCTYPE svg  PUBLIC '-//W3C//DTD SVG 1.1//EN'  'http://www.w3.org/Graphics/SVG/1.1/DTD/svg11.dtd'><svg enable-background="new 0 0 26 26" id="Слой_1" version="1.1" viewBox="0 0 26 26" xml:space="preserve" xmlns="http://www.w3.org/2000/svg" xmlns:xlink="http://www.w3.org/1999/xlink"><g><path d="M21.25,1H4.75C2.6826172,1,1,2.6821289,1,4.75v16.5C1,23.3178711,2.6826172,25,4.75,25h16.5   c2.0673828,0,3.75-1.6821289,3.75-3.75V4.75C25,2.6821289,23.3173828,1,21.25,1z M23.5,21.25c0,1.2407227-1.0097656,2.25-2.25,2.25   H4.75c-1.2402344,0-2.25-1.0092773-2.25-2.25V4.75c0-1.2407227,1.0097656-2.25,2.25-2.25h16.5   c1.2402344,0,2.25,1.0092773,2.25,2.25V21.25z" fill="#1D1D1B"/><path d="M18.8662109,4.5H7.1337891C5.6816406,4.5,4.5,5.6811523,4.5,7.1333008v11.7333984   C4.5,20.3188477,5.6816406,21.5,7.1337891,21.5h11.7324219C20.3183594,21.5,21.5,20.3188477,21.5,18.8666992V7.1333008   C21.5,5.6811523,20.3183594,4.5,18.8662109,4.5z M5.5,18.8666992V7.1333008C5.5,6.2329102,6.2333984,5.5,7.1337891,5.5H12.5v15   H7.1337891C6.2333984,20.5,5.5,19.7670898,5.5,18.8666992z M20.5,18.8666992C20.5,19.7670898,19.7666016,20.5,18.8662109,20.5H13.5   v-15h5.3662109C19.7666016,5.5,20.5,6.2329102,20.5,7.1333008V18.8666992z" fill="#1D1D1B"/></g></svg>