<?xml version="1.0" ?><!DOCTYPE svg  PUBLIC '-//W3C//DTD SVG 1.1//EN'  'http://www.w3.org/Graphics/SVG/1.1/DTD/svg11.dtd'><svg enable-background="new 0 0 26 26" id="Слой_1" version="1.1" viewBox="0 0 26 26" xml:space="preserve" xmlns="http://www.w3.org/2000/svg" xmlns:xlink="http://www.w3.org/1999/xlink"><g><path d="M24.25,9.6542969h-1.8134766V8.5932617c0-0.4140625-0.3359375-0.75-0.75-0.75h-1.8701172V5.2290039   c0-0.9047852-0.7363281-1.640625-1.6416016-1.640625H7.8251953c-0.9052734,0-1.6416016,0.7358398-1.6416016,1.640625v2.6142578   H4.3134766c-0.4140625,0-0.75,0.3359375-0.75,0.75v1.0610352H1.75c-0.4140625,0-0.75,0.3359375-0.75,0.75s0.3359375,0.75,0.75,0.75   h1.8134766v1.0605469c0,0.4140625,0.3359375,0.75,0.75,0.75h1.8701172v2.6147461   c0,0.9047852,0.7363281,1.640625,1.6416016,1.640625h2.6142578v1.878418c0,0.4140625,0.3359375,0.75,0.75,0.75H12.25v1.8129883   c0,0.4140625,0.3359375,0.75,0.75,0.75s0.75-0.3359375,0.75-0.75v-1.8129883h1.0605469c0.4140625,0,0.75-0.3359375,0.75-0.75   v-1.878418h2.6142578c0.9052734,0,1.6416016-0.7358398,1.6416016-1.640625v-2.6147461h1.8701172   c0.4140625,0,0.75-0.3359375,0.75-0.75v-1.0605469H24.25c0.4140625,0,0.75-0.3359375,0.75-0.75   S24.6640625,9.6542969,24.25,9.6542969z M5.0634766,11.4648438v-2.121582h1.1201172v2.121582H5.0634766z M14.0605469,18.3486328   h-2.1210938v-1.128418h2.1210938V18.3486328z M18.1748047,15.7202148h-3.3642578h-3.6210938H7.8251953   c-0.078125,0-0.1416016-0.0629883-0.1416016-0.140625V12.25354c0.0007324-0.0135498,0.0078125-0.0249634,0.0078125-0.0386963   v-3.621582c0-0.0137329-0.0070801-0.0251465-0.0078125-0.0386963V5.2290039c0-0.0776367,0.0634766-0.140625,0.1416016-0.140625   h10.3496094c0.078125,0,0.1416016,0.0629883,0.1416016,0.140625v3.3255615   c-0.0007324,0.0135498-0.0078125,0.0249634-0.0078125,0.0386963v3.621582c0,0.0137329,0.0070801,0.0251465,0.0078125,0.0386963   v3.3260498C18.3164063,15.6572266,18.2529297,15.7202148,18.1748047,15.7202148z M20.9365234,11.4648438h-1.1201172v-2.121582   h1.1201172V11.4648438z" fill="#1D1D1B"/><circle cx="8.934021" cy="6.3381653" fill="#1D1D1B" r="0.4583435"/><circle cx="17.0582275" cy="6.3381653" fill="#1D1D1B" r="0.4583435"/><circle cx="8.934021" cy="14.4700623" fill="#1D1D1B" r="0.4583435"/><circle cx="17.0582275" cy="14.4700623" fill="#1D1D1B" r="0.4583435"/></g></svg>