<?xml version="1.0" ?><!DOCTYPE svg  PUBLIC '-//W3C//DTD SVG 1.1//EN'  'http://www.w3.org/Graphics/SVG/1.1/DTD/svg11.dtd'><svg enable-background="new 0 0 26 26" id="Слой_1" version="1.1" viewBox="0 0 26 26" xml:space="preserve" xmlns="http://www.w3.org/2000/svg" xmlns:xlink="http://www.w3.org/1999/xlink"><g><path d="M22,1H4C3.5859375,1,3.25,1.3359375,3.25,1.75v22.5C3.25,24.6640625,3.5859375,25,4,25h18   c0.4140625,0,0.75-0.3359375,0.75-0.75V1.75C22.75,1.3359375,22.4140625,1,22,1z M15.75,19.75v3.75h-5.5v-3.75H15.75z M4.75,18.75   V7.25h16.5v11.5H4.75z M10.25,6.25V2.5h5.5v3.75H10.25z M21.25,6.25h-5V2.5h5V6.25z M9.75,2.5v3.75h-5V2.5H9.75z M4.75,19.75h5   v3.75h-5V19.75z M16.25,23.5v-3.75h5v3.75H16.25z" fill="#1D1D1B"/><circle cx="13" cy="4.25" fill="#1D1D1B" r="0.625"/><circle cx="13" cy="21.75" fill="#1D1D1B" r="0.625"/><circle cx="19" cy="4.25" fill="#1D1D1B" r="0.625"/><circle cx="19" cy="21.75" fill="#1D1D1B" r="0.625"/><circle cx="7" cy="4.25" fill="#1D1D1B" r="0.625"/><circle cx="7" cy="21.75" fill="#1D1D1B" r="0.625"/><path d="M7.25,14.5c-0.8466797,0-1.5351563,0.6884766-1.5351563,1.5351563S6.4033203,17.5712891,7.25,17.5712891   s1.5351563-0.6894531,1.5351563-1.5361328S8.0966797,14.5,7.25,14.5z M7.25,16.5712891   c-0.2949219,0-0.5351563-0.2402344-0.5351563-0.5361328C6.7148438,15.7402344,6.9550781,15.5,7.25,15.5   s0.5351563,0.2402344,0.5351563,0.5351563C7.7851563,16.3310547,7.5449219,16.5712891,7.25,16.5712891z" fill="#1D1D1B"/><path d="M6,10.2626953c0.2763672,0,0.5-0.2236328,0.5-0.5v-1c0-0.2763672-0.2236328-0.5-0.5-0.5   s-0.5,0.2236328-0.5,0.5v1C5.5,10.0390625,5.7236328,10.2626953,6,10.2626953z" fill="#1D1D1B"/><path d="M6.5,12.2626953v-1c0-0.2763672-0.2236328-0.5-0.5-0.5s-0.5,0.2236328-0.5,0.5v1   c0,0.2763672,0.2236328,0.5,0.5,0.5S6.5,12.5390625,6.5,12.2626953z" fill="#1D1D1B"/></g></svg>