<?xml version="1.0" ?><!DOCTYPE svg  PUBLIC '-//W3C//DTD SVG 1.1//EN'  'http://www.w3.org/Graphics/SVG/1.1/DTD/svg11.dtd'><svg enable-background="new 0 0 26 26" id="Слой_1" version="1.1" viewBox="0 0 26 26" xml:space="preserve" xmlns="http://www.w3.org/2000/svg" xmlns:xlink="http://www.w3.org/1999/xlink"><g><path d="M10.9978638,10.6875c-0.003418-0.000061-0.0061646-0.0019531-0.0095825-0.0019531   c-0.001709,0-0.0031128,0.0009766-0.0048218,0.0009766c-0.1777344-0.0177002-0.3577881-0.0273438-0.5401001-0.0273438   c-2.9824219,0-5.4091797,2.4267578-5.4091797,5.4091797s2.4267578,5.4091797,5.4091797,5.4091797   s5.4091797-2.4267578,5.4091797-5.4091797C15.8525391,13.2731323,13.7208252,10.9660645,10.9978638,10.6875z    M11.4882813,20.3388672v-0.2744141c0-0.2763672-0.2236328-0.5-0.5-0.5H9.8974609   c-0.1328125,0-0.2597656,0.0527344-0.3535156,0.1464844c-0.09375,0.0947266-0.1464844,0.2216797-0.1464844,0.3544922   l0.0006104,0.2733154c-1.9259033-0.47229-3.3638916-2.2006836-3.3638916-4.2703857   c0-2.069519,1.4376221-3.7977295,3.3632813-4.2702026v0.3004761c0,0.2763672,0.2236328,0.5,0.5,0.5h1.0908203   c0.2763672,0,0.5-0.2236328,0.5-0.5v-0.3007813c1.9262085,0.472168,3.3642578,2.2006226,3.3642578,4.2705078   S13.4144897,19.8666992,11.4882813,20.3388672z" fill="#1D1D1B"/><path d="M8.4433594,15.2041016c-0.4765625,0-0.8642578,0.3876953-0.8642578,0.8642578   c0,0.4755859,0.3876953,0.8632813,0.8642578,0.8632813c0.4755859,0,0.8632813-0.3876953,0.8632813-0.8632813   C9.3066406,15.5917969,8.9189453,15.2041016,8.4433594,15.2041016z M8.3066406,16.0683594   c0-0.0751953,0.0615234-0.1367188,0.1367188-0.1367188s0.1357422,0.0615234,0.1357422,0.1367188   C8.5791016,16.21875,8.3066406,16.21875,8.3066406,16.0683594z" fill="#1D1D1B"/><path d="M12.4433594,15.2041016c-0.4765625,0-0.8642578,0.3876953-0.8642578,0.8642578   c0,0.4755859,0.3876953,0.8632813,0.8642578,0.8632813c0.4755859,0,0.8632813-0.3876953,0.8632813-0.8632813   C13.3066406,15.5917969,12.9189453,15.2041016,12.4433594,15.2041016z M12.3066406,16.0683594   c0-0.0751953,0.0615234-0.1367188,0.1367188-0.1367188s0.1357422,0.0615234,0.1357422,0.1367188   C12.5791016,16.21875,12.3066406,16.21875,12.3066406,16.0683594z" fill="#1D1D1B"/><path d="M21.5566406,1h-12C7.9404297,1,6.625,2.3154297,6.625,3.9316406v3.2050781H4.4433594   c-1.6162109,0-2.9316406,1.3154297-2.9316406,2.9316406v12C1.5117188,23.6845703,2.8271484,25,4.4433594,25h12   C18.0595703,25,19.375,23.6845703,19.375,22.0683594v-3.2050781h2.1816406c1.6162109,0,2.9316406-1.3154297,2.9316406-2.9316406   v-12C24.4882813,2.3154297,23.1728516,1,21.5566406,1z M17.875,22.0683594C17.875,22.8574219,17.2324219,23.5,16.4433594,23.5h-12   c-0.7890625,0-1.4316406-0.6425781-1.4316406-1.4316406v-12c0-0.7890625,0.6425781-1.4316406,1.4316406-1.4316406h12   c0.7890625,0,1.4316406,0.6425781,1.4316406,1.4316406V22.0683594z M19.8232422,4.6132813   c0.5800781,0,1.0517578,0.4716797,1.0517578,1.0517578v8.5332031c0,0.5800781-0.4716797,1.0517578-1.0517578,1.0517578H19.375   v-5.1816406c0-1.6162109-1.3154297-2.9316406-2.9316406-2.9316406h-0.3867188V4.6132813H19.8232422z M15.0566406,7.1367188   h-4.8183594V5.6650391c0-0.5800781,0.4716797-1.0517578,1.0517578-1.0517578h3.7666016V7.1367188z M22.9882813,15.9316406   c0,0.7890625-0.6425781,1.4316406-1.4316406,1.4316406H19.375V16.25h0.4482422   c1.1308594,0,2.0517578-0.9208984,2.0517578-2.0517578V5.6650391c0-1.1308594-0.9208984-2.0517578-2.0517578-2.0517578h-8.5332031   c-1.1308594,0-2.0517578,0.9208984-2.0517578,2.0517578v1.4716797H8.125V3.9316406C8.125,3.1425781,8.7675781,2.5,9.5566406,2.5h12   c0.7890625,0,1.4316406,0.6425781,1.4316406,1.4316406V15.9316406z" fill="#1D1D1B"/></g></svg>