<?xml version="1.0" ?><!DOCTYPE svg  PUBLIC '-//W3C//DTD SVG 1.1//EN'  'http://www.w3.org/Graphics/SVG/1.1/DTD/svg11.dtd'><svg enable-background="new 0 0 26 26" id="Слой_1" version="1.1" viewBox="0 0 26 26" xml:space="preserve" xmlns="http://www.w3.org/2000/svg" xmlns:xlink="http://www.w3.org/1999/xlink"><g><path d="M19.6682739,24.4707642c0.0092163-0.0292358,0.0262451-0.0540771,0.0319214-0.085022l1.0914917-5.9280396   c1.6639404-1.8553467,2.6858521-4.2976685,2.6858521-6.9801636C23.4775391,5.7001953,18.7773438,1,13,1   S2.5224609,5.7001953,2.5224609,11.4775391c0,2.6824951,1.0219116,5.1248169,2.6858521,6.9801636l1.0914917,5.9280396   c0.0056763,0.0309448,0.0227051,0.0557861,0.0319214,0.085022c0.0122681,0.0390625,0.0239258,0.0762329,0.0421143,0.1122437   c0.0247192,0.0493164,0.0559082,0.0917969,0.0901489,0.133728c0.0232544,0.0286255,0.0435791,0.0574951,0.0708008,0.0823975   c0.0438232,0.0400391,0.09375,0.069519,0.1456299,0.0982056c0.0281372,0.015625,0.0524292,0.0353394,0.0826416,0.0473022   C6.848999,24.9786987,6.9403687,25,7.0361328,25c0.0002441,0,0.0004272-0.000061,0.0006714-0.000061   C7.0369263,24.999939,7.0369873,25,7.0371094,25h11.9257813c0.0001221,0,0.0001831-0.000061,0.0003052-0.000061   C18.9634399,24.999939,18.963623,25,18.9638672,25c0.0957642,0,0.1871338-0.0213013,0.2730713-0.0553589   c0.0302124-0.0119629,0.0545044-0.0316772,0.0826416-0.0473022c0.0518799-0.0286865,0.1018066-0.0581665,0.1456299-0.0982056   c0.0272217-0.0249023,0.0475464-0.053772,0.0708008-0.0823975c0.0342407-0.0419312,0.0654297-0.0844116,0.0901489-0.133728   C19.6443481,24.5469971,19.6560059,24.5098267,19.6682739,24.4707642z M7.0311279,20.0772705   C8.7265625,21.2576904,10.7821045,21.9550781,13,21.9550781s4.2734375-0.6973877,5.9688721-1.8778076L18.3386841,23.5H7.6613159   L7.0311279,20.0772705z M13,2.5c4.9501953,0,8.9775391,4.0273438,8.9775391,8.9775391S17.9501953,20.4550781,13,20.4550781   s-8.9775391-4.0273438-8.9775391-8.9775391S8.0498047,2.5,13,2.5z" fill="#1D1D1B"/><path d="M15.25,14.4462891h-1.2001953v-2.2011719c0-0.2167969-0.1396484-0.4082031-0.3457031-0.4755859   c-0.2050781-0.0664063-0.4316406,0.0068359-0.5585938,0.1816406l-2.7998047,3.8486328   c-0.1103516,0.1523438-0.1269531,0.3535156-0.0410156,0.5205078C10.3896484,16.4882813,10.5615234,16.59375,10.75,16.59375   h1.2001953v2.2011719c0,0.2167969,0.1396484,0.4082031,0.3457031,0.4755859   c0.0507813,0.0166016,0.1025391,0.0244141,0.1542969,0.0244141c0.1572266,0,0.3085938-0.0742188,0.4042969-0.2060547   l2.7998047-3.8486328c0.1103516-0.1523438,0.1269531-0.3535156,0.0410156-0.5205078   C15.6103516,14.5517578,15.4384766,14.4462891,15.25,14.4462891z M12.9501953,17.2578125V16.09375   c0-0.2763672-0.2236328-0.5-0.5-0.5h-0.7177734l1.3173828-1.8115234v1.1640625c0,0.2763672,0.2236328,0.5,0.5,0.5h0.7177734   L12.9501953,17.2578125z" fill="#1D1D1B"/><path d="M8.0371094,10.5800781h9.9257813c0.8271484,0,1.5-0.6728516,1.5-1.5v-0.875   c0-0.8271484-0.6728516-1.5-1.5-1.5H8.0371094c-0.8271484,0-1.5,0.6728516-1.5,1.5v0.875   C6.5371094,9.9072266,7.2099609,10.5800781,8.0371094,10.5800781z M7.5371094,8.2050781c0-0.2753906,0.2246094-0.5,0.5-0.5   h9.9257813c0.2753906,0,0.5,0.2246094,0.5,0.5v0.875c0,0.2753906-0.2246094,0.5-0.5,0.5H8.0371094   c-0.2753906,0-0.5-0.2246094-0.5-0.5V8.2050781z" fill="#1D1D1B"/><path d="M13,9.3525391c0.2763672,0,0.5-0.2236328,0.5-0.5V8.4326172c0-0.2763672-0.2236328-0.5-0.5-0.5   s-0.5,0.2236328-0.5,0.5v0.4199219C12.5,9.1289063,12.7236328,9.3525391,13,9.3525391z" fill="#1D1D1B"/><path d="M15,9.3525391c0.2763672,0,0.5-0.2236328,0.5-0.5V8.4326172c0-0.2763672-0.2236328-0.5-0.5-0.5   s-0.5,0.2236328-0.5,0.5v0.4199219C14.5,9.1289063,14.7236328,9.3525391,15,9.3525391z" fill="#1D1D1B"/><path d="M17,9.3525391c0.2763672,0,0.5-0.2236328,0.5-0.5V8.4326172c0-0.2763672-0.2236328-0.5-0.5-0.5   s-0.5,0.2236328-0.5,0.5v0.4199219C16.5,9.1289063,16.7236328,9.3525391,17,9.3525391z" fill="#1D1D1B"/><path d="M11,9.3525391c0.2763672,0,0.5-0.2236328,0.5-0.5V8.4326172c0-0.2763672-0.2236328-0.5-0.5-0.5   s-0.5,0.2236328-0.5,0.5v0.4199219C10.5,9.1289063,10.7236328,9.3525391,11,9.3525391z" fill="#1D1D1B"/><path d="M9,9.3525391c0.2763672,0,0.5-0.2236328,0.5-0.5V8.4326172c0-0.2763672-0.2236328-0.5-0.5-0.5   s-0.5,0.2236328-0.5,0.5v0.4199219C8.5,9.1289063,8.7236328,9.3525391,9,9.3525391z" fill="#1D1D1B"/></g></svg>