<?xml version="1.0" ?><svg enable-background="new 0 0 26 26" id="Слой_1" version="1.1" viewBox="0 0 26 26" xml:space="preserve" xmlns="http://www.w3.org/2000/svg" xmlns:xlink="http://www.w3.org/1999/xlink"><path d="M18.6362915,10.1231079c0.024231-0.0410767,0.0476074-0.0803223,0.0637817-0.1259155  c0.0168457-0.0473022,0.022644-0.0961914,0.0296631-0.1469116C18.7344971,9.81604,18.75,9.7855835,18.75,9.75  c0-0.0164185-0.0083008-0.0301514-0.0093384-0.0463257c-0.0009766-0.0161133,0.0055542-0.0307007,0.003479-0.046936l-1-8  c-0.0043335-0.034668-0.0233154-0.0622559-0.0321655-0.0950317c-0.0134888-0.0507813-0.026062-0.0997314-0.0493774-0.1456909  c-0.0202637-0.039856-0.0462036-0.0731201-0.072937-0.1082153c-0.0321655-0.0428467-0.0636597-0.0831909-0.104126-0.1182251  c-0.0311279-0.0267944-0.0652466-0.0462036-0.1003418-0.067688c-0.0467529-0.0288086-0.0924683-0.0552979-0.1453247-0.0734253  c-0.0426025-0.0147705-0.0863647-0.0195313-0.1315308-0.0265503C17.0714722,1.0162964,17.0384521,1,17,1H9  C8.9660034,1,8.9369507,1.0149536,8.9041748,1.0193481C8.8511963,1.0263062,8.8002319,1.0326538,8.7508545,1.050354  C8.7075806,1.0657959,8.6704712,1.0880737,8.6312256,1.1108398c-0.0438232,0.0253906-0.0857544,0.0496826-0.1235962,0.083313  C8.4726563,1.2250977,8.4458008,1.2609253,8.4170532,1.2978516c-0.0302124,0.0388184-0.059082,0.0760498-0.0813599,0.1206665  c-0.0222778,0.0444336-0.0339355,0.0917969-0.0471191,0.140686C8.279541,1.5927734,8.2602539,1.6212769,8.2558594,1.6567383l-1,8  c-0.0020142,0.0162354,0.0044556,0.0308228,0.003479,0.046936C7.2583008,9.7198486,7.25,9.7335815,7.25,9.75  c0,0.0356445,0.0155029,0.0662231,0.0203247,0.1005859c0.007019,0.0504761,0.0128174,0.0993042,0.0296021,0.1464233  c0.0161743,0.0457153,0.0396118,0.085022,0.0639038,0.1262207c0.0245361,0.041748,0.0476074,0.0819092,0.0796509,0.1181641  c0.0319214,0.0361328,0.0689087,0.0639648,0.1071777,0.0934448c0.0378418,0.0291748,0.0739136,0.0574341,0.1173096,0.0791016  c0.0449829,0.022644,0.0929565,0.0344849,0.1425171,0.0477905c0.0333252,0.0089722,0.0615234,0.0280151,0.0967407,0.0324097  c0.0307617,0.0038452,0.0615845,0.0057983,0.0923462,0.0057983C7.9997559,10.499939,7.9998169,10.5,8,10.5h4.25v13H10  c-0.4140625,0-0.75,0.3359375-0.75,0.75S9.5859375,25,10,25h6c0.4140625,0,0.75-0.3359375,0.75-0.75S16.4140625,23.5,16,23.5h-2.25  v-13H18c0.0001831,0,0.0002441-0.000061,0.0004272-0.000061c0.0307617,0,0.0615845-0.0019531,0.0923462-0.0057983  c0.0352173-0.0043945,0.0634766-0.0234375,0.0968018-0.0324097c0.0494995-0.0133057,0.0974731-0.0250854,0.142395-0.0477295  c0.043457-0.0217896,0.0796509-0.0499878,0.1175537-0.0792847c0.038208-0.0294189,0.0750732-0.0571899,0.1069336-0.0933228  C18.588562,10.2051392,18.6116943,10.164917,18.6362915,10.1231079z M8.8495483,9l0.8125-6.5h6.6759033l0.8125,6.5H8.8495483z" fill="#1D1D1B"/></svg>