<?xml version="1.0" ?><svg enable-background="new 0 0 26 26" id="Слой_1" version="1.1" viewBox="0 0 26 26" xml:space="preserve" xmlns="http://www.w3.org/2000/svg" xmlns:xlink="http://www.w3.org/1999/xlink"><path d="M19.5733643,6.5444946l-0.8634033-2.5361938c-0.0030518-0.0088501-0.0101929-0.0145874-0.0134888-0.0232544  c-0.0187988-0.0494385-0.0491943-0.0900879-0.0775757-0.1339111c-0.0255127-0.0396729-0.0460815-0.0819092-0.0778809-0.1154785  c-0.0280762-0.029541-0.0635986-0.0488281-0.0961304-0.0734863c-0.0446167-0.0338135-0.0863647-0.0695801-0.1372681-0.0925903  c-0.0332642-0.0150757-0.0704346-0.0186768-0.1060791-0.0288696c-0.0582275-0.0166016-0.1149292-0.0338135-0.1767578-0.0357056  C18.0160522,3.5046997,18.0087891,3.5,18,3.5h-2.75V3.25C15.25,2.0092773,14.2402344,1,13,1s-2.25,1.0092773-2.25,2.25V3.5H8  c-0.0094604,0-0.0172729,0.0050049-0.0266113,0.0053711c-0.062439,0.0019531-0.119812,0.019043-0.1785889,0.0360718  C7.7599487,3.5515747,7.7237549,3.555542,7.6912231,3.5703735C7.6390381,3.5941162,7.5958252,3.630249,7.550293,3.6654053  C7.519104,3.6894531,7.4851685,3.708374,7.4581299,3.7369385c-0.0334473,0.0354004-0.055542,0.0794067-0.0819702,0.121521  C7.3497314,3.9003296,7.321167,3.9390869,7.3033447,3.9860229C7.2995605,3.9959106,7.2914429,4.0025635,7.2880859,4.0126953  L6.4446411,6.5430908C4.4390869,6.7538452,3.25,8.0970459,3.25,10.25C3.25,10.6640625,3.5859375,11,4,11h0.3936157  l2.8729858,13.4072266c0.0058594,0.0272827,0.0216675,0.0488281,0.0302734,0.074707  c0.012146,0.0367432,0.0250244,0.0710449,0.0424805,0.1050415c0.0256348,0.0501709,0.0567017,0.0942383,0.0921631,0.1365967  c0.0227051,0.0272217,0.0431519,0.0539551,0.0693359,0.0776978c0.0442505,0.039978,0.0938721,0.0701294,0.1461792,0.0985718  c0.02771,0.0151367,0.0517578,0.0337524,0.0813599,0.0452881C7.8138428,24.9786377,7.9042969,25,7.9990234,25  c0.0002441,0,0.0004272-0.000061,0.0006714-0.000061C7.9998169,24.999939,7.9998779,25,8,25h10  c0.0001221,0,0.0001831-0.000061,0.0003052-0.000061C18.0005493,24.999939,18.0007324,25,18.0009766,25  c0.0947266,0,0.1851807-0.0213623,0.2706299-0.0548706c0.0296021-0.0115356,0.0536499-0.0301514,0.0813599-0.0452881  c0.0523071-0.0284424,0.1019287-0.0585938,0.1461792-0.0985718c0.0261841-0.0237427,0.0466309-0.0504761,0.0693359-0.0776978  c0.0354614-0.0423584,0.0665283-0.0864258,0.0921631-0.1365967c0.0174561-0.0339966,0.0303345-0.0682983,0.0424805-0.1050415  c0.008606-0.0258789,0.0244141-0.0474243,0.0302734-0.074707L21.6063843,11H22c0.4140625,0,0.75-0.3359375,0.75-0.75  C22.75,8.1033936,21.5681152,6.7613525,19.5733643,6.5444946z M8.5410156,5h8.9220581l0.5106201,1.5H8.0410156L8.5410156,5z M13,2.5  c0.4130859,0,0.75,0.3364258,0.75,0.75V3.5h-1.5V3.25C12.25,2.8364258,12.5869141,2.5,13,2.5z M7,8h12  c1.2549438,0,1.953125,0.4869995,2.1693726,1.5H4.8306274C5.046875,8.4869995,5.7450562,8,7,8z M15.664978,11l-1.3392944,12.5  h-2.6513672L10.335022,11H15.664978z M8.8256836,11l1.3392944,12.5H8.6063843L5.9277954,11H8.8256836z M17.3936157,23.5H15.835022  L17.1743164,11h2.8978882L17.3936157,23.5z" fill="#1D1D1B"/></svg>