<?xml version="1.0" ?><svg enable-background="new 0 0 26 26" id="Слой_1" version="1.1" viewBox="0 0 26 26" xml:space="preserve" xmlns="http://www.w3.org/2000/svg" xmlns:xlink="http://www.w3.org/1999/xlink"><g><path d="M24.8843994,12.8758545c0.0266113-0.0446777,0.0506592-0.0883789,0.067627-0.1383667   c0.0167236-0.0494995,0.0241089-0.0980835,0.0301514-0.1491089C24.9859009,12.5580444,25,12.531311,25,12.5   c0-0.0168457-0.0084839-0.0309448-0.0095825-0.0474854c-0.0033569-0.0526733-0.0164795-0.1014404-0.0307617-0.1522827   c-0.0125732-0.0443726-0.0229492-0.0877075-0.0430298-0.1283569c-0.0206909-0.0423584-0.0498047-0.0783691-0.0787354-0.1166382   c-0.0309448-0.0408325-0.0606079-0.079834-0.0991211-0.1135254c-0.0128174-0.0112305-0.0189819-0.0269165-0.0327148-0.0374146   l-3.9331055-3.0139771V5.4228516c0-0.4140625-0.3359375-0.75-0.75-0.75h-2.206543c-0.4140625,0-0.75,0.3359375-0.75,0.75v0.486084   L13.362793,2.9169922c-0.2744141-0.2226563-0.6679688-0.2226563-0.9423828,0l-11.1416016,9   c-0.0103149,0.0083008-0.0145264,0.0205688-0.024292,0.0292969c-0.039978,0.0357666-0.0695801,0.0783081-0.1011353,0.1218262   c-0.0266113,0.0368652-0.055603,0.0706787-0.0748291,0.1110229c-0.0196533,0.0409546-0.0279541,0.0854492-0.039978,0.1300659   c-0.0136719,0.0510254-0.0280762,0.0999146-0.0308228,0.1525269C1.007019,12.4751587,1,12.4864502,1,12.5   c0,0.0338135,0.0149536,0.0626831,0.0192871,0.0953369c0.0066528,0.0521851,0.0130615,0.102478,0.0308228,0.152832   c0.017334,0.0488892,0.0432739,0.0906372,0.0699463,0.1342773c0.0175781,0.0291138,0.0244751,0.0620117,0.0464478,0.0892334   c0.0081177,0.0099487,0.0205078,0.0131836,0.0289917,0.022644c0.052063,0.0584106,0.1146851,0.1027832,0.1824951,0.1426392   c0.0234985,0.0136719,0.0424194,0.0342407,0.0670166,0.0452271C1.5386353,13.2241821,1.6407471,13.25,1.75,13.25h2.5v0.234375V22.5   c0,0.4140625,0.3359375,0.75,0.75,0.75h16c0.4140625,0,0.75-0.3359375,0.75-0.75v-9.015625V13.25h2.5   c0.1112671,0,0.2147217-0.0274658,0.3096924-0.0709839c0.0256958-0.0116577,0.0454102-0.0324097,0.0697632-0.0470581   c0.0686646-0.0414429,0.1306763-0.0883789,0.1826782-0.1489258c0.0096436-0.0111694,0.0239868-0.0151367,0.0330811-0.0269775   C24.8640747,12.9313965,24.8690186,12.9019165,24.8843994,12.8758545z M5.75,13.484375V12.5c0-0.4140625-0.3359375-0.75-0.75-0.75   H3.87146l9.0201416-7.2861328l4.4536133,3.5976563c0.0255127,0.0206299,0.0565186,0.0269165,0.0838013,0.0436401   c0.0457764,0.0285034,0.0900269,0.055542,0.1416626,0.0737305c0.0471191,0.0164795,0.0941772,0.0221558,0.1430054,0.0288696   c0.0350342,0.0050049,0.0662842,0.020752,0.1027222,0.020752c0.0146484,0,0.0268555-0.0075073,0.0413208-0.0083618   c0.0485229-0.0027466,0.0936279-0.0164185,0.1408691-0.0284424c0.0485229-0.0124512,0.0964966-0.0216675,0.140686-0.0430298   c0.0390625-0.0186157,0.0717163-0.046936,0.1074829-0.0725098c0.0435791-0.0314941,0.0864868-0.06073,0.1223755-0.100647   c0.0092163-0.0101318,0.0220337-0.0145874,0.0307617-0.0253296c0.0219727-0.0272217,0.0288696-0.0601196,0.0464478-0.0892334   c0.0266724-0.0436401,0.0526123-0.0853882,0.0699463-0.1342773c0.0177612-0.050354,0.0241699-0.100647,0.0308228-0.152832   c0.0043335-0.0326538,0.0192871-0.0615234,0.0192871-0.0953369V6.1728516h0.706543v3.0878906   c0,0.0168457,0.0084839,0.0308838,0.0095825,0.0474854c0.0033569,0.0526123,0.0165405,0.1013794,0.0307617,0.1521606   c0.0125732,0.0444946,0.0229492,0.0878906,0.0431519,0.1286011c0.0206909,0.0421753,0.0496216,0.078125,0.0784302,0.116333   c0.0310059,0.0408936,0.06073,0.0800171,0.0993042,0.1137085c0.0128174,0.0112305,0.0189819,0.0269165,0.0327148,0.0374146   L22.0379028,11.75H21c-0.4140625,0-0.75,0.3359375-0.75,0.75v0.984375V21.75H5.75V13.484375z" fill="#1D1D1B"/><path d="M13,11.8935547c-1.4169922,0-2.5698242,1.1533203-2.5698242,2.5703125   c0,1.1650391,0.565918,1.7675781,0.824707,2.0351563c0.1069336,0.1542969,0.2084961,0.2988281,0.2084961,0.6748047v0.4951172   c0,0.2214966,0.1055298,0.4108276,0.2602539,0.5394287v0.6226807c0,0.1240234,0.0458984,0.2431641,0.128418,0.3349609   l0.3774414,0.4189453C12.3242188,19.6894531,12.4594727,19.75,12.6010742,19.75h0.7978516   c0.1416016,0,0.2768555-0.0605469,0.371582-0.1650391l0.3774414-0.4189453   c0.0825195-0.0917969,0.128418-0.2109375,0.128418-0.3349609v-0.6231079   c0.1547852-0.1286011,0.2602539-0.317749,0.2602539-0.5390015v-0.4951172c0-0.3759766,0.1015625-0.5205078,0.1635742-0.6191406   c0.3037109-0.3232422,0.8696289-0.9257813,0.8696289-2.0908203C15.5698242,13.046875,14.4169922,11.8935547,13,11.8935547z    M13.2763672,18.6386719L13.1762695,18.75h-0.3525391l-0.1000977-0.1113281v-0.2685547h0.5527344V18.6386719z    M13.9257813,15.9267578c-0.1455078,0.2080078-0.3891602,0.5566406-0.3891602,1.2470703v0.1962891h-1.0732422v-0.1962891   c0-0.6904297-0.2436523-1.0390625-0.434082-1.3027344c-0.2670898-0.2841797-0.5991211-0.6386719-0.5991211-1.4072266   c0-0.8662109,0.7041016-1.5703125,1.5698242-1.5703125s1.5698242,0.7041016,1.5698242,1.5703125   C14.5698242,15.2324219,14.237793,15.5869141,13.9257813,15.9267578z" fill="#1D1D1B"/><path d="M13,11.5771484c0.1381836,0,0.25-0.1123047,0.25-0.25V9.75c0-0.1376953-0.1118164-0.25-0.25-0.25   s-0.25,0.1123047-0.25,0.25v1.5771484C12.75,11.4648438,12.8618164,11.5771484,13,11.5771484z" fill="#1D1D1B"/><path d="M14.8891602,12.1728516c0.0786133,0,0.15625-0.0371094,0.2045898-0.1064453l0.9047852-1.2919922   c0.0795898-0.1132813,0.0517578-0.2695313-0.0610352-0.3486328s-0.269043-0.0517578-0.3481445,0.0615234l-0.9047852,1.2919922   c-0.0795898,0.1132813-0.0517578,0.2695313,0.0610352,0.3486328   C14.7895508,12.1582031,14.8393555,12.1728516,14.8891602,12.1728516z" fill="#1D1D1B"/><path d="M10.90625,12.0664063c0.0483398,0.0693359,0.1259766,0.1064453,0.2045898,0.1064453   c0.0498047,0,0.0996094-0.0146484,0.1435547-0.0449219c0.112793-0.0791016,0.140625-0.2353516,0.0610352-0.3486328   l-0.9047852-1.2919922c-0.0791016-0.1132813-0.2348633-0.140625-0.3481445-0.0615234   c-0.112793,0.0791016-0.140625,0.2353516-0.0610352,0.3486328L10.90625,12.0664063z" fill="#1D1D1B"/><path d="M16.0947266,13.7441406c0.0283203,0,0.0571289-0.0048828,0.0854492-0.0146484l1.4824219-0.5390625   c0.1298828-0.0478516,0.1967773-0.1914063,0.1494141-0.3203125c-0.0463867-0.1298828-0.1894531-0.1962891-0.3203125-0.1503906   l-1.4824219,0.5390625c-0.1298828,0.0478516-0.1967773,0.1914063-0.1494141,0.3203125   C15.8964844,13.6806641,15.9926758,13.7441406,16.0947266,13.7441406z" fill="#1D1D1B"/><path d="M9.9907227,13.2587891l-1.4824219-0.5390625c-0.1303711-0.0449219-0.2739258,0.0205078-0.3203125,0.1503906   c-0.0473633,0.1289063,0.0195313,0.2724609,0.1494141,0.3203125l1.4824219,0.5390625   c0.0283203,0.0097656,0.0571289,0.0146484,0.0854492,0.0146484c0.1020508,0,0.1982422-0.0634766,0.2348633-0.1650391   C10.1875,13.4501953,10.1206055,13.3066406,9.9907227,13.2587891z" fill="#1D1D1B"/><path d="M9.7539063,15.2324219L8.2304688,15.640625c-0.1333008,0.0351563-0.2124023,0.1728516-0.1767578,0.3056641   c0.0302734,0.1123047,0.1313477,0.1855469,0.2416992,0.1855469c0.0214844,0,0.0429688-0.0029297,0.0649414-0.0087891   l1.5234375-0.4082031c0.1333008-0.0351563,0.2124023-0.1728516,0.1767578-0.3056641   C10.0244141,15.2753906,9.8901367,15.1972656,9.7539063,15.2324219z" fill="#1D1D1B"/><path d="M17.7695313,15.640625l-1.5234375-0.4082031c-0.1323242-0.0341797-0.2705078,0.0429688-0.3066406,0.1767578   c-0.0356445,0.1328125,0.043457,0.2705078,0.1767578,0.3056641l1.5234375,0.4082031   c0.0219727,0.0058594,0.043457,0.0087891,0.0649414,0.0087891c0.1103516,0,0.2114258-0.0732422,0.2416992-0.1855469   C17.9819336,15.8134766,17.902832,15.6757813,17.7695313,15.640625z" fill="#1D1D1B"/></g></svg>