<?xml version="1.0" ?><svg enable-background="new 0 0 26 26" id="Слой_1" version="1.1" viewBox="0 0 26 26" xml:space="preserve" xmlns="http://www.w3.org/2000/svg" xmlns:xlink="http://www.w3.org/1999/xlink"><g><path d="M24.8843994,12.8758545c0.0266113-0.0446777,0.0506592-0.0883789,0.067627-0.1383667   c0.0167236-0.0494995,0.0241089-0.0980835,0.0301514-0.1491089C24.9859009,12.5580444,25,12.531311,25,12.5   c0-0.0168457-0.0084839-0.0309448-0.0095825-0.0474854c-0.0033569-0.0526733-0.0164795-0.1014404-0.0307617-0.1522827   c-0.0125732-0.0443726-0.0229492-0.0877075-0.0430298-0.1283569c-0.0206909-0.0423584-0.0498047-0.0783691-0.0787354-0.1166382   c-0.0309448-0.0408325-0.0606079-0.079834-0.0991211-0.1135254c-0.0128174-0.0112305-0.0189819-0.0269165-0.0327148-0.0374146   l-3.9331055-3.0139771V5.4228516c0-0.4140625-0.3359375-0.75-0.75-0.75h-2.206543c-0.4140625,0-0.75,0.3359375-0.75,0.75v0.486084   L13.362793,2.9169922c-0.2744141-0.2226563-0.6679688-0.2226563-0.9423828,0l-11.1416016,9   c-0.0103149,0.0083008-0.0145264,0.0205688-0.024292,0.0292969c-0.039978,0.0357666-0.0695801,0.0783081-0.1011353,0.1218262   c-0.0266113,0.0368652-0.055603,0.0706787-0.0748291,0.1110229c-0.0196533,0.0409546-0.0279541,0.0854492-0.039978,0.1300659   c-0.0136719,0.0510254-0.0280762,0.0999146-0.0308228,0.1525269C1.007019,12.4751587,1,12.4864502,1,12.5   c0,0.0338135,0.0149536,0.0626831,0.0192871,0.0953369c0.0066528,0.0521851,0.0130615,0.102478,0.0308228,0.152832   c0.017334,0.0488892,0.0432739,0.0906372,0.0699463,0.1342773c0.0175781,0.0291138,0.0244751,0.0620117,0.0464478,0.0892334   c0.0081177,0.0099487,0.0205078,0.0131836,0.0289917,0.022644c0.052063,0.0584106,0.1146851,0.1027832,0.1824951,0.1426392   c0.0234985,0.0136719,0.0424194,0.0342407,0.0670166,0.0452271C1.5386353,13.2241821,1.6407471,13.25,1.75,13.25h2.5v0.234375V22.5   c0,0.4140625,0.3359375,0.75,0.75,0.75h16c0.4140625,0,0.75-0.3359375,0.75-0.75v-9.015625V13.25h2.5   c0.1112671,0,0.2147217-0.0274658,0.3096924-0.0709839c0.0256958-0.0116577,0.0454102-0.0324097,0.0697632-0.0470581   c0.0686646-0.0414429,0.1306763-0.0883789,0.1826782-0.1489258c0.0096436-0.0111694,0.0239868-0.0151367,0.0330811-0.0269775   C24.8640747,12.9313965,24.8690186,12.9019165,24.8843994,12.8758545z M5.75,13.484375V12.5c0-0.4140625-0.3359375-0.75-0.75-0.75   H3.87146l9.0201416-7.2861328l4.4536133,3.5976563c0.0255127,0.0205688,0.0563965,0.0267334,0.0836182,0.043457   c0.0458984,0.0285645,0.090271,0.0557251,0.1420898,0.0739746c0.0470581,0.0164185,0.0938721,0.0220947,0.1425781,0.0288086   c0.0350952,0.0050659,0.0664063,0.020752,0.1029053,0.020752c0.0146484,0,0.0269165-0.0075073,0.0413818-0.0083618   c0.0487061-0.0027466,0.093811-0.0164795,0.1411743-0.0285034c0.0483398-0.0124512,0.0961914-0.0216064,0.1402588-0.0429688   c0.0391846-0.0186768,0.0718384-0.0469971,0.1077271-0.0726318c0.0435181-0.0314331,0.0863037-0.0606689,0.1221313-0.1005249   c0.0092163-0.0101318,0.0220947-0.0145874,0.0308228-0.0253296c0.0219727-0.0272217,0.0288696-0.0601196,0.0464478-0.0892334   c0.0266724-0.0436401,0.0526123-0.0853882,0.0699463-0.1342773c0.0177612-0.050354,0.0241699-0.100647,0.0308228-0.152832   c0.0043335-0.0326538,0.0192871-0.0615234,0.0192871-0.0953369V6.1728516h0.706543v3.0878906   c0,0.0168457,0.0084839,0.0308838,0.0095825,0.0474854c0.0033569,0.0526123,0.0165405,0.1013794,0.0307617,0.1521606   c0.0125732,0.0444946,0.0229492,0.0878906,0.0431519,0.1286011c0.0206909,0.0421753,0.0496216,0.078125,0.0784302,0.116333   c0.0310059,0.0408936,0.06073,0.0800171,0.0993042,0.1137085c0.0128174,0.0112305,0.0189819,0.0269165,0.0327148,0.0374146   L22.0379028,11.75H21c-0.4140625,0-0.75,0.3359375-0.75,0.75v0.984375V21.75H5.75V13.484375z" fill="#1D1D1B"/><path d="M16.0917969,13.7109375h-1.8359375V10.5c0-0.2167969-0.1396484-0.4082031-0.3452148-0.4755859   c-0.2055664-0.0654297-0.4316406,0.0068359-0.559082,0.1816406l-3.8476563,5.2890625   c-0.1108398,0.1523438-0.1264648,0.3535156-0.0415039,0.5205078c0.0854492,0.1679688,0.2578125,0.2734375,0.4458008,0.2734375   h1.8359375V19.5c0,0.2167969,0.1396484,0.4082031,0.3452148,0.4755859C12.140625,19.9921875,12.1923828,20,12.2441406,20   c0.1567383,0,0.3085938-0.0742188,0.4042969-0.2060547l3.8476563-5.2890625   c0.1108398-0.1523438,0.1264648-0.3535156,0.0415039-0.5205078C16.4521484,13.8164063,16.2797852,13.7109375,16.0917969,13.7109375   z M12.7441406,17.9628906v-2.1738281c0-0.2763672-0.2236328-0.5-0.5-0.5h-1.3540039l2.3657227-3.2519531v2.1738281   c0,0.2763672,0.2236328,0.5,0.5,0.5h1.3540039L12.7441406,17.9628906z" fill="#1D1D1B"/></g></svg>