<?xml version="1.0" ?><svg enable-background="new 0 0 26 26" id="Слой_1" version="1.1" viewBox="0 0 26 26" xml:space="preserve" xmlns="http://www.w3.org/2000/svg" xmlns:xlink="http://www.w3.org/1999/xlink"><path d="M24.8949585,21.8602295c0.0230713-0.0410767,0.0428467-0.081543,0.0579224-0.1268921  c0.0160522-0.0480957,0.0238037-0.0964966,0.0298462-0.1478271C24.9862061,21.5561523,25,21.5303345,25,21.5  c0-0.0216675-0.010498-0.039917-0.0123291-0.0610962c-0.001709-0.0211182,0.0056152-0.0407104,0.0020752-0.0619507l-1-6  c-0.0049438-0.0297241-0.0227051-0.0526733-0.0309448-0.0809326c-0.0144653-0.0501099-0.0303345-0.0970459-0.0543823-0.1422119  c-0.0222168-0.0418701-0.0480957-0.078125-0.0772705-0.114563c-0.0308228-0.0386353-0.0622559-0.0734863-0.0999756-0.1052856  c-0.036438-0.0307617-0.074585-0.0549927-0.1161499-0.0783691c-0.0415039-0.0233765-0.0824585-0.043396-0.1283569-0.0585938  c-0.0487061-0.0164185-0.0977173-0.024231-0.1495972-0.0302124C23.3045044,14.7634888,23.27948,14.75,23.25,14.75H22v-9.5h1.5  c0.4140625,0,0.75-0.3359375,0.75-0.75s-0.3359375-0.75-0.75-0.75h-21c-0.4140625,0-0.75,0.3359375-0.75,0.75  S2.0859375,5.25,2.5,5.25H4v9.5H2.75c-0.0299072,0-0.0553589,0.0136108-0.0843506,0.0170288  c-0.0518799,0.0060425-0.1008911,0.0139771-0.1494751,0.0302124c-0.0449829,0.0149536-0.085083,0.0346069-0.1258545,0.0574341  c-0.0431519,0.0239868-0.0827637,0.0491333-0.1203003,0.0811157c-0.0359497,0.0305786-0.0657349,0.0640869-0.0953979,0.1008301  c-0.0304565,0.0376587-0.057312,0.0753174-0.0802002,0.1188965c-0.0234375,0.0443726-0.0387573,0.0904541-0.0529785,0.1394653  c-0.0083008,0.0285645-0.0261841,0.0518799-0.031189,0.0819702l-1,6c-0.00354,0.0212402,0.0037842,0.0408325,0.0020752,0.0618896  C1.010498,21.460083,1,21.4783325,1,21.5c0,0.0303955,0.0137939,0.0562744,0.017334,0.0857544  c0.0060425,0.0511475,0.0137329,0.0993652,0.0297852,0.1473389c0.0151367,0.0454712,0.0348511,0.0860596,0.0579834,0.1271973  c0.0238647,0.0427246,0.0487061,0.0819092,0.0803833,0.1192017c0.0307617,0.0361328,0.0643311,0.0661621,0.1012573,0.0959473  c0.0377808,0.0306396,0.0757446,0.0575562,0.1194458,0.0805664c0.043335,0.0228882,0.0881958,0.0379028,0.1360474,0.052002  c0.0292969,0.008728,0.0533447,0.0270386,0.0842285,0.0322266c0.0414429,0.0067749,0.0824585,0.0095215,0.1229248,0.0096436  C1.7496338,22.2498779,1.7497559,22.25,1.75,22.25h6c0.0002441,0,0.0003662-0.0001221,0.0006104-0.0001221  c0.0404663-0.0001221,0.0814819-0.0028687,0.1229248-0.0096436c0.0309448-0.005188,0.0549927-0.0234985,0.0842896-0.0322266  C8.0056152,22.1939087,8.050415,22.178894,8.09375,22.1560669c0.0438232-0.0230103,0.0817871-0.0500488,0.1196899-0.0807495  c0.0369263-0.0297241,0.0704346-0.0596924,0.1010742-0.0958252c0.0316772-0.0373535,0.0565796-0.0765381,0.0804443-0.1192627  c0.0230713-0.0410767,0.0428467-0.081543,0.0579224-0.1268921c0.0160522-0.0480957,0.0238037-0.0964966,0.0298462-0.1478271  C8.4862061,21.5561523,8.5,21.5303345,8.5,21.5c0-0.0216675-0.010498-0.039917-0.0123291-0.0610962  c-0.001709-0.0211182,0.0056152-0.0407104,0.0020752-0.0619507l-1-6c-0.0049438-0.0299683-0.0227661-0.0532227-0.0310669-0.081665  C7.444397,15.2459106,7.428833,15.199646,7.4052124,15.1550293c-0.0227051-0.0431519-0.0493164-0.0805054-0.0794678-0.1178589  C7.2958374,15,7.2657471,14.9663086,7.2294312,14.9354248c-0.0376587-0.0319824-0.0771484-0.0570679-0.1203003-0.0811157  c-0.0404663-0.022644-0.0802612-0.0420532-0.124939-0.0570068c-0.0491943-0.0166016-0.0986938-0.0245972-0.1512451-0.0305786  C6.8043823,14.7634277,6.7794189,14.75,6.75,14.75H5.5v-9.5h6.75v9.5H11c-0.0298462,0-0.0552368,0.0136108-0.0841675,0.0170288  c-0.0529785,0.0061035-0.1028442,0.0140381-0.1522217,0.0307007c-0.0429688,0.0145264-0.0813599,0.0333862-0.1204834,0.0550537  c-0.0453491,0.0249634-0.0869141,0.0513916-0.1260986,0.085083c-0.0340576,0.0292969-0.0622559,0.0612183-0.0905762,0.0960693  c-0.0315552,0.0388184-0.0594482,0.0778198-0.0828857,0.1229248c-0.0229492,0.0437012-0.0379028,0.0890503-0.052002,0.1373291  c-0.0084229,0.0288086-0.0262451,0.0523682-0.031311,0.0827637l-1,6c-0.00354,0.0212402,0.0037842,0.0408325,0.0020752,0.0618896  C9.260498,21.460083,9.25,21.4783325,9.25,21.5c0,0.0303955,0.0137939,0.0562744,0.017334,0.0857544  c0.0060425,0.0511475,0.0137329,0.0993652,0.0297852,0.1473389c0.0151367,0.0454712,0.0348511,0.0860596,0.0579834,0.1271973  c0.0238647,0.0427246,0.0487061,0.0819092,0.0803833,0.1192017c0.0307617,0.0361328,0.0643311,0.0661621,0.1012573,0.0959473  c0.0377808,0.0306396,0.0757446,0.0575562,0.1194458,0.0805664c0.043335,0.0228882,0.0881958,0.0379028,0.1360474,0.052002  c0.0292969,0.008728,0.0533447,0.0270386,0.0842285,0.0322266c0.0414429,0.0067749,0.0824585,0.0095215,0.1229248,0.0096436  C9.9996338,22.2498779,9.9997559,22.25,10,22.25h6c0.0002441,0,0.0003662-0.0001221,0.0006104-0.0001221  c0.0404663-0.0001221,0.0814819-0.0028687,0.1229248-0.0096436c0.0309448-0.005188,0.0549927-0.0234985,0.0842896-0.0322266  c0.0477905-0.0140991,0.0925903-0.0291138,0.1359253-0.0519409c0.0438232-0.0230103,0.0817871-0.0500488,0.1196899-0.0807495  c0.0369263-0.0297241,0.0704346-0.0596924,0.1010742-0.0958252c0.0316772-0.0373535,0.0565796-0.0765381,0.0804443-0.1192627  c0.0230713-0.0410767,0.0428467-0.081543,0.0579224-0.1268921c0.0160522-0.0480957,0.0238037-0.0964966,0.0298462-0.1478271  C16.7362061,21.5561523,16.75,21.5303345,16.75,21.5c0-0.0216675-0.010498-0.039917-0.0123291-0.0610962  c-0.001709-0.0211182,0.0056152-0.0407104,0.0020752-0.0619507l-1-6c-0.0050049-0.0299683-0.0227661-0.0532227-0.0310669-0.081665  c-0.0142822-0.0493774-0.0298462-0.0956421-0.0534668-0.1402588c-0.0227661-0.0432739-0.0494995-0.0808105-0.0797119-0.1182861  C15.5458984,15,15.5161133,14.9665527,15.4802246,14.9359741c-0.0380249-0.0325317-0.078186-0.0579224-0.1219482-0.0822144  c-0.039917-0.0222778-0.0791626-0.0415039-0.1231689-0.0562744c-0.0494995-0.0166626-0.0993042-0.0247803-0.1522217-0.0307617  C15.0543823,14.7634277,15.0293579,14.75,15,14.75h-1.25v-9.5h6.75v9.5h-1.25c-0.0299072,0-0.0552368,0.0136108-0.0842285,0.0170288  c-0.0524902,0.0061035-0.1020508,0.0140381-0.151123,0.0305176c-0.0438232,0.0147095-0.0828857,0.0338135-0.1226807,0.0560303  c-0.0444336,0.0245972-0.0852051,0.050354-0.1236572,0.083374c-0.0349121,0.0298462-0.0637817,0.0625-0.0927124,0.0982056  c-0.0310669,0.038269-0.0584106,0.0765991-0.081604,0.1210327c-0.0231934,0.0440063-0.0383301,0.0897217-0.0524902,0.1383667  c-0.0083618,0.0286865-0.0262451,0.052124-0.03125,0.0823975l-1,6c-0.00354,0.0212402,0.0037842,0.0408325,0.0020752,0.0618896  C17.510498,21.460083,17.5,21.4783325,17.5,21.5c0,0.0303955,0.0137939,0.0562744,0.017334,0.0857544  c0.0060425,0.0511475,0.0137329,0.0993652,0.0297852,0.1473389c0.0151367,0.0454712,0.0348511,0.0860596,0.0579834,0.1271973  c0.0238647,0.0427246,0.0487061,0.0819092,0.0803833,0.1192017c0.0307617,0.0361328,0.0643311,0.0661621,0.1012573,0.0959473  c0.0377808,0.0306396,0.0757446,0.0575562,0.1194458,0.0805664c0.043335,0.0228882,0.0881958,0.0379028,0.1360474,0.052002  c0.0292969,0.008728,0.0533447,0.0270386,0.0842285,0.0322266c0.0414429,0.0067749,0.0824585,0.0095215,0.1229248,0.0096436  C18.2496338,22.2498779,18.2497559,22.25,18.25,22.25h6c0.0002441,0,0.0003662-0.0001221,0.0006104-0.0001221  c0.0404663-0.0001221,0.0814819-0.0028687,0.1229248-0.0096436c0.0309448-0.005188,0.0549927-0.0234985,0.0842896-0.0322266  c0.0477905-0.0140991,0.0925903-0.0291138,0.1359253-0.0519409c0.0438232-0.0230103,0.0817871-0.0500488,0.1196899-0.0807495  c0.0369263-0.0297241,0.0704346-0.0596924,0.1010742-0.0958252C24.8461914,21.9421387,24.8710938,21.9029541,24.8949585,21.8602295z   M6.8647461,20.75H2.6352539l0.75-4.5h2.7294922L6.8647461,20.75z M15.1147461,20.75h-4.2294922l0.75-4.5h2.7294922  L15.1147461,20.75z M19.8852539,16.25h2.7294922l0.75,4.5h-4.2294922L19.8852539,16.25z" fill="#1D1D1B"/></svg>