<?xml version="1.0" ?><svg enable-background="new 0 0 26 26" id="Слой_1" version="1.1" viewBox="0 0 26 26" xml:space="preserve" xmlns="http://www.w3.org/2000/svg" xmlns:xlink="http://www.w3.org/1999/xlink"><path d="M24.9827881,6.1616821c-0.0058594-0.0478516-0.0122681-0.0933228-0.0269165-0.1383667  c-0.0063477-0.0197754-0.0057983-0.0405884-0.0137939-0.0599365c-0.0114136-0.0274658-0.0327759-0.0480957-0.0472412-0.0737915  c-0.0238037-0.0425415-0.048584-0.081543-0.0800781-0.1186523c-0.0133057-0.0157471-0.0198975-0.0366211-0.0344849-0.0512085l-2-2  c-0.0690918-0.0690918-0.1519775-0.1237793-0.2436523-0.1618042C22.4449463,3.5199585,22.3476563,3.5,22.25,3.5h-0.3004761  C21.8457031,3.2102051,21.5753784,3,21.25,3s-0.5957031,0.2102051-0.6995239,0.5H20.25  c-0.0976563,0-0.1949463,0.0199585-0.2866211,0.0579224c-0.0916138,0.0380249-0.1745605,0.0927124-0.2436523,0.1618042l-2,2  c-0.0145874,0.0145874-0.0211792,0.0354614-0.0345459,0.0512085c-0.0314331,0.0371094-0.0562134,0.0761108-0.0799561,0.1185913  c-0.0144653,0.0257568-0.0358887,0.0463257-0.0473022,0.0738525c-0.0080566,0.0194092-0.0075073,0.0402832-0.013855,0.0601196  c-0.0145874,0.0449219-0.0209351,0.09021-0.0267944,0.1379395c-0.0061035,0.0507202-0.0095215,0.0991211-0.0053101,0.1499634  c0.001709,0.0211792-0.0057373,0.0408325-0.0021973,0.0621338l1,6c0.0058594,0.0349731,0.024292,0.0634766,0.034668,0.0963745  c0.0117188,0.0372925,0.0217285,0.0733643,0.0388184,0.1079712c0.0253906,0.0515137,0.0580444,0.09552,0.09375,0.1390381  c0.0223389,0.0274048,0.0412598,0.0558472,0.0671997,0.079834c0.0449219,0.0415039,0.0966187,0.0718384,0.1502075,0.1013184  c0.0272217,0.0150146,0.050293,0.0345459,0.0794678,0.0461426C19.0602417,12.9786377,19.1523438,13,19.2490234,13  c0.0002441,0,0.0004272-0.000061,0.0006714-0.000061C19.2498169,12.999939,19.2498779,13,19.25,13h1.25v0.9099731l-6.75,1.6367798  V11H15c0.0001221,0,0.0001831-0.000061,0.0003052-0.000061C15.0005493,10.999939,15.0007324,11,15.0009766,11  c0.0966797,0,0.1888428-0.0213623,0.2752075-0.0557861c0.0289917-0.0115967,0.052124-0.0310669,0.0792236-0.0460205  c0.0537109-0.02948,0.1054688-0.0598755,0.1504517-0.1014404c0.0258789-0.0239258,0.0446777-0.0522461,0.0670166-0.0796509  c0.0357666-0.0436401,0.0685425-0.0877075,0.0939941-0.1393433c0.0170288-0.0344849,0.0270386-0.0704956,0.0386963-0.107666  c0.010376-0.032959,0.0288086-0.0615234,0.034668-0.0965576l1-6c0.00354-0.0213623-0.0039063-0.0410156-0.0021973-0.0621948  c0.0042114-0.0507813,0.0007935-0.0990601-0.005249-0.1496582c-0.0058594-0.0478516-0.0122681-0.0933228-0.0269165-0.1383667  c-0.0063477-0.0197754-0.0057983-0.0405884-0.0137939-0.0599365c-0.0114136-0.0274658-0.0327759-0.0480957-0.0472412-0.0737915  c-0.0238037-0.0425415-0.048584-0.081543-0.0800781-0.1186523c-0.0133057-0.0157471-0.0198975-0.0366211-0.0344849-0.0512085l-2-2  c-0.0690918-0.0690918-0.1519775-0.1237793-0.2436523-0.1618042C14.1949463,1.5199585,14.0976563,1.5,14,1.5h-0.3004761  C13.5957031,1.2102051,13.3253784,1,13,1s-0.5957031,0.2102051-0.6995239,0.5H12  c-0.0976563,0-0.1949463,0.0199585-0.2866211,0.0579224c-0.0916138,0.0380249-0.1745605,0.0927124-0.2436523,0.1618042l-2,2  C9.4551392,3.734314,9.4485474,3.755188,9.4351807,3.7709351C9.4037476,3.8080444,9.3789673,3.8470459,9.3552246,3.8895264  C9.3407593,3.9152832,9.3193359,3.9358521,9.3079224,3.9633789C9.2998657,3.9827881,9.300415,4.0036621,9.2940674,4.0234985  C9.27948,4.0684204,9.2731323,4.1137085,9.2672729,4.161438C9.2611694,4.2121582,9.2577515,4.2605591,9.2619629,4.3114014  c0.001709,0.0211792-0.0057373,0.0408325-0.0021973,0.0621338l1,6c0.0058594,0.0349731,0.024292,0.0634766,0.034668,0.0963745  c0.0117188,0.0372925,0.0217285,0.0733643,0.0388184,0.1079712c0.0253906,0.0515137,0.0580444,0.09552,0.09375,0.1390381  c0.0223389,0.0274048,0.0412598,0.0558472,0.0671997,0.079834c0.0449219,0.0415039,0.0966187,0.0718384,0.1502075,0.1013184  c0.0272217,0.0150146,0.050293,0.0345459,0.0794678,0.0461426C10.8102417,10.9786377,10.9023438,11,10.9990234,11  c0.0002441,0,0.0004272-0.000061,0.0006714-0.000061C10.9998169,10.999939,10.9998779,11,11,11h1.25v4.5467529L5.5,13.9099731V13  h1.25c0.0001221,0,0.0001831-0.000061,0.0003052-0.000061C6.7505493,12.999939,6.7507324,13,6.7509766,13  c0.0966797,0,0.1888428-0.0213623,0.2752075-0.0557861c0.0289917-0.0115967,0.052124-0.0310669,0.0792236-0.0460205  c0.0537109-0.02948,0.1054688-0.0598755,0.1504517-0.1014404c0.0258789-0.0239258,0.0446777-0.0522461,0.0670166-0.0796509  c0.0357666-0.0436401,0.0685425-0.0877075,0.0939941-0.1393433c0.0170288-0.0344849,0.0270386-0.0704956,0.0386963-0.107666  c0.010376-0.032959,0.0288086-0.0615234,0.034668-0.0965576l1-6c0.00354-0.0213623-0.0039063-0.0410156-0.0021973-0.0621948  c0.0042114-0.0507813,0.0007935-0.0990601-0.005249-0.1496582C8.4769287,6.1138306,8.47052,6.0683594,8.4558716,6.0233154  C8.4495239,6.00354,8.4500732,5.9827271,8.4420776,5.9633789C8.4306641,5.9359131,8.4093018,5.9152832,8.3948364,5.8895874  c-0.0238037-0.0425415-0.048584-0.081543-0.0800781-0.1186523C8.3014526,5.755188,8.2948608,5.734314,8.2802734,5.7197266l-2-2  C6.2111816,3.6506348,6.1282959,3.5959473,6.0366211,3.5579224C5.9449463,3.5199585,5.8476563,3.5,5.75,3.5H5.4495239  C5.3457031,3.2102051,5.0753784,3,4.75,3S4.1542969,3.2102051,4.0504761,3.5H3.75  c-0.0976563,0-0.1949463,0.0199585-0.2866211,0.0579224C3.3717651,3.5959473,3.2888184,3.6506348,3.2197266,3.7197266l-2,2  C1.2051392,5.734314,1.1985474,5.755188,1.1851807,5.7709351C1.1537476,5.8080444,1.1289673,5.8470459,1.1052246,5.8895264  C1.0907593,5.9152832,1.0693359,5.9358521,1.0579224,5.9633789C1.0498657,5.9827881,1.050415,6.0036621,1.0440674,6.0234985  C1.02948,6.0684204,1.0231323,6.1137085,1.0172729,6.161438C1.0111694,6.2121582,1.0077515,6.2605591,1.0119629,6.3114014  c0.001709,0.0211792-0.0057373,0.0408325-0.0021973,0.0621338l1,6c0.0058594,0.0349731,0.024292,0.0634766,0.034668,0.0963745  c0.0117188,0.0372925,0.0217285,0.0733643,0.0388184,0.1079712c0.0253906,0.0515137,0.0580444,0.09552,0.09375,0.1390381  c0.0223389,0.0274048,0.0412598,0.0558472,0.0671997,0.079834c0.0449219,0.0415039,0.0966187,0.0718384,0.1502075,0.1013184  c0.0272217,0.0150146,0.050293,0.0345459,0.0794678,0.0461426C2.5602417,12.9786377,2.6523438,13,2.7490234,13  c0.0002441,0,0.0004272-0.000061,0.0006714-0.000061C2.7498169,12.999939,2.7498779,13,2.75,13H4v1.5  c0,0.0215454,0.010498,0.0396729,0.0122681,0.06073c0.0042114,0.0507813,0.0152588,0.0973511,0.0293579,0.1454468  c0.0136719,0.0466919,0.0274658,0.0908813,0.0494995,0.1333618c0.0216064,0.0419312,0.0484619,0.0778198,0.0775757,0.1150513  c0.0304565,0.0388794,0.0604858,0.0751343,0.0979004,0.1072998c0.0344849,0.0298462,0.0723877,0.0524292,0.1124268,0.0758057  c0.0452271,0.0264282,0.0900269,0.0491943,0.140686,0.0657959c0.019165,0.0063477,0.0335693,0.0202026,0.0535278,0.0250244  L12.25,17.0895386V24.25c0,0.4140625,0.3359375,0.75,0.75,0.75s0.75-0.3359375,0.75-0.75v-7.1604614l7.6767578-1.8610229  c0.0199585-0.0048218,0.0344238-0.0186768,0.0535889-0.0250244c0.0505981-0.0166016,0.0953369-0.0393066,0.140564-0.0657349  c0.0401611-0.0233765,0.078064-0.0461426,0.1126099-0.0759888c0.0373535-0.0321045,0.0673218-0.0681763,0.0977173-0.1070557  c0.0291138-0.0372314,0.0560303-0.0732422,0.0776978-0.1152344c0.0219116-0.0423584,0.0357666-0.0864258,0.0493774-0.1330566  c0.0141602-0.0482178,0.0252686-0.0949707,0.02948-0.145874C21.989563,14.5395508,22,14.5214844,22,14.5V13h1.25  c0.0001221,0,0.0001831-0.000061,0.0003052-0.000061C23.2505493,12.999939,23.2507324,13,23.2509766,13  c0.0966797,0,0.1888428-0.0213623,0.2752075-0.0557861c0.0289917-0.0115967,0.052124-0.0310669,0.0792236-0.0460205  c0.0537109-0.02948,0.1054688-0.0598755,0.1504517-0.1014404c0.0258789-0.0239258,0.0446777-0.0522461,0.0670166-0.0796509  c0.0357666-0.0436401,0.0685425-0.0877075,0.0939941-0.1393433c0.0170288-0.0344849,0.0270386-0.0704956,0.0386963-0.107666  c0.010376-0.032959,0.0288086-0.0615234,0.034668-0.0965576l1-6c0.00354-0.0213623-0.0039063-0.0410156-0.0021973-0.0621948  C24.9922485,6.2605591,24.9888306,6.2122803,24.9827881,6.1616821z M12.3105469,3h1.3789063l0.5,0.5h-2.3789063L12.3105469,3z   M14.3641968,9.5H13.5V5h1.6141968L14.3641968,9.5z M10.8858032,5H12.5v4.5h-0.8641968L10.8858032,5z M4.0605469,5h1.3789063  l0.5,0.5H3.5605469L4.0605469,5z M6.1141968,11.5H5.25V7h1.6141968L6.1141968,11.5z M2.6358032,7H4.25v4.5H3.3858032L2.6358032,7z   M22.6141968,11.5H21.75V7h1.6141968L22.6141968,11.5z M20.5605469,5h1.3789063l0.5,0.5h-2.3789063L20.5605469,5z M19.1358032,7  H20.75v4.5h-0.8641968L19.1358032,7z" fill="#1D1D1B"/></svg>