<?xml version="1.0" ?><svg enable-background="new 0 0 26 26" id="Слой_1" version="1.1" viewBox="0 0 26 26" xml:space="preserve" xmlns="http://www.w3.org/2000/svg" xmlns:xlink="http://www.w3.org/1999/xlink"><path d="M16.7327881,4.1616821c-0.0058594-0.0478516-0.0122681-0.0933228-0.0269165-0.1383667  c-0.0063477-0.0197754-0.0057983-0.0405884-0.0137939-0.0599365c-0.0114136-0.0274658-0.0327759-0.0480957-0.0472412-0.0737915  c-0.0238037-0.0425415-0.048584-0.081543-0.0800781-0.1186523c-0.0133057-0.0157471-0.0198975-0.0366211-0.0344849-0.0512085l-2-2  c-0.0690918-0.0690918-0.1519775-0.1237793-0.2436523-0.1618042C14.1949463,1.5199585,14.0976563,1.5,14,1.5h-0.3004761  C13.5957031,1.2102051,13.3253784,1,13,1s-0.5957031,0.2102051-0.6995239,0.5H12  c-0.0976563,0-0.1949463,0.0199585-0.2866211,0.0579224c-0.0916138,0.0380249-0.1745605,0.0927124-0.2436523,0.1618042l-2,2  C9.4551392,3.734314,9.4485474,3.755188,9.4351807,3.7709351C9.4037476,3.8080444,9.3789673,3.8470459,9.3552246,3.8895264  C9.3407593,3.9152832,9.3193359,3.9358521,9.3079224,3.9633789C9.2998657,3.9827881,9.300415,4.0036621,9.2940674,4.0234985  C9.27948,4.0684204,9.2731323,4.1137085,9.2672729,4.161438C9.2611694,4.2121582,9.2577515,4.2605591,9.2619629,4.3114014  c0.001709,0.0211792-0.0057373,0.0408325-0.0021973,0.0621338l1,6c0.0058594,0.0349731,0.024292,0.0634766,0.034668,0.0963745  c0.0117188,0.0372925,0.0217285,0.0733643,0.0388184,0.1079712c0.0253906,0.0515137,0.0580444,0.09552,0.09375,0.1390381  c0.0223389,0.0274048,0.0412598,0.0558472,0.0671997,0.079834c0.0449219,0.0415039,0.0966187,0.0718384,0.1502075,0.1013184  c0.0272217,0.0150146,0.050293,0.0345459,0.0794678,0.0461426C10.8102417,10.9786377,10.9023438,11,10.9990234,11  c0.0002441,0,0.0004272-0.000061,0.0006714-0.000061C10.9998169,10.999939,10.9998779,11,11,11h1.25v12.5H11.5  c-0.4140625,0-0.75,0.3359375-0.75,0.75S11.0859375,25,11.5,25h3c0.4140625,0,0.75-0.3359375,0.75-0.75s-0.3359375-0.75-0.75-0.75  h-0.75V11H15c0.0001221,0,0.0001831-0.000061,0.0003052-0.000061C15.0005493,10.999939,15.0007324,11,15.0009766,11  c0.0966797,0,0.1888428-0.0213623,0.2752075-0.0557861c0.0289917-0.0115967,0.052124-0.0310669,0.0792236-0.0460205  c0.0537109-0.02948,0.1054688-0.0598755,0.1504517-0.1014404c0.0258789-0.0239258,0.0446777-0.0522461,0.0670166-0.0796509  c0.0357666-0.0436401,0.0685425-0.0877075,0.0939941-0.1393433c0.0170288-0.0344849,0.0270386-0.0704956,0.0386963-0.107666  c0.010376-0.032959,0.0288086-0.0615234,0.034668-0.0965576l1-6c0.00354-0.0213623-0.0039063-0.0410156-0.0021973-0.0621948  C16.7422485,4.2605591,16.7388306,4.2122803,16.7327881,4.1616821z M14.3641968,9.5H13.75V5h1.3641968L14.3641968,9.5z   M12.3105469,3h1.3789063l0.5,0.5h-2.3789063L12.3105469,3z M10.8858032,5H12.25v4.5h-0.6141968L10.8858032,5z" fill="#1D1D1B"/></svg>