<?xml version="1.0" ?><svg enable-background="new 0 0 26 26" id="Слой_1" version="1.1" viewBox="0 0 26 26" xml:space="preserve" xmlns="http://www.w3.org/2000/svg" xmlns:xlink="http://www.w3.org/1999/xlink"><g><path d="M24.9510498,5.9922485c0.0171509-0.0498047,0.0240479-0.098999,0.0303955-0.1504517   C24.9854736,5.8103027,25,5.7825317,25,5.75c0-0.0236816-0.0066528-0.0455933-0.007019-0.0692139   c-0.0012207-0.0126953-0.0019531-0.0247192-0.0037842-0.0373535c-0.057373-2.5315552-2.0983276-4.5731812-4.6294556-4.6323242   c-0.0145874-0.0021362-0.0283813-0.0031128-0.0430298-0.0043945C20.2939453,1.0064087,20.2728271,1,20.25,1   c-0.031311,0-0.0579224,0.0140991-0.0881958,0.0178223c-0.0526123,0.0062256-0.1030884,0.0134277-0.1540527,0.0311279   c-0.0499268,0.0172729-0.0930786,0.0424194-0.1376343,0.0693359c-0.0270386,0.0162354-0.0574951,0.0218506-0.0830078,0.0418701   l-18.5,14.5c-0.0120239,0.0093994-0.0172119,0.0233765-0.0285034,0.0333252   c-0.0393066,0.034729-0.0692139,0.0755005-0.1005249,0.1176758c-0.027771,0.0374756-0.0567017,0.0723877-0.0766602,0.1136475   c-0.0200806,0.0410156-0.0296021,0.085144-0.0419922,0.1298828c-0.013855,0.0506592-0.0275269,0.0992432-0.0305786,0.1516113   C1.0079346,16.2215576,1,16.2344971,1,16.25v8C1,24.6640625,1.3359375,25,1.75,25h8   c0.1102295,0,0.2130127-0.0266113,0.307251-0.0693359c0.026123-0.0117798,0.0463257-0.0332031,0.071167-0.0479736   c0.0672607-0.0404053,0.1287842-0.0855713,0.1801147-0.1443481c0.0092773-0.0105591,0.0230103-0.0142212,0.0317993-0.0254517   l14.5-18.5c0.0203247-0.0259399,0.0261841-0.0571289,0.0425415-0.0847168   C24.9093018,6.0841675,24.93396,6.0415039,24.9510498,5.9922485z M23.4768066,5.5204468L11.2751465,21.0880127   c-0.7286377-3.1522217-3.2111206-5.6349487-6.3636475-6.3632813L20.4790039,2.5231323   C22.0853882,2.6375732,23.3620605,3.9141235,23.4768066,5.5204468z M2.5,17.0390015   C5.8999023,17.3901367,8.6100464,20.0997925,8.9610596,23.5H2.5V17.0390015z M3.6496582,15.7137451l0.2056885-0.1612549   c3.4525146,0.3942871,6.1976318,3.1392822,6.592041,6.5916748l-0.1612549,0.2057495   C9.5515747,19.0489502,6.9504395,16.4480591,3.6496582,15.7137451z" fill="#1D1D1B"/><path d="M5.3833008,19.5566406c-0.4716797-0.4707031-1.2978516-0.4707031-1.7675781,0   C3.3798828,19.7919922,3.25,20.1054688,3.25,20.4404297c0,0.3339844,0.1298828,0.6474609,0.3652344,0.8837891l1.0605469,1.0605469   C4.9116211,22.6201172,5.2255859,22.75,5.5595703,22.75c0.3349609,0,0.6484375-0.1298828,0.8842773-0.3652344   c0.4868164-0.4873047,0.4868164-1.2802734-0.0004883-1.7675781L5.3833008,19.5566406z M5.7363281,21.6777344c0,0,0,0-0.0004883,0   c-0.1254883,0.125-0.2265625,0.1269531-0.3530273,0l-1.0600586-1.0605469C4.2597656,20.5546875,4.25,20.4794922,4.25,20.4404297   s0.0092773-0.1142578,0.0727539-0.1767578c0.0625-0.0634766,0.137207-0.0722656,0.1762695-0.0722656   s0.1137695,0.0087891,0.1767578,0.0722656l1.0605469,1.0605469C5.8334961,21.421875,5.8334961,21.5800781,5.7363281,21.6777344z" fill="#1D1D1B"/></g></svg>