<?xml version="1.0" ?><svg enable-background="new 0 0 26 26" id="Слой_1" version="1.1" viewBox="0 0 26 26" xml:space="preserve" xmlns="http://www.w3.org/2000/svg" xmlns:xlink="http://www.w3.org/1999/xlink"><g><path d="M24.25,4.5H4.75C4.3359375,4.5,4,4.8359375,4,5.25H1.75C1.3359375,5.25,1,5.5859375,1,6v12   c0,0.4140625,0.3359375,0.75,0.75,0.75H4v2c0,0.4140625,0.3359375,0.75,0.75,0.75h19.5c0.4140625,0,0.75-0.3359375,0.75-0.75V5.25   C25,4.8359375,24.6640625,4.5,24.25,4.5z M8.6000366,6.75c0.4141846,0,0.75-0.3358154,0.75-0.75h2.5   c0,0.4141846,0.3357544,0.75,0.75,0.75c0.4141846,0,0.75-0.3358154,0.75-0.75h2.5c0,0.4141846,0.3357544,0.75,0.75,0.75   c0.4141846,0,0.75-0.3358154,0.75-0.75h2.5c0,0.4141846,0.3357544,0.75,0.75,0.75c0.4141846,0,0.75-0.3358154,0.75-0.75H23.5v14   h-18V6h2.3500366C7.8500366,6.4141846,8.185791,6.75,8.6000366,6.75z M4,11.5H2.5v-1H4V11.5z M2.5,12.5H4v1H2.5V12.5z M4,9.5H2.5   v-1H4V9.5z M2.5,14.5H4v1H2.5V14.5z M4,7.5H2.5V6.75H4V7.5z M2.5,17.25V16.5H4v0.75H2.5z" fill="#1D1D1B"/><circle cx="8.6000366" cy="8" fill="#1D1D1B" r="0.75"/><circle cx="8.6000366" cy="10" fill="#1D1D1B" r="0.75"/><circle cx="8.6000366" cy="12" fill="#1D1D1B" r="0.75"/><circle cx="8.6000366" cy="14" fill="#1D1D1B" r="0.75"/><circle cx="8.6000366" cy="16" fill="#1D1D1B" r="0.75"/><circle cx="10.6000366" cy="7" fill="#1D1D1B" r="0.75"/><circle cx="10.6000366" cy="9" fill="#1D1D1B" r="0.75"/><circle cx="10.6000366" cy="11" fill="#1D1D1B" r="0.75"/><circle cx="10.6000366" cy="13" fill="#1D1D1B" r="0.75"/><circle cx="10.6000366" cy="15" fill="#1D1D1B" r="0.75"/><circle cx="12.6000366" cy="8" fill="#1D1D1B" r="0.75"/><circle cx="12.6000366" cy="10" fill="#1D1D1B" r="0.75"/><circle cx="12.6000366" cy="12" fill="#1D1D1B" r="0.75"/><circle cx="12.6000366" cy="14" fill="#1D1D1B" r="0.75"/><circle cx="8.6000366" cy="18" fill="#1D1D1B" r="0.75"/><circle cx="10.6000366" cy="17" fill="#1D1D1B" r="0.75"/><circle cx="12.6000366" cy="16" fill="#1D1D1B" r="0.75"/><circle cx="12.6000366" cy="18" fill="#1D1D1B" r="0.75"/><circle cx="14.6000366" cy="7" fill="#1D1D1B" r="0.75"/><circle cx="14.6000366" cy="9" fill="#1D1D1B" r="0.75"/><circle cx="14.6000366" cy="11" fill="#1D1D1B" r="0.75"/><circle cx="14.6000366" cy="13" fill="#1D1D1B" r="0.75"/><circle cx="14.6000366" cy="15" fill="#1D1D1B" r="0.75"/><circle cx="16.6000366" cy="8" fill="#1D1D1B" r="0.75"/><circle cx="16.6000366" cy="10" fill="#1D1D1B" r="0.75"/><circle cx="16.6000366" cy="12" fill="#1D1D1B" r="0.75"/><circle cx="16.6000366" cy="14" fill="#1D1D1B" r="0.75"/><circle cx="14.6000366" cy="17" fill="#1D1D1B" r="0.75"/><circle cx="16.6000366" cy="16" fill="#1D1D1B" r="0.75"/><circle cx="16.6000366" cy="18" fill="#1D1D1B" r="0.75"/><circle cx="18.6000366" cy="7" fill="#1D1D1B" r="0.75"/><circle cx="18.6000366" cy="9" fill="#1D1D1B" r="0.75"/><circle cx="18.6000366" cy="11" fill="#1D1D1B" r="0.75"/><circle cx="18.6000366" cy="13" fill="#1D1D1B" r="0.75"/><circle cx="18.6000366" cy="15" fill="#1D1D1B" r="0.75"/><circle cx="20.6000366" cy="8" fill="#1D1D1B" r="0.75"/><circle cx="20.6000366" cy="10" fill="#1D1D1B" r="0.75"/><circle cx="20.6000366" cy="12" fill="#1D1D1B" r="0.75"/><circle cx="20.6000366" cy="14" fill="#1D1D1B" r="0.75"/><circle cx="18.6000366" cy="17" fill="#1D1D1B" r="0.75"/><circle cx="20.6000366" cy="16" fill="#1D1D1B" r="0.75"/><circle cx="20.6000366" cy="18" fill="#1D1D1B" r="0.75"/></g></svg>