<?xml version="1.0" ?><!DOCTYPE svg  PUBLIC '-//W3C//DTD SVG 1.1//EN'  'http://www.w3.org/Graphics/SVG/1.1/DTD/svg11.dtd'><svg enable-background="new 0 0 26 26" id="Слой_1" version="1.1" viewBox="0 0 26 26" xml:space="preserve" xmlns="http://www.w3.org/2000/svg" xmlns:xlink="http://www.w3.org/1999/xlink"><g><path d="M23.7431641,5.6689453l1.0371094-1.0371094c0.2929688-0.2929688,0.2929688-0.7675781,0-1.0605469   s-0.7675781-0.2929688-1.0605469,0l-1.0371094,1.0371094l-1.2910156-1.2910156l1.0371094-1.0371094   c0.2929688-0.2929688,0.2929688-0.7675781,0-1.0605469s-0.7675781-0.2929688-1.0605469,0l-1.0371094,1.0371094   l-0.8408203-0.8408203c-0.2929688-0.2929688-0.7675781-0.2929688-1.0605469,0L1.2197266,18.625   c-0.2929688,0.2929688-0.2929688,0.7675781,0,1.0605469C1.3662109,19.8320313,1.5576172,19.9052734,1.75,19.9052734   s0.3837891-0.0732422,0.5302734-0.2197266L18.9599609,3.0068359l4.0332031,4.0332031L6.3144531,23.7197266   c-0.2929688,0.2929688-0.2929688,0.7675781,0,1.0605469C6.4609375,24.9267578,6.6523438,25,6.8447266,25   S7.2285156,24.9267578,7.375,24.7802734L24.5839844,7.5703125c0.2929688-0.2929688,0.2929688-0.7675781,0-1.0605469   L23.7431641,5.6689453z" fill="#1D1D1B"/><path d="M18.6328125,9.9570313c0.1328125,0,0.2597656-0.0527344,0.3535156-0.1464844l1.5673828-1.5673828   c0.1953125-0.1953125,0.1953125-0.5117188,0-0.7070313l-2.0898438-2.0898438c-0.1953125-0.1953125-0.5117188-0.1953125-0.7070313,0   l-1.5673828,1.5673828c-0.1953125,0.1953125-0.1953125,0.5117188,0,0.7070313l2.0898438,2.0898438   C18.3730469,9.9042969,18.5,9.9570313,18.6328125,9.9570313z M18.1103516,6.5068359l1.3828125,1.3828125L18.6328125,8.75   L17.25,7.3671875L18.1103516,6.5068359z" fill="#1D1D1B"/><path d="M13.8388672,9.3642578l-1.5683594,1.5673828c-0.09375,0.09375-0.1464844,0.2207031-0.1464844,0.3535156   s0.0527344,0.2597656,0.1464844,0.3535156l2.0908203,2.0908203c0.09375,0.09375,0.2207031,0.1464844,0.3535156,0.1464844   s0.2597656-0.0527344,0.3535156-0.1464844l1.5673828-1.5683594c0.1953125-0.1953125,0.1953125-0.5117188,0-0.7070313   l-2.0898438-2.0898438C14.3505859,9.1689453,14.0341797,9.1689453,13.8388672,9.3642578z M14.7148438,12.6689453   l-1.3837891-1.3837891l0.8613281-0.8603516l1.3828125,1.3828125L14.7148438,12.6689453z" fill="#1D1D1B"/><path d="M9.9199219,13.2832031l-1.5673828,1.5673828c-0.1953125,0.1953125-0.1953125,0.5117188,0,0.7070313   l2.0898438,2.0898438c0.0976563,0.0976563,0.2255859,0.1464844,0.3535156,0.1464844s0.2558594-0.0488281,0.3535156-0.1464844   l1.5673828-1.5673828c0.09375-0.09375,0.1464844-0.2207031,0.1464844-0.3535156s-0.0527344-0.2597656-0.1464844-0.3535156   l-2.0898438-2.0898438C10.4316406,13.0878906,10.1152344,13.0878906,9.9199219,13.2832031z M10.7958984,16.5869141   l-1.3828125-1.3828125l0.8603516-0.8603516l1.3828125,1.3828125L10.7958984,16.5869141z" fill="#1D1D1B"/><path d="M6.8769531,21.7128906c0.1328125,0,0.2597656-0.0527344,0.3535156-0.1464844l1.5673828-1.5673828   c0.1953125-0.1953125,0.1953125-0.5117188,0-0.7070313l-2.0898438-2.0898438c-0.1953125-0.1953125-0.5117188-0.1953125-0.7070313,0   l-1.5673828,1.5673828c-0.1953125,0.1953125-0.1953125,0.5117188,0,0.7070313l2.0898438,2.0898438   C6.6171875,21.6601563,6.7441406,21.7128906,6.8769531,21.7128906z M6.3544922,18.2626953l1.3828125,1.3828125   l-0.8603516,0.8603516l-1.3828125-1.3828125L6.3544922,18.2626953z" fill="#1D1D1B"/></g></svg>