<?xml version="1.0" ?><svg enable-background="new 0 0 26 26" id="Слой_1" version="1.1" viewBox="0 0 26 26" xml:space="preserve" xmlns="http://www.w3.org/2000/svg" xmlns:xlink="http://www.w3.org/1999/xlink"><g><path d="M24.25,4.75H4.75c-0.3253784,0-0.5957031,0.2102051-0.6995239,0.5H1.75C1.3359375,5.25,1,5.5859375,1,6v12   c0,0.4140625,0.3359375,0.75,0.75,0.75H4v1.75c0,0.4140625,0.3359375,0.75,0.75,0.75h19.5c0.4140625,0,0.75-0.3359375,0.75-0.75   v-15C25,5.0859375,24.6640625,4.75,24.25,4.75z M2.5,10.5H4v1H2.5V10.5z M4,9.5H2.5v-1H4V9.5z M2.5,12.5H4v1H2.5V12.5z M4,7.5H2.5   V6.75H4V7.5z M2.5,14.5H4v1H2.5V14.5z M5.5,6.25h18v13.5h-18V6.25z M2.5,17.25V16.5H4v0.75H2.5z" fill="#1D1D1B"/><path d="M17.5,8c-2.7568359,0-5,2.2431641-5,5s2.2431641,5,5,5s5-2.2431641,5-5S20.2568359,8,17.5,8z    M21.4494629,12.5h-0.750061C20.4823608,11.1103516,19.3896484,10.0176392,18,9.8005981v-0.750061   C19.8021851,9.2787476,21.2211914,10.6975098,21.4494629,12.5z M17.5,13.5c-0.2758789,0-0.5-0.2246094-0.5-0.5   s0.2241211-0.5,0.5-0.5S18,12.7246094,18,13S17.7758789,13.5,17.5,13.5z M17,11.5921021   c-0.423584,0.151062-0.7568359,0.484314-0.9078979,0.9078979h-0.7816162C15.5021973,11.6615601,16.161438,11.0022583,17,10.8104858   V11.5921021z M16.0921021,13.5C16.2431641,13.923584,16.576416,14.2568359,17,14.4078979v0.7816162   C16.161438,14.9977417,15.5021973,14.3384399,15.3104858,13.5H16.0921021z M18,14.4078979   c0.423584-0.151062,0.7568359-0.484314,0.9078979-0.9078979h0.7816162C19.4978027,14.3384399,18.838562,14.9977417,18,15.1895142   V14.4078979z M18.9078979,12.5C18.7568359,12.076416,18.423584,11.7431641,18,11.5921021v-0.7816162   c0.838562,0.1917725,1.4978027,0.8510742,1.6895142,1.6895142H18.9078979z M17,9.0505371v0.750061   c-1.3896484,0.217041-2.4823608,1.3097534-2.6994019,2.6994019h-0.750061C13.7788086,10.6975098,15.1978149,9.2787476,17,9.0505371   z M13.5505371,13.5h0.750061C14.5176392,14.8896484,15.6103516,15.9823608,17,16.1994019v0.750061   C15.1978149,16.7212524,13.7788086,15.3024902,13.5505371,13.5z M18,16.9494629v-0.750061   c1.3896484-0.217041,2.4823608-1.3097534,2.6994019-2.6994019h0.750061C21.2211914,15.3024902,19.8021851,16.7212524,18,16.9494629   z" fill="#1D1D1B"/><path d="M10,7.5C9.7236328,7.5,9.5,7.7236328,9.5,8v4c0,0.2763672,0.2236328,0.5,0.5,0.5s0.5-0.2236328,0.5-0.5V8   C10.5,7.7236328,10.2763672,7.5,10,7.5z" fill="#1D1D1B"/><path d="M8.5,7.5C8.2236328,7.5,8,7.7236328,8,8v4c0,0.2763672,0.2236328,0.5,0.5,0.5S9,12.2763672,9,12V8   C9,7.7236328,8.7763672,7.5,8.5,7.5z" fill="#1D1D1B"/><path d="M7,7.5C6.7236328,7.5,6.5,7.7236328,6.5,8v4c0,0.2763672,0.2236328,0.5,0.5,0.5s0.5-0.2236328,0.5-0.5V8   C7.5,7.7236328,7.2763672,7.5,7,7.5z" fill="#1D1D1B"/><path d="M10,13.5c-0.2763672,0-0.5,0.2236328-0.5,0.5v4c0,0.2763672,0.2236328,0.5,0.5,0.5s0.5-0.2236328,0.5-0.5   v-4C10.5,13.7236328,10.2763672,13.5,10,13.5z" fill="#1D1D1B"/><path d="M8.5,13.5C8.2236328,13.5,8,13.7236328,8,14v4c0,0.2763672,0.2236328,0.5,0.5,0.5S9,18.2763672,9,18v-4   C9,13.7236328,8.7763672,13.5,8.5,13.5z" fill="#1D1D1B"/><path d="M7,13.5c-0.2763672,0-0.5,0.2236328-0.5,0.5v4c0,0.2763672,0.2236328,0.5,0.5,0.5s0.5-0.2236328,0.5-0.5v-4   C7.5,13.7236328,7.2763672,13.5,7,13.5z" fill="#1D1D1B"/></g></svg>