<?xml version="1.0" ?><svg enable-background="new 0 0 26 26" id="Слой_1" version="1.1" viewBox="0 0 26 26" xml:space="preserve" xmlns="http://www.w3.org/2000/svg" xmlns:xlink="http://www.w3.org/1999/xlink"><g><path d="M20,1H6C5.5859375,1,5.25,1.3359375,5.25,1.75v18.5C5.25,20.6640625,5.5859375,21,6,21h6.25v2.5H9   c-0.4140625,0-0.75,0.3359375-0.75,0.75S8.5859375,25,9,25h8c0.4140625,0,0.75-0.3359375,0.75-0.75S17.4140625,23.5,17,23.5h-3.25   V21H20c0.4140625,0,0.75-0.3359375,0.75-0.75V1.75C20.75,1.3359375,20.4140625,1,20,1z M6.75,19.5v-17h12.5v17H6.75z" fill="#1D1D1B"/><path d="M13,8.8125c-1.2060547,0-2.1875,0.9814453-2.1875,2.1875S11.7939453,13.1875,13,13.1875   S15.1875,12.2060547,15.1875,11S14.2060547,8.8125,13,8.8125z M13,12.1875c-0.6552734,0-1.1875-0.5327148-1.1875-1.1875   S12.3447266,9.8125,13,9.8125S14.1875,10.3452148,14.1875,11S13.6552734,12.1875,13,12.1875z" fill="#1D1D1B"/><path d="M13,8.1538086c0.2763672,0,0.5-0.2236328,0.5-0.5V6.5C13.5,6.2236328,13.2763672,6,13,6   s-0.5,0.2236328-0.5,0.5v1.1538086C12.5,7.9301758,12.7236328,8.1538086,13,8.1538086z" fill="#1D1D1B"/><path d="M13,13.8461914c-0.2763672,0-0.5,0.2236328-0.5,0.5V15.5c0,0.2763672,0.2236328,0.5,0.5,0.5   s0.5-0.2236328,0.5-0.5v-1.1538086C13.5,14.0698242,13.2763672,13.8461914,13,13.8461914z" fill="#1D1D1B"/><path d="M17.5,10.5h-1.1542969c-0.2763672,0-0.5,0.2236328-0.5,0.5s0.2236328,0.5,0.5,0.5H17.5   c0.2763672,0,0.5-0.2236328,0.5-0.5S17.7763672,10.5,17.5,10.5z" fill="#1D1D1B"/><path d="M10.1542969,11c0-0.2763672-0.2236328-0.5-0.5-0.5H8.5C8.2236328,10.5,8,10.7236328,8,11   s0.2236328,0.5,0.5,0.5h1.1542969C9.9306641,11.5,10.1542969,11.2763672,10.1542969,11z" fill="#1D1D1B"/><path d="M15.3662109,9.1337891c0.1279297,0,0.2558594-0.0488281,0.3535156-0.1464844l0.8154297-0.815918   c0.1953125-0.1953125,0.1953125-0.512207,0-0.7070313c-0.1953125-0.1953125-0.5117188-0.1953125-0.7070313,0l-0.8154297,0.815918   c-0.1953125,0.1953125-0.1953125,0.512207,0,0.7070313C15.1103516,9.0849609,15.2382813,9.1337891,15.3662109,9.1337891z" fill="#1D1D1B"/><path d="M10.2802734,13.0126953l-0.8154297,0.815918c-0.1953125,0.1953125-0.1953125,0.512207,0,0.7070313   c0.0976563,0.0976563,0.2255859,0.1464844,0.3535156,0.1464844s0.2558594-0.0488281,0.3535156-0.1464844l0.8154297-0.815918   c0.1953125-0.1953125,0.1953125-0.512207,0-0.7070313C10.7919922,12.8173828,10.4755859,12.8173828,10.2802734,13.0126953z" fill="#1D1D1B"/><path d="M10.2802734,8.9873047c0.0976563,0.0976563,0.2255859,0.1464844,0.3535156,0.1464844   s0.2558594-0.0488281,0.3535156-0.1464844c0.1953125-0.1948242,0.1953125-0.5117188,0-0.7070313l-0.8154297-0.815918   c-0.1953125-0.1953125-0.5117188-0.1953125-0.7070313,0c-0.1953125,0.1948242-0.1953125,0.5117188,0,0.7070313   L10.2802734,8.9873047z" fill="#1D1D1B"/><path d="M15.7197266,13.0126953c-0.1953125-0.1953125-0.5117188-0.1953125-0.7070313,0   c-0.1953125,0.1948242-0.1953125,0.5117188,0,0.7070313l0.8154297,0.815918   c0.0976563,0.0976563,0.2255859,0.1464844,0.3535156,0.1464844s0.2558594-0.0488281,0.3535156-0.1464844   c0.1953125-0.1948242,0.1953125-0.5117188,0-0.7070313L15.7197266,13.0126953z" fill="#1D1D1B"/></g></svg>