<?xml version="1.0" ?><!DOCTYPE svg  PUBLIC '-//W3C//DTD SVG 1.1//EN'  'http://www.w3.org/Graphics/SVG/1.1/DTD/svg11.dtd'><svg enable-background="new 0 0 26 26" id="Слой_1" version="1.1" viewBox="0 0 26 26" xml:space="preserve" xmlns="http://www.w3.org/2000/svg" xmlns:xlink="http://www.w3.org/1999/xlink"><path d="M13,1C8.8408203,1,5.4575195,4.3837891,5.4575195,8.5419922  c0,3.4306641,1.5952148,5.1708984,2.5766602,6.2148438c0.3881836,0.5576172,0.8144531,1.2070313,0.8144531,2.6806641v1.6240234  c0,0.6012573,0.3562622,1.1121826,0.8540039,1.3145752v2.4979248c0,0.1855469,0.0683594,0.3642578,0.1923828,0.5019531  l1.2382813,1.3759766C11.2758789,24.9101563,11.4785156,25,11.690918,25h2.6181641  c0.2124023,0,0.4150391-0.0898438,0.5576172-0.2480469l1.2382813-1.3759766  c0.1240234-0.1376953,0.1923828-0.3164063,0.1923828-0.5019531v-2.4992676  c0.4979858-0.2034912,0.8540039-0.713623,0.8540039-1.3132324V17.4375c0-1.4736328,0.4262695-2.1230469,0.8144531-2.6806641  c0.9814453-1.0439453,2.5766602-2.7841797,2.5766602-6.2148438C20.5424805,4.3837891,17.1591797,1,13,1z M13,2.5  c3.3320313,0,6.0424805,2.7099609,6.0424805,6.0419922c0,0.5684814-0.06073,1.0627441-0.147644,1.5214844H7.1052246  C7.0183105,9.6047363,6.9575195,9.1104736,6.9575195,8.5419922C6.9575195,5.2099609,9.6679688,2.5,13,2.5z M11.2026367,21.6850586  l3.5947266-0.3150024v0.6345215l-3.5947266,0.31427V21.6850586z M14.7973633,20.8681641l-3.5947266,0.3146973v-0.7111816h3.5947266  V20.8681641z M13.9750977,23.5h-1.9501953l-0.6266479-0.6965942l3.3991089-0.296936v0.0794678L13.9750977,23.5z   M16.8354492,13.7695313c-0.0249023,0.0263672-0.0478516,0.0546875-0.0688477,0.0849609  c-0.4438477,0.6367188-1.1152344,1.5986328-1.1152344,3.5830078v1.5341797h-0.1040039h-5.0947266h-0.1040039V17.4375  c0-1.984375-0.6713867-2.9462891-1.1152344-3.5830078c-0.0209961-0.0302734-0.0439453-0.0585938-0.0688477-0.0849609  c-0.6791382-0.7218628-1.5356445-1.6464844-1.9529419-3.2060547h11.5768433  C18.3711548,12.1230469,17.5145874,13.0476685,16.8354492,13.7695313z" fill="#1D1D1B"/></svg>