<?xml version="1.0" ?><svg enable-background="new 0 0 26 26" id="Слой_1" version="1.1" viewBox="0 0 26 26" xml:space="preserve" xmlns="http://www.w3.org/2000/svg" xmlns:xlink="http://www.w3.org/1999/xlink"><path d="M19.7454224,20.270874c0.0013428-0.043335-0.0105591-0.0855713-0.0169067-0.1291504  c-0.0080566-0.0536499-0.0133057-0.1062622-0.0326538-0.1568604c-0.0038452-0.0101318-0.0021362-0.020752-0.0064087-0.0307617l-3-7  c-0.0119629-0.0278931-0.03479-0.0461426-0.0495605-0.0717773c-0.0339355-0.0587769-0.0664063-0.1185303-0.1143799-0.1658325  c-0.0386353-0.0380249-0.0869141-0.06073-0.1322632-0.0891724c-0.0366211-0.0232544-0.0679321-0.0531006-0.1085205-0.0698242  c-0.0696411-0.0285034-0.1449585-0.0378418-0.2206421-0.0445557C16.0418701,12.5109863,16.0227661,12.5,16,12.5h-0.5952759  l-0.6615601-4.8515625c-0.0045776-0.0331421-0.0233765-0.0594482-0.0320435-0.0908813  c-0.013916-0.0510254-0.0275879-0.0997925-0.0513916-0.145874c-0.0206299-0.0397339-0.0460815-0.0733643-0.0731201-0.1084595  c-0.0321045-0.0421143-0.0639038-0.0812378-0.1040039-0.1156616c-0.0337524-0.0289307-0.0700684-0.050293-0.1082764-0.072998  c-0.043457-0.0256958-0.0856323-0.0493774-0.1340942-0.06604c-0.0474854-0.0166016-0.0957642-0.0228271-0.1463623-0.029541  C14.0617065,7.0147705,14.0332642,7,14,7h-0.25V1.75C13.75,1.3359375,13.4140625,1,13,1s-0.75,0.3359375-0.75,0.75V7H12  c-0.0322876,0-0.0598145,0.0144043-0.0910645,0.0183716c-0.0527344,0.0065918-0.1032104,0.0133667-0.1525269,0.0308228  c-0.0450439,0.015686-0.0842896,0.0379028-0.125,0.0614624c-0.0415649,0.0241699-0.0809326,0.0474854-0.1172485,0.0791016  c-0.0375977,0.0326538-0.0672607,0.0697021-0.0977783,0.1090698c-0.0285645,0.0367432-0.055481,0.0721436-0.0769653,0.1141357  c-0.0232544,0.0453491-0.0365601,0.0933228-0.050293,0.1434937c-0.0087891,0.0317993-0.0276489,0.0584717-0.0322876,0.09198  L10.5952759,12.5h-0.5908203c-0.0010376-0.000061-0.0020142,0.000061-0.0030518,0H10  c-0.0076904,0-0.0140381,0.0041504-0.0216675,0.0043945c-0.0916138,0.0026245-0.1814575,0.019104-0.2648926,0.0535278  c-0.0323486,0.0134277-0.0568848,0.0383301-0.086792,0.0559692c-0.0533447,0.031189-0.1081543,0.05896-0.15271,0.1030273  c-0.0458984,0.0452271-0.076355,0.1029663-0.109375,0.1587524c-0.0164185,0.027771-0.0409546,0.0479736-0.0540161,0.0784302l-3,7  c-0.0042725,0.0100708-0.0025635,0.0206299-0.0064087,0.0307617c-0.0192871,0.0504761-0.0245361,0.1030273-0.0325928,0.1564941  c-0.0064697,0.0437622-0.0182495,0.0862427-0.0169067,0.1296997c0.0012207,0.0449219,0.0157471,0.0880127,0.0253296,0.1327515  c0.0111694,0.052002,0.0193481,0.1032104,0.0411377,0.1516113c0.0043335,0.0095825,0.0032349,0.0200195,0.0079956,0.029541l2,4  c0.0078125,0.015564,0.0246582,0.0214233,0.0333252,0.0361938c0.0537109,0.0917969,0.1243896,0.1672974,0.2106934,0.2288208  c0.0264893,0.0188599,0.0491333,0.0372925,0.0776978,0.0524292C8.7564697,24.9593506,8.871582,25,9,25h8  c0.128418,0,0.2435303-0.0406494,0.3491821-0.0975952c0.0285645-0.0151367,0.0512085-0.0335693,0.0776978-0.0524292  c0.0863037-0.0615234,0.1569824-0.1370239,0.2106934-0.2288208c0.008667-0.0147705,0.0255127-0.0206299,0.0333252-0.0361938l2-4  c0.0047607-0.0095215,0.0036621-0.0198975,0.0079956-0.029541c0.0217285-0.0482178,0.0298462-0.0992432,0.0410767-0.151123  C19.7296143,20.359314,19.7442627,20.315979,19.7454224,20.270874z M16.5366211,23.5H15.703125l0.7822266-3.1289063  c0.0025635-0.010437-0.0004883-0.0204468,0.0014038-0.0308838c0.0059204-0.0317993,0.0046387-0.0635376,0.0042725-0.0964966  c-0.0005493-0.0349731-0.0006104-0.0686646-0.0081787-0.1021729c-0.0021973-0.0098267,0.0004272-0.0194092-0.0023804-0.0292358  L14.7340698,14h0.7711182l2.668335,6.2261963L16.5366211,23.5z M13.5,23.5V14h0.194458l1.7879639,6.2578125L14.671875,23.5H13.5z   M11.328125,23.5l-0.8105469-3.2421875L12.305542,14H12.5v9.5H11.328125z M9.4633789,23.5l-1.6369019-3.2738037L10.494812,14  h0.7711182l-1.7463989,6.1123047c-0.0028076,0.0098267-0.0001831,0.0194092-0.0023804,0.0292358  c-0.0075684,0.0335083-0.0076294,0.0671997-0.0081787,0.1021729c-0.0003662,0.032959-0.0016479,0.0646973,0.0042725,0.0964966  c0.0018921,0.010437-0.0011597,0.0204468,0.0014038,0.0308838L10.296875,23.5H9.4633789z M12.6547241,8.5h0.6905518l0.5454102,4  H12.109314L12.6547241,8.5z" fill="#1D1D1B"/></svg>