<?xml version="1.0" ?><!DOCTYPE svg  PUBLIC '-//W3C//DTD SVG 1.1//EN'  'http://www.w3.org/Graphics/SVG/1.1/DTD/svg11.dtd'><svg enable-background="new 0 0 26 26" id="Слой_1" version="1.1" viewBox="0 0 26 26" xml:space="preserve" xmlns="http://www.w3.org/2000/svg" xmlns:xlink="http://www.w3.org/1999/xlink"><g><path d="M17.1855469,10.1240234h-2.6621094V5.5996094c0-0.2167969-0.1396484-0.4082031-0.3457031-0.4755859   c-0.2050781-0.0673828-0.4306641,0.0068359-0.5585938,0.1816406l-5.2089844,7.1601563   c-0.1103516,0.1523438-0.1269531,0.3535156-0.0410156,0.5205078c0.0849609,0.1679688,0.2568359,0.2734375,0.4453125,0.2734375   h2.6621094v4.5253906c0,0.2167969,0.1396484,0.4082031,0.3457031,0.4755859   c0.0507813,0.0166016,0.1025391,0.0244141,0.1542969,0.0244141c0.1572266,0,0.3085938-0.0742188,0.4042969-0.2060547   l5.2089844-7.1611328c0.1103516-0.1523438,0.1269531-0.3535156,0.0410156-0.5205078   C17.5458984,10.2294922,17.3740234,10.1240234,17.1855469,10.1240234z M12.4765625,16.2480469v-3.4882813   c0-0.2763672-0.2236328-0.5-0.5-0.5H9.796875l3.7265625-5.1230469v3.4873047c0,0.2763672,0.2236328,0.5,0.5,0.5h2.1796875   L12.4765625,16.2480469z" fill="#1D1D1B"/><path d="M23.7978516,1H2.2021484c-0.4140625,0-0.75,0.3359375-0.75,0.75v10.0058594   c0,6.2294922,3.6777344,10.5478516,11.2431641,13.2021484C12.7744141,24.9853516,12.8583984,25,12.9433594,25h0.1132813   c0.0849609,0,0.1689453-0.0146484,0.2480469-0.0419922c7.5654297-2.6542969,11.2431641-6.9726563,11.2431641-13.2021484V1.75   C24.5478516,1.3359375,24.2119141,1,23.7978516,1z M13,23.4746094c-6.8535156-2.4521484-10.0478516-6.1796875-10.0478516-11.71875   V2.5h20.0957031v9.2558594C23.0478516,17.2949219,19.8535156,21.0224609,13,23.4746094z" fill="#1D1D1B"/></g></svg>