<?xml version="1.0" ?><svg enable-background="new 0 0 26 26" id="Слой_1" version="1.1" viewBox="0 0 26 26" xml:space="preserve" xmlns="http://www.w3.org/2000/svg" xmlns:xlink="http://www.w3.org/1999/xlink"><g><path d="M19.5714111,18.4692383c0.0308228-0.0375977,0.0567627-0.0755615,0.079834-0.1183472   c0.022583-0.041687,0.0396118-0.0838013,0.0540771-0.1296997c0.0151367-0.0480957,0.024353-0.0955811,0.0296021-0.1466675   C19.7376099,18.0487671,19.75,18.0264282,19.75,18c0-0.0259399-0.012207-0.0479126-0.0147705-0.0731812   c-0.0024414-0.0251465,0.005188-0.0489502,0.0001221-0.0742798l-2-10c-0.005127-0.0256348-0.0215454-0.0449219-0.0291138-0.0693359   c-0.0153198-0.0496826-0.0339966-0.0949707-0.0587769-0.1396484c-0.0228271-0.0412598-0.0472412-0.0785522-0.0769653-0.1141968   c-0.0319824-0.0386963-0.0661621-0.0717773-0.1051636-0.1033936c-0.0355835-0.0286865-0.071106-0.0531616-0.1112061-0.0750122   c-0.0438232-0.0241089-0.0883789-0.0420532-0.1369629-0.0570679C17.1707153,7.2794189,17.125,7.2705688,17.0759277,7.2653198   C17.0497437,7.2625732,17.0269165,7.25,17,7.25h-3.25V2c0-0.4140625-0.3359375-0.75-0.75-0.75S12.25,1.5859375,12.25,2v5.25H9   c-0.0275269,0-0.0507813,0.0128174-0.0775146,0.015686c-0.048645,0.005249-0.0940552,0.0139771-0.1400146,0.0282593   C8.7341309,7.3088989,8.6898804,7.3267822,8.6462402,7.350708C8.6052856,7.3729248,8.5689087,7.3979492,8.5327148,7.4272461   C8.494751,7.458252,8.4614868,7.4906006,8.4302368,7.5283203C8.3999634,7.5645752,8.374939,7.602478,8.3518066,7.6445923   C8.3273926,7.6888428,8.309021,7.7337036,8.2938843,7.7828369C8.2862549,7.8074341,8.2697754,7.8267212,8.2646484,7.8525391l-2,10   c-0.0050659,0.0253296,0.0025635,0.0491333,0.0001221,0.0742798C6.262207,17.9520874,6.25,17.9740601,6.25,18   c0,0.0264282,0.0123901,0.0487671,0.0150757,0.0745239c0.005249,0.0510864,0.0144653,0.0985718,0.0296021,0.1466675   c0.0144653,0.0458984,0.0314941,0.0880127,0.0540771,0.1296997c0.0230713,0.0427856,0.0490112,0.0807495,0.079834,0.1183472   c0.0302734,0.0368652,0.0618286,0.0692139,0.0985107,0.0997314C6.5639038,18.5996704,6.6021729,18.625,6.6449585,18.6484375   c0.0440674,0.024292,0.0888062,0.0425415,0.1376953,0.0576782c0.0246582,0.0076294,0.0440674,0.0241089,0.0698853,0.0292358   c0.0491943,0.0096436,0.0983276,0.0143433,0.1465454,0.0144653C6.9993896,18.7498169,6.9996948,18.75,7,18.75h3.3670654   c0.3288574,1.1506348,1.3780518,2,2.6329346,2s2.3040771-0.8493652,2.6329346-2H19   c0.0003052,0,0.0006104-0.0001831,0.0009155-0.0001831c0.0482178-0.0001221,0.0973511-0.0048218,0.1465454-0.0144653   c0.0258179-0.005127,0.0452271-0.0216064,0.0698853-0.0292358c0.0488892-0.0151367,0.0936279-0.0333862,0.1376953-0.0576782   c0.0427856-0.0234375,0.0810547-0.0487671,0.1178589-0.0794678C19.5095825,18.5384521,19.5411377,18.5061035,19.5714111,18.4692383   z M7.914856,17.25l1.7000122-8.5h6.7702637l1.7000122,8.5H7.914856z M13,19.25c-0.4026489,0-0.744873-0.2036133-0.9736328-0.5   h1.9472656C13.744873,19.0463867,13.4026489,19.25,13,19.25z" fill="#1D1D1B"/><path d="M13,22.25c-0.1376953,0-0.25,0.1123047-0.25,0.25v2c0,0.1376953,0.1123047,0.25,0.25,0.25   s0.25-0.1123047,0.25-0.25v-2C13.25,22.3623047,13.1376953,22.25,13,22.25z" fill="#1D1D1B"/><path d="M16.3583984,21.0048828c-0.0976563-0.0976563-0.2558594-0.0976563-0.3535156,0   s-0.0976563,0.2558594,0,0.3535156l1.4150391,1.4150391c0.0488281,0.0488281,0.1123047,0.0732422,0.1767578,0.0732422   s0.1279297-0.0244141,0.1767578-0.0732422c0.0976563-0.0976563,0.0976563-0.2558594,0-0.3535156L16.3583984,21.0048828z" fill="#1D1D1B"/><path d="M9.6416016,21.0048828l-1.4150391,1.4150391c-0.0976563,0.0976563-0.0976563,0.2558594,0,0.3535156   c0.0488281,0.0488281,0.1123047,0.0732422,0.1767578,0.0732422s0.1279297-0.0244141,0.1767578-0.0732422l1.4150391-1.4150391   c0.0976563-0.0976563,0.0976563-0.2558594,0-0.3535156S9.7392578,20.9072266,9.6416016,21.0048828z" fill="#1D1D1B"/></g></svg>