<?xml version="1.0" ?><!DOCTYPE svg  PUBLIC '-//W3C//DTD SVG 1.1//EN'  'http://www.w3.org/Graphics/SVG/1.1/DTD/svg11.dtd'><svg enable-background="new 0 0 26 26" id="Слой_1" version="1.1" viewBox="0 0 26 26" xml:space="preserve" xmlns="http://www.w3.org/2000/svg" xmlns:xlink="http://www.w3.org/1999/xlink"><g><path d="M22.0410156,23.0859375L16.2724609,1.5556641   c-0.1064453-0.3984375-0.5087891-0.6376953-0.9189453-0.5302734l-3.4599609,0.9267578   c-0.3994141,0.1074219-0.6367188,0.5185547-0.5302734,0.9179688l0.1217651,0.4550781L7.4345703,9.7753906   C7.432312,9.7789917,7.4324341,9.7832031,7.4302368,9.7868042C7.3964233,9.8425293,7.3797607,9.9055786,7.3613281,9.9685059   c-0.0092163,0.0316162-0.0272217,0.0610962-0.0321045,0.0932007c-0.0059814,0.0390625,0.003479,0.0797729,0.0038452,0.1199951   c0.0006714,0.0581665-0.0032349,0.1160278,0.0107422,0.1722412c0.0011597,0.0048218-0.0003662,0.0093994,0.0009155,0.0142212   l1.5532837,5.7973022l-4.7446899,4.7446899c-0.2929688,0.2929688-0.2929688,0.7675781,0,1.0605469l2.8085938,2.8095703   C7.1025391,24.9208984,7.2929688,25,7.4921875,25s0.3896484-0.0791016,0.5302734-0.2197266l3.6533203-3.6533203l5.335083,2.8217773   l0.1209717,0.4526367c0.0517578,0.1923828,0.1767578,0.3564453,0.3496094,0.4560547   c0.1152344,0.0664063,0.2441406,0.1005859,0.375,0.1005859c0.0654297,0,0.1298828-0.0087891,0.1943359-0.0253906   l3.4599609-0.9277344C21.9111328,23.8974609,22.1484375,23.4863281,22.0410156,23.0859375z M7.4921875,23.1894531   l-1.7480469-1.7490234l5.2705078-5.2705078c0.4667969-0.4667969,1.2822266-0.46875,1.7490234,0   c0.4814453,0.4824219,0.4814453,1.265625,0,1.7480469L7.4921875,23.1894531z M13.8242188,18.9785156   c1.0664063-1.0664063,1.0664063-2.8027344,0-3.8691406c-0.979126-0.979126-2.642334-1.0202637-3.6939697-0.1422729   L8.878418,10.2946777l3.4927979-5.5621338l4.7033691,17.5528564l-4.2888184-2.2684326L13.8242188,18.9785156z    M18.3867188,23.2890625l-0.0097656-0.0380859c-0.0016479-0.0061035-0.0062866-0.0102539-0.0080566-0.0162964   c-0.0040283-0.0142212-0.0097046-0.0270386-0.0145874-0.0410767l-5.3269653-19.880127   c-0.0002441-0.0008545-0.0009155-0.0014648-0.0011597-0.0023193c-0.0029297-0.0159302-0.0037842-0.0314331-0.0077515-0.0471802   C13.0172729,3.2592773,13.0188599,3.2546997,13.0175781,3.25l-0.0117188-0.0429688l2.0117188-0.5380859L20.3974609,22.75   L18.3867188,23.2890625z" fill="#1D1D1B"/><circle cx="11.8894043" cy="17.0437317" fill="#1D1D1B" r="0.587176"/></g></svg>