<?xml version="1.0" ?><svg enable-background="new 0 0 26 26" id="Слой_1" version="1.1" viewBox="0 0 26 26" xml:space="preserve" xmlns="http://www.w3.org/2000/svg" xmlns:xlink="http://www.w3.org/1999/xlink"><g><path d="M13,6.7275391c-3.2050781,0-5.8134766,2.6083984-5.8134766,5.8134766   c0,2.6201172,1.2109375,3.9521484,1.9628906,4.7529297c0.2832031,0.4082031,0.5654297,0.8496094,0.5654297,1.8779297v1.2099609   c0,0.4759521,0.2633667,0.8775024,0.6367188,1.0859985v1.7557983c0,0.1855469,0.0683594,0.3642578,0.1923828,0.5009766   l0.9228516,1.0263672C11.609375,24.9091797,11.8115234,25,12.0244141,25h1.9511719   c0.2128906,0,0.4150391-0.0908203,0.5576172-0.2490234l0.9228516-1.0263672   c0.1240234-0.1367188,0.1923828-0.3154297,0.1923828-0.5009766v-1.7573242   c0.373291-0.2089233,0.6367188-0.6094971,0.6367188-1.0844727V19.171875c0-1.0283203,0.2822266-1.4697266,0.5654297-1.8779297   c0.7519531-0.8007813,1.9628906-2.1328125,1.9628906-4.7529297C18.8134766,9.3359375,16.2050781,6.7275391,13,6.7275391z    M14.1484375,22.0625h-2.296875v-0.4384766h2.296875V22.0625z M13.6416016,23.5h-1.2832031l-0.3928223-0.4375h2.0688477   L13.6416016,23.5z M15.7197266,16.3066406c-0.0244141,0.0263672-0.0478516,0.0546875-0.0683594,0.0849609   c-0.3447266,0.4951172-0.8662109,1.2431641-0.8662109,2.7802734v0.9521484h-3.5703125V19.171875   c0-1.5371094-0.5214844-2.2851563-0.8662109-2.7802734c-0.0205078-0.0302734-0.0439453-0.0585938-0.0683594-0.0849609   c-0.6728516-0.7158203-1.59375-1.6953125-1.59375-3.765625c0-2.3789063,1.9345703-4.3134766,4.3134766-4.3134766   s4.3134766,1.9345703,4.3134766,4.3134766C17.3134766,14.6113281,16.3925781,15.5908203,15.7197266,16.3066406z" fill="#1D1D1B"/><path d="M13,5.4775391c0.1376953,0,0.25-0.1123047,0.25-0.25V1.75c0-0.1376953-0.1123047-0.25-0.25-0.25   s-0.25,0.1123047-0.25,0.25v3.4775391C12.75,5.3652344,12.8623047,5.4775391,13,5.4775391z" fill="#1D1D1B"/><path d="M18.9541016,3.5488281l-1.9941406,2.8476563c-0.0791016,0.1132813-0.0517578,0.2695313,0.0615234,0.3486328   c0.0439453,0.0302734,0.09375,0.0449219,0.1435547,0.0449219c0.078125,0,0.15625-0.0371094,0.2050781-0.1064453   l1.9941406-2.8476563c0.0791016-0.1132813,0.0517578-0.2695313-0.0615234-0.3486328   C19.1904297,3.4091797,19.0341797,3.4345703,18.9541016,3.5488281z" fill="#1D1D1B"/><path d="M8.8349609,6.7900391c0.0498047,0,0.0996094-0.0146484,0.1435547-0.0449219   c0.1132813-0.0791016,0.140625-0.2353516,0.0615234-0.3486328L7.0458984,3.5488281   C6.9658203,3.4345703,6.8095703,3.4091797,6.6972656,3.4873047c-0.1132813,0.0791016-0.140625,0.2353516-0.0615234,0.3486328   l1.9941406,2.8476563C8.6787109,6.7529297,8.7568359,6.7900391,8.8349609,6.7900391z" fill="#1D1D1B"/><path d="M19.9091797,10.2402344l3.2675781-1.1894531c0.1289063-0.0478516,0.1962891-0.1914063,0.1494141-0.3212891   c-0.0478516-0.1298828-0.1894531-0.1943359-0.3212891-0.1494141l-3.2675781,1.1894531   c-0.1289063,0.0478516-0.1962891,0.1914063-0.1494141,0.3212891c0.0371094,0.1015625,0.1328125,0.1640625,0.2353516,0.1640625   C19.8515625,10.2548828,19.8808594,10.25,19.9091797,10.2402344z" fill="#1D1D1B"/><path d="M6.2626953,9.7695313L2.9951172,8.5800781C2.8652344,8.5351563,2.7216797,8.5996094,2.6738281,8.7294922   C2.6269531,8.859375,2.6943359,9.0029297,2.8232422,9.0507813l3.2675781,1.1894531   C6.1191406,10.25,6.1484375,10.2548828,6.1767578,10.2548828c0.1025391,0,0.1982422-0.0625,0.2353516-0.1640625   C6.4589844,9.9609375,6.3916016,9.8173828,6.2626953,9.7695313z" fill="#1D1D1B"/><path d="M5.921875,14.1269531L2.5625,15.0263672c-0.1337891,0.0351563-0.2128906,0.1728516-0.1767578,0.3056641   c0.0292969,0.1123047,0.1308594,0.1855469,0.2412109,0.1855469c0.0214844,0,0.0429688-0.0029297,0.0644531-0.0087891   l3.359375-0.8994141c0.1337891-0.0351563,0.2128906-0.1728516,0.1767578-0.3056641   C6.1933594,14.1699219,6.0546875,14.0927734,5.921875,14.1269531z" fill="#1D1D1B"/><path d="M23.4375,15.0263672l-3.359375-0.8994141c-0.1318359-0.0341797-0.2705078,0.0429688-0.3056641,0.1767578   c-0.0361328,0.1328125,0.0429688,0.2705078,0.1767578,0.3056641l3.359375,0.8994141   c0.0214844,0.0058594,0.0429688,0.0087891,0.0644531,0.0087891c0.1103516,0,0.2119141-0.0732422,0.2412109-0.1855469   C23.6503906,15.1992188,23.5712891,15.0615234,23.4375,15.0263672z" fill="#1D1D1B"/></g></svg>