<?xml version="1.0" ?><svg enable-background="new 0 0 26 26" id="Слой_1" version="1.1" viewBox="0 0 26 26" xml:space="preserve" xmlns="http://www.w3.org/2000/svg" xmlns:xlink="http://www.w3.org/1999/xlink"><path d="M16.7102661,24.4468384c0.0140991-0.0505981,0.0275269-0.0992432,0.0307617-0.1525269  C16.7420044,24.2788696,16.75,24.265686,16.75,24.25c0-0.0360107-0.015564-0.0668945-0.0205078-0.1015625  c-0.0048218-0.0350952,0.001709-0.069458-0.0083008-0.1044922l-2-7c-0.0043335-0.0151978-0.0157471-0.0258179-0.0209961-0.0405273  c-0.0176392-0.0499268-0.0438843-0.0927124-0.071167-0.137207c-0.0244751-0.039978-0.0460815-0.0799561-0.0769653-0.1141968  c-0.0310059-0.0343628-0.067627-0.0598755-0.1044312-0.0880127c-0.0408936-0.0314331-0.0795898-0.062439-0.1257935-0.0848389  c-0.0361938-0.0175171-0.0750122-0.0256958-0.1141968-0.0372314c-0.0557251-0.0166016-0.1099243-0.0310669-0.1688232-0.0340576  C14.0252075,16.5071411,14.0137939,16.5,14,16.5h-0.25v-14H15c0.4140625,0,0.75-0.3359375,0.75-0.75S15.4140625,1,15,1h-4  c-0.4140625,0-0.75,0.3359375-0.75,0.75S10.5859375,2.5,11,2.5h1.25v14H12c-0.0148315,0-0.0272217,0.0076294-0.0418701,0.0084839  c-0.0557861,0.0031128-0.1068726,0.0169678-0.15979,0.0322266c-0.0421143,0.0120239-0.0836792,0.0211182-0.1224365,0.039978  c-0.0446777,0.0217285-0.0819702,0.0518188-0.1216431,0.0820313c-0.0377808,0.0286865-0.0751343,0.0548096-0.1068115,0.0900269  c-0.0308228,0.0341797-0.0523071,0.0738525-0.0767212,0.1137695c-0.0271606,0.0443726-0.0532837,0.0870972-0.0709229,0.1369019  c-0.005249,0.0147095-0.0166626,0.0253296-0.0209961,0.0405273l-2,7c-0.0100098,0.0350342-0.003479,0.069397-0.0083008,0.1044922  C9.265564,24.1831055,9.25,24.2139893,9.25,24.25c0,0.015686,0.0079956,0.0288696,0.0089722,0.0443115  c0.0032349,0.0532837,0.0166626,0.1019287,0.0307617,0.1525269c0.0123291,0.0443726,0.0220947,0.0881348,0.0419922,0.1287842  c0.0213013,0.0437622,0.0509033,0.0802612,0.0803223,0.1191406c0.0288696,0.0380859,0.0552979,0.0758667,0.0908203,0.1078491  c0.0337524,0.0303955,0.0731812,0.0518188,0.1126709,0.0759888c0.0450439,0.02771,0.088501,0.0540771,0.1391602,0.0718384  c0.0142822,0.0050049,0.0244751,0.0160522,0.0392456,0.0202637c0.0682983,0.0203247,0.137085,0.0289307,0.204895,0.0290527  C9.9992676,24.9997559,9.9995728,25,10,25h6c0.0004272,0,0.0007324-0.0002441,0.0011597-0.0002441  c0.0678101-0.0001221,0.1365967-0.008728,0.204895-0.0290527c0.0147705-0.0042114,0.0249634-0.0152588,0.0392456-0.0202637  c0.0506592-0.0177612,0.0941162-0.0441284,0.1391602-0.0718384c0.0394897-0.0241699,0.0789185-0.0455933,0.1126709-0.0759888  c0.0355225-0.0319824,0.0619507-0.0697632,0.0908203-0.1078491c0.0294189-0.0388794,0.059021-0.0753784,0.0803223-0.1191406  C16.6881714,24.5349731,16.697937,24.4912109,16.7102661,24.4468384z M12.5657959,18h0.8684082l1.5714722,5.5h-4.0113525  L12.5657959,18z" fill="#1D1D1B"/></svg>