<?xml version="1.0" ?><svg enable-background="new 0 0 26 26" id="Слой_1" version="1.1" viewBox="0 0 26 26" xml:space="preserve" xmlns="http://www.w3.org/2000/svg" xmlns:xlink="http://www.w3.org/1999/xlink"><g><circle cx="14.5" cy="13" fill="#1D1D1B" r="0.75"/><circle cx="11.5" cy="13" fill="#1D1D1B" r="0.75"/><circle cx="8.5" cy="13" fill="#1D1D1B" r="0.75"/><circle cx="5.5" cy="13" fill="#1D1D1B" r="0.75"/><circle cx="17.5" cy="13" fill="#1D1D1B" r="0.75"/><circle cx="20.5" cy="13" fill="#1D1D1B" r="0.75"/><circle cx="14.5" cy="6" fill="#1D1D1B" r="0.75"/><circle cx="11.5" cy="6" fill="#1D1D1B" r="0.75"/><circle cx="8.5" cy="6" fill="#1D1D1B" r="0.75"/><circle cx="5.5" cy="6" fill="#1D1D1B" r="0.75"/><circle cx="17.5" cy="6" fill="#1D1D1B" r="0.75"/><path d="M21.25,10.25H4.75c-0.592041,0-1.1275024-0.2866211-1.5297241-0.7453613   C3.6364136,9.0297852,4.1818237,8.75,4.75,8.75h16.5C21.6640625,8.75,22,8.4140625,22,8V4c0-0.4140625-0.3359375-0.75-0.75-0.75   H4.75C2.6826172,3.25,1,5.15625,1,7.5v4c0,2.34375,1.6826172,4.25,3.75,4.25h16.5   c0.5681763,0,1.1135864,0.2797852,1.5297241,0.7546387C22.3775024,16.9633789,21.842041,17.25,21.25,17.25H1.75   C1.3359375,17.25,1,17.5859375,1,18s0.3359375,0.75,0.75,0.75h19.5c0.8474121,0,1.6212769-0.3322754,2.25-0.8717041V18.5   c0,1.5166016-1.0097656,2.75-2.25,2.75H1.75C1.3359375,21.25,1,21.5859375,1,22s0.3359375,0.75,0.75,0.75h19.5   c2.0673828,0,3.75-1.90625,3.75-4.25v-4C25,12.15625,23.3173828,10.25,21.25,10.25z M4.75,4.75H20.5v2.5H4.75   c-0.8002319,0-1.5675049,0.2924805-2.2014771,0.8140869C2.5172729,7.8818359,2.5,7.6934204,2.5,7.5   C2.5,5.9833984,3.5097656,4.75,4.75,4.75z M21.25,14.25H4.75c-1.2402344,0-2.25-1.2333984-2.25-2.75v-0.6217041   C3.1287231,11.4177246,3.9025879,11.75,4.75,11.75h16.5c1.2402344,0,2.25,1.2333984,2.25,2.75   c0,0.1934204-0.0172729,0.3817749-0.0485229,0.5640259C22.8175049,14.5424805,22.0502319,14.25,21.25,14.25z" fill="#1D1D1B"/><circle cx="14.5" cy="20" fill="#1D1D1B" r="0.75"/><circle cx="11.5" cy="20" fill="#1D1D1B" r="0.75"/><circle cx="8.5" cy="20" fill="#1D1D1B" r="0.75"/><circle cx="5.5" cy="20" fill="#1D1D1B" r="0.75"/><circle cx="17.5" cy="20" fill="#1D1D1B" r="0.75"/><circle cx="20.5" cy="20" fill="#1D1D1B" r="0.75"/><circle cx="2.5" cy="20" fill="#1D1D1B" r="0.75"/></g></svg>