<?xml version="1.0" ?><svg height="400px" version="1.1" viewBox="0 0 100 100" width="400px" xml:space="preserve" xmlns="http://www.w3.org/2000/svg" xmlns:xlink="http://www.w3.org/1999/xlink"><g style="fill: #000000"><path d="M53.838,37.5L40.955,37.5L35.264,48.882L39.736,51.118L44.045,42.5L48.455,42.5L40.955,57.5L32.5,57.5L32.5,62.5L44.045,62.5L47.5,55.59L55.264,71.118L59.736,68.882L50.295,50L52.809,44.971L56.162,50L67.5,50L67.5,45L58.838,45Z"/><path d="M52.5,32.5C52.5,35.257,54.743,37.5,57.5,37.5S62.5,35.257,62.5,32.5S60.257,27.5,57.5,27.5S52.5,29.743,52.5,32.5Z"/><path d="M23.484,23.484L18.181,18.18C9.681,26.68,5,37.98,5,50S9.681,73.32,18.181,81.82L23.484,76.516C16.401,69.434,12.5,60.017,12.5,50S16.401,30.566,23.484,23.484Z"/><path d="M76.516,23.484C83.599,30.566,87.5,39.983,87.5,50S83.599,69.434,76.516,76.516L81.819,81.82C90.319,73.32,95,62.02,95,50S90.319,26.68,81.819,18.18L76.516,23.484Z"/><path d="M27.019,27.019C14.348,39.691,14.348,60.309,27.019,72.981L30.554,69.446C19.832,58.723,19.832,41.277,30.554,30.554L27.019,27.019Z"/><path d="M72.981,27.019L69.446,30.554C80.168,41.277,80.168,58.723,69.446,69.446L72.981,72.981C85.652,60.309,85.652,39.691,72.981,27.019Z"/></g></svg>