<?xml version="1.0" ?><svg enable-background="new 0 0 26 26" id="Слой_1" version="1.1" viewBox="0 0 26 26" xml:space="preserve" xmlns="http://www.w3.org/2000/svg" xmlns:xlink="http://www.w3.org/1999/xlink"><g><path d="M24.25,4.75H1.75C1.3359375,4.75,1,5.0859375,1,5.5v15c0,0.4140625,0.3359375,0.75,0.75,0.75h22.5   c0.4140625,0,0.75-0.3359375,0.75-0.75v-15C25,5.0859375,24.6640625,4.75,24.25,4.75z M23.5,6.25v13.5h-21V6.25H23.5z" fill="#1D1D1B"/><path d="M17,18.5c3.0322266,0,5.5-2.4677734,5.5-5.5S20.0322266,7.5,17,7.5s-5.5,2.4677734-5.5,5.5   S13.9677734,18.5,17,18.5z M12.5505371,13.5h1c0.2213745,1.5269165,1.4225464,2.7280884,2.9494629,2.9494629v1   C14.4224854,17.2157593,12.7842407,15.5775146,12.5505371,13.5z M17,12.5c0.2753906,0,0.5,0.2246094,0.5,0.5   s-0.2246094,0.5-0.5,0.5s-0.5-0.2246094-0.5-0.5S16.7246094,12.5,17,12.5z M17.5,14.4078979   c0.423584-0.151062,0.7568359-0.484314,0.9078979-0.9078979h1.0415649   C19.2501221,14.4783325,18.4783325,15.2501221,17.5,15.4494629V14.4078979z M18.4078979,12.5   c-0.151062-0.423584-0.484314-0.7568359-0.9078979-0.9078979v-1.0415649   c0.9783325,0.1993408,1.7501221,0.9711304,1.9494629,1.9494629H18.4078979z M16.5,11.5921021   c-0.423584,0.151062-0.7568359,0.484314-0.9078979,0.9078979h-1.0415649   c0.1993408-0.9783325,0.9711304-1.7501221,1.9494629-1.9494629V11.5921021z M15.5921021,13.5   c0.151062,0.423584,0.484314,0.7568359,0.9078979,0.9078979v1.0415649   C15.5216675,15.2501221,14.7498779,14.4783325,14.5505371,13.5H15.5921021z M17.5,17.4494629v-1   c1.5269165-0.2213745,2.7280884-1.4225464,2.9494629-2.9494629h1C21.2157593,15.5775146,19.5775146,17.2157593,17.5,17.4494629z    M21.4494629,12.5h-1C20.2280884,10.9730835,19.0269165,9.7719116,17.5,9.5505371v-1   C19.5775146,8.7842407,21.2157593,10.4224854,21.4494629,12.5z M16.5,8.5505371v1   C14.9730835,9.7719116,13.7719116,10.9730835,13.5505371,12.5h-1C12.7842407,10.4224854,14.4224854,8.7842407,16.5,8.5505371z" fill="#1D1D1B"/><path d="M7.25,12.5c0.2763672,0,0.5-0.2236328,0.5-0.5V8c0-0.2763672-0.2236328-0.5-0.5-0.5S6.75,7.7236328,6.75,8   v4C6.75,12.2763672,6.9736328,12.5,7.25,12.5z" fill="#1D1D1B"/><path d="M5.75,12.5c0.2763672,0,0.5-0.2236328,0.5-0.5V8c0-0.2763672-0.2236328-0.5-0.5-0.5S5.25,7.7236328,5.25,8   v4C5.25,12.2763672,5.4736328,12.5,5.75,12.5z" fill="#1D1D1B"/><path d="M4.25,12.5c0.2763672,0,0.5-0.2236328,0.5-0.5V8c0-0.2763672-0.2236328-0.5-0.5-0.5S3.75,7.7236328,3.75,8   v4C3.75,12.2763672,3.9736328,12.5,4.25,12.5z" fill="#1D1D1B"/><path d="M7.25,18.5c0.2763672,0,0.5-0.2236328,0.5-0.5v-4c0-0.2763672-0.2236328-0.5-0.5-0.5   s-0.5,0.2236328-0.5,0.5v4C6.75,18.2763672,6.9736328,18.5,7.25,18.5z" fill="#1D1D1B"/><path d="M5.75,18.5c0.2763672,0,0.5-0.2236328,0.5-0.5v-4c0-0.2763672-0.2236328-0.5-0.5-0.5   s-0.5,0.2236328-0.5,0.5v4C5.25,18.2763672,5.4736328,18.5,5.75,18.5z" fill="#1D1D1B"/><path d="M4.25,18.5c0.2763672,0,0.5-0.2236328,0.5-0.5v-4c0-0.2763672-0.2236328-0.5-0.5-0.5   s-0.5,0.2236328-0.5,0.5v4C3.75,18.2763672,3.9736328,18.5,4.25,18.5z" fill="#1D1D1B"/><path d="M8.75,12.5c0.2763672,0,0.5-0.2236328,0.5-0.5V8c0-0.2763672-0.2236328-0.5-0.5-0.5S8.25,7.7236328,8.25,8   v4C8.25,12.2763672,8.4736328,12.5,8.75,12.5z" fill="#1D1D1B"/><path d="M8.75,18.5c0.2763672,0,0.5-0.2236328,0.5-0.5v-4c0-0.2763672-0.2236328-0.5-0.5-0.5   s-0.5,0.2236328-0.5,0.5v4C8.25,18.2763672,8.4736328,18.5,8.75,18.5z" fill="#1D1D1B"/></g></svg>