<?xml version="1.0" encoding="UTF-8" standalone="no"?>
<svg
   xmlns:dc="http://purl.org/dc/elements/1.1/"
   xmlns:cc="http://creativecommons.org/ns#"
   xmlns:rdf="http://www.w3.org/1999/02/22-rdf-syntax-ns#"
   xmlns:svg="http://www.w3.org/2000/svg"
   xmlns="http://www.w3.org/2000/svg"
   xmlns:sodipodi="http://sodipodi.sourceforge.net/DTD/sodipodi-0.dtd"
   xmlns:inkscape="http://www.inkscape.org/namespaces/inkscape"
   height="64px"
   id="ICONS"
   style="enable-background:new 0 0 64 64;"
   version="1.1"
   viewBox="0 0 64 64"
   width="64px"
   xml:space="preserve"
   sodipodi:docname="roman_shades.svg"
   inkscape:version="1.0.2-2 (e86c870879, 2021-01-15)"><metadata
     id="metadata21"><rdf:RDF><cc:Work
         rdf:about=""><dc:format>image/svg+xml</dc:format><dc:type
           rdf:resource="http://purl.org/dc/dcmitype/StillImage" /></cc:Work></rdf:RDF></metadata><defs
     id="defs19" /><sodipodi:namedview
     pagecolor="#ffffff"
     bordercolor="#666666"
     borderopacity="1"
     objecttolerance="10"
     gridtolerance="10"
     guidetolerance="10"
     inkscape:pageopacity="0"
     inkscape:pageshadow="2"
     inkscape:window-width="2560"
     inkscape:window-height="1017"
     id="namedview17"
     showgrid="false"
     inkscape:zoom="13.28125"
     inkscape:cx="32"
     inkscape:cy="32"
     inkscape:window-x="-8"
     inkscape:window-y="-8"
     inkscape:window-maximized="1"
     inkscape:current-layer="ICONS"
     inkscape:document-rotation="0" /><g
     id="g14"
     style="stroke-width:2.5;stroke-miterlimit:4;stroke-dasharray:none"><rect
       height="10"
       style="fill:none;stroke:#202020;stroke-width:2.5;stroke-linecap:round;stroke-linejoin:round;stroke-miterlimit:4;stroke-dasharray:none"
       width="52"
       x="6"
       y="5"
       id="rect2" /><path
       d="M8,15   v9L5.479,36.607c-0.118,0.588,0.035,1.197,0.415,1.66C6.273,38.731,6.84,39,7.439,39h49.121c0.599,0,1.167-0.269,1.546-0.732   c0.38-0.463,0.532-1.072,0.415-1.66L56,24v-9"
       style="fill:none;stroke:#202020;stroke-width:2.5;stroke-linecap:round;stroke-linejoin:round;stroke-miterlimit:4;stroke-dasharray:none"
       id="path4" /><path
       d="   M56.99,38.95l1.53,7.66c0.12,0.59-0.03,1.189-0.41,1.659c-0.29,0.351-0.68,0.591-1.12,0.681C56.85,48.98,56.71,49,56.56,49H7.44   c-0.15,0-0.29-0.02-0.43-0.05c-0.44-0.09-0.83-0.33-1.12-0.681C5.51,47.8,5.36,47.2,5.48,46.61l1.53-7.66"
       style="fill:none;stroke:#202020;stroke-width:2.5;stroke-linecap:round;stroke-linejoin:round;stroke-miterlimit:4;stroke-dasharray:none"
       id="path6" /><path
       d="   M56.99,48.95l1.53,7.66c0.12,0.59-0.03,1.189-0.41,1.659C57.73,58.73,57.16,59,56.56,59H7.44c-0.6,0-1.17-0.27-1.55-0.73   C5.51,57.8,5.36,57.2,5.48,56.61l1.53-7.66"
       style="fill:none;stroke:#202020;stroke-width:2.5;stroke-linecap:round;stroke-linejoin:round;stroke-miterlimit:4;stroke-dasharray:none"
       id="path8" /><line
       style="fill:none;stroke:#202020;stroke-width:2.5;stroke-linecap:round;stroke-linejoin:round;stroke-miterlimit:4;stroke-dasharray:none"
       x1="52"
       x2="52"
       y1="15"
       y2="52"
       id="line10" /><path
       d="   M54,56h-4v-2c0-1.104,0.896-2,2-2s2,0.896,2,2V56z"
       style="fill:none;stroke:#202020;stroke-width:2.5;stroke-linecap:round;stroke-linejoin:round;stroke-miterlimit:4;stroke-dasharray:none"
       id="path12" /></g></svg>
