<?xml version="1.0" ?><svg id="Layer_1" style="enable-background:new 0 0 26 26;" version="1.1" viewBox="0 0 26 26" xml:space="preserve" xmlns="http://www.w3.org/2000/svg" xmlns:xlink="http://www.w3.org/1999/xlink"><g id="_x31_8"><path d="M21.4853516,21.4853516c4.6787109-4.6787109,4.6787109-12.2919922,0-16.9707031   c-0.390625-0.390625-1.0234375-0.390625-1.4140625,0s-0.390625,1.0234375,0,1.4140625   c3.8994141,3.8994141,3.8994141,10.2431641,0,14.1425781c-0.390625,0.390625-0.390625,1.0234375,0,1.4140625   C20.4619026,21.8759651,21.0947151,21.875988,21.4853516,21.4853516z"/><path d="M5.9287109,5.9287109c0.390625-0.390625,0.390625-1.0234375,0-1.4140625s-1.0234375-0.390625-1.4140625,0   c-4.6787109,4.6787109-4.6787109,12.2919922,0,16.9707031c0.3906145,0.3906136,1.0234265,0.3906364,1.4140625,0   c0.390625-0.390625,0.390625-1.0234375,0-1.4140625C2.0292969,16.171875,2.0292969,9.828125,5.9287109,5.9287109z"/><path d="M18.6572266,18.65625c3.1191406-3.1191406,3.1191406-8.1943359,0-11.3134766   c-0.390625-0.390625-1.0234375-0.390625-1.4140625,0s-0.390625,1.0234375,0,1.4140625   c2.3388672,2.3398438,2.3388672,6.1455078,0,8.4853516c-0.390625,0.390625-0.390625,1.0234375,0,1.4140625   C17.6337776,19.0468636,18.2665901,19.0468864,18.6572266,18.65625z"/><path d="M8.7578125,18.65625c0.390625-0.390625,0.390625-1.0234375,0-1.4140625   c-2.3388672-2.3398438-2.3388672-6.1455078,0-8.4853516c0.390625-0.390625,0.390625-1.0234375,0-1.4140625   s-1.0234375-0.390625-1.4140625,0c-3.1191406,3.1191406-3.1191406,8.1943359,0,11.3134766   C7.7343645,19.0468636,8.3671761,19.0468864,8.7578125,18.65625z"/><path d="M13,17c2.2060547,0,4-1.7939453,4-4s-1.7939453-4-4-4s-4,1.7939453-4,4S10.7939453,17,13,17z M13,11   c1.1025391,0,2,0.8974609,2,2s-0.8974609,2-2,2s-2-0.8974609-2-2S11.8974609,11,13,11z"/></g></svg>