<?xml version="1.0" encoding="UTF-8" standalone="no"?>
<svg
   xmlns:dc="http://purl.org/dc/elements/1.1/"
   xmlns:cc="http://creativecommons.org/ns#"
   xmlns:rdf="http://www.w3.org/1999/02/22-rdf-syntax-ns#"
   xmlns:svg="http://www.w3.org/2000/svg"
   xmlns="http://www.w3.org/2000/svg"
   xmlns:sodipodi="http://sodipodi.sourceforge.net/DTD/sodipodi-0.dtd"
   xmlns:inkscape="http://www.inkscape.org/namespaces/inkscape"
   enable-background="new 0 0 26 26"
   id="Слой_1"
   version="1.1"
   viewBox="0 0 26 26"
   xml:space="preserve"
   sodipodi:docname="table_fan.svg"
   inkscape:version="1.0.2-2 (e86c870879, 2021-01-15)"><metadata
     id="metadata25"><rdf:RDF><cc:Work
         rdf:about=""><dc:format>image/svg+xml</dc:format><dc:type
           rdf:resource="http://purl.org/dc/dcmitype/StillImage" /></cc:Work></rdf:RDF></metadata><defs
     id="defs23" /><sodipodi:namedview
     pagecolor="#ffffff"
     bordercolor="#666666"
     borderopacity="1"
     objecttolerance="10"
     gridtolerance="10"
     guidetolerance="10"
     inkscape:pageopacity="0"
     inkscape:pageshadow="2"
     inkscape:window-width="2560"
     inkscape:window-height="1017"
     id="namedview21"
     showgrid="false"
     inkscape:zoom="32.692308"
     inkscape:cx="7.1117647"
     inkscape:cy="13"
     inkscape:window-x="-8"
     inkscape:window-y="-8"
     inkscape:window-maximized="1"
     inkscape:current-layer="g18" /><g
     id="g18"><path
       d="M22.75,10.75C22.75,5.3740234,18.3759766,1,13,1s-9.75,4.3740234-9.75,9.75   c0,4.6904907,3.3302612,8.6164551,7.75,9.5418701v1.2095947C7.9309082,21.5150757,6.25,21.7012329,6.25,24.25   C6.25,24.6640625,6.5859375,25,7,25h12c0.4140625,0,0.75-0.3359375,0.75-0.75c0-2.5487671-1.6809082-2.7349243-4.75-2.7485352   v-1.2095947C19.4197388,19.3664551,22.75,15.4404907,22.75,10.75z M4.75,10.75C4.75,6.2011719,8.4511719,2.5,13,2.5   s8.25,3.7011719,8.25,8.25S17.5488281,19,13,19S4.75,15.2988281,4.75,10.75z M13.5,22.25c0,0.4140625,0.3359375,0.75,0.75,0.75   c2.7921753,0,3.6334229,0.0824585,3.8880005,0.5H7.8619995C8.1165771,23.0824585,8.9578247,23,11.75,23   c0.4140625,0,0.75-0.3359375,0.75-0.75v-1.7753296C12.666687,20.4832153,12.8312378,20.5,13,20.5s0.333313-0.0167847,0.5-0.0253296   V22.25z"
       fill="#1D1D1B"
       id="path2"
       style="fill:#000000;fill-opacity:1" /><path
       d="M11.6870117,15.3251953c1.1119995-0.6417236,1.4971924-1.3349609,1.5354004-1.9726563   c0.175293-0.0150146,0.3444214-0.0460205,0.5083008-0.0939331c0.0186157,0.0131226,0.0299683,0.0325317,0.0500488,0.0441284   c0.2280273,0.1318359,0.2719727,0.7373047,0.3110352,1.2714844c0.0615234,0.8466797,0.1381836,1.9003906,1.0317383,2.4160156   c0.4858398,0.2802734,0.9257813,0.3837891,1.3105469,0.3837891c0.4633789,0,0.8461914-0.1494141,1.1318359-0.3203125   c0.5332031-0.3183594,1.0131836-0.8691406,1.5107422-1.7314453c1.2084961-2.0927734,0.5981445-4.7158203-1.359375-5.8457031   c-1.1993408-0.692688-2.0339966-0.6317139-2.6118164-0.2785645c-0.0733032-0.0990601-0.1486206-0.1966553-0.2347412-0.2844238   c0.0258789-0.0759277,0.0482178-0.1541138,0.0482178-0.2387695c0-0.2646484,0.5024414-0.6054688,0.9458008-0.90625   c0.7026367-0.4765625,1.5766602-1.0703125,1.5766602-2.1015625c0-1.7177734-1.1513672-2.5888672-3.4213867-2.5888672   c-2.4165039,0-4.3828125,1.8388672-4.3828125,4.0996094c0,1.3616943,0.4543457,2.0543213,1.0349121,2.3850708   c-0.062561,0.1220093-0.1141357,0.2487183-0.1571655,0.3808594c-0.0584717,0.0165405-0.1181641,0.0264893-0.1731567,0.0582886   c-0.230957,0.1328125-0.7753906-0.1328125-1.2573242-0.3662109C8.3203125,9.2666016,7.3701172,8.8046875,6.4760742,9.3212891   c-1.0712891,0.6181641-1.2851563,1.4746094-1.2758789,2.0839844c0.0097656,0.6210938,0.2460938,1.3115234,0.7441406,2.1738281   c0.8330078,1.4433594,2.315918,2.2636719,3.7988281,2.2636719C10.4111328,15.8427734,11.0791016,15.6757813,11.6870117,15.3251953z    M13,9.625c0.6201172,0,1.125,0.5048828,1.125,1.125S13.6201172,11.875,13,11.875s-1.125-0.5048828-1.125-1.125   S12.3798828,9.625,13,9.625z M16.9672852,10.7753906c1.2416992,0.7167969,1.6049805,2.4199219,0.8105469,3.796875   c-0.3603516,0.6240234-0.6811523,1.0146484-0.9814453,1.1933594c-0.2016602,0.1210938-0.453125,0.1962891-0.9228516-0.0742188   c-0.2050781-0.1181641-0.25-0.7324219-0.2856445-1.2265625c-0.0490112-0.6744385-0.1138916-1.4749146-0.5789185-2.0458984   c0.3708496-0.4455566,0.6026611-1.0083618,0.6120605-1.6296387c0.0033569-0.0054321,0.0090332-0.0083618,0.0122681-0.013916   C15.8198242,10.453125,15.9672852,10.1982422,16.9672852,10.7753906z M14.0200195,4.578125   c1.7768555,0,1.9213867,0.4931641,1.9213867,1.0888672c0,0.2363281-0.5092773,0.5820313-0.9189453,0.8603516   c-0.5925903,0.4018555-1.2979126,0.8899536-1.5237427,1.6480713C13.3369751,8.144104,13.1707764,8.125,13,8.125   c-0.3818359,0-0.7423706,0.0861206-1.0700073,0.2333984c-0.0424805-0.0075073-0.0811768-0.0253906-0.1257935-0.0253906   c-0.3725586,0-0.6669922,0-0.6669922-1.1552734C11.137207,5.7441406,12.4306641,4.578125,14.0200195,4.578125z    M7.2431641,12.8291016c-0.3598633-0.6230469-0.5375977-1.0966797-0.5429688-1.4462891   c-0.003418-0.2363281,0.0576172-0.4921875,0.5258789-0.7626953c0.2045898-0.1162109,0.7602539,0.1503906,1.2045898,0.3662109   c0.6109009,0.2956543,1.3394775,0.6405029,2.0687866,0.5202026c0.1930542,0.6352539,0.6148682,1.1654053,1.1760864,1.4967041   c0.1321411,0.2680054,0.121521,0.526123-0.7385254,1.0231323C9.6953125,14.7431641,8.0380859,14.2070313,7.2431641,12.8291016z"
       fill="#1D1D1B"
       id="path4"
       style="fill:#000000;fill-opacity:1" /><path
       d="M14.7861328,17.5c-0.050293-0.2705078-0.3061523-0.4511719-0.5834961-0.3994141   c-1.5458984,0.2880859-3.1733398,0.0039063-4.5141602-0.7929688c-0.237793-0.1416016-0.5454102-0.0634766-0.6855469,0.1738281   c-0.1411133,0.2373047-0.0634766,0.5439453,0.1738281,0.6855469c1.1503906,0.6845703,2.4697266,1.0458984,3.815918,1.0458984   c0.4663086,0,0.9355469-0.0439453,1.3945313-0.1298828C14.6586914,18.0322266,14.8374023,17.7714844,14.7861328,17.5z"
       fill="#1D1D1B"
       id="path6"
       style="fill:#000000;fill-opacity:1" /><path
       d="M19.4638672,10.3925781c0.0141602,0.2666016,0.2348633,0.4736328,0.4990234,0.4736328   c0.0087891,0,0.0175781,0,0.0263672-0.0009766c0.2758789-0.0136719,0.487793-0.2490234,0.4736328-0.5253906   c-0.0874023-1.6796875-0.7172852-3.2392578-1.8222656-4.5117188c-0.1811523-0.2070313-0.4975586-0.2304688-0.7050781-0.0498047   c-0.2084961,0.1816406-0.230957,0.4970703-0.0498047,0.7060547C18.8427734,7.5859375,19.3886719,8.9375,19.4638672,10.3925781z"
       fill="#1D1D1B"
       id="path8"
       style="fill:#000000;fill-opacity:1" /><path
       d="M6.2861328,8.7285156C6.3447266,8.75,6.4042969,8.7607422,6.4633789,8.7607422   c0.2016602,0,0.3920898-0.1230469,0.4677734-0.3232422C7.4316406,7.1162109,8.3706055,5.9755859,9.574707,5.2265625   c0.234375-0.1464844,0.3061523-0.4541016,0.1601563-0.6894531C9.5883789,4.3046875,9.2807617,4.2314453,9.0463867,4.3769531   C7.6567383,5.2421875,6.5737305,6.5585938,5.9956055,8.0839844C5.8979492,8.3417969,6.027832,8.6308594,6.2861328,8.7285156z"
       fill="#1D1D1B"
       id="path10"
       style="fill:#000000;fill-opacity:1" /><path
       d="M12.0712891,15.4814453c-0.2709961-0.0498047-0.5336914,0.125-0.5854492,0.3974609   c-0.0517578,0.2705078,0.1259766,0.5332031,0.3969727,0.5849609c0.3691406,0.0703125,0.7446289,0.1064453,1.1166992,0.1064453   c0.1728516,0,0.3442383-0.0078125,0.5141602-0.0224609c0.2749023-0.0244141,0.4785156-0.2666016,0.4541016-0.5419922   c-0.0244141-0.2744141-0.2578125-0.4707031-0.5419922-0.4541016   C12.9833984,15.5917969,12.5209961,15.5673828,12.0712891,15.4814453z"
       fill="#1D1D1B"
       id="path12"
       style="fill:#000000;fill-opacity:1" /><path
       d="M16.9716797,7.1376953c-0.2211914,0.1660156-0.2661133,0.4794922-0.1000977,0.7001953   c0.2363281,0.3154297,0.4335938,0.6591797,0.5864258,1.0224609c0.0805664,0.1904297,0.2661133,0.3056641,0.4609375,0.3056641   c0.0649414,0,0.1308594-0.0126953,0.1943359-0.0390625c0.2543945-0.1074219,0.3735352-0.4003906,0.2666016-0.6552734   c-0.1850586-0.4384766-0.4233398-0.8535156-0.7084961-1.2333984C17.5058594,7.0166016,17.1918945,6.9716797,16.9716797,7.1376953z"
       fill="#1D1D1B"
       id="path14"
       style="fill:#000000;fill-opacity:1" /><path
       d="M8.5307617,6.9814453C8.2050781,7.3691406,7.9311523,7.796875,7.7167969,8.2529297   c-0.1176758,0.25-0.0107422,0.5478516,0.2392578,0.6650391C8.0249023,8.9501953,8.097168,8.9658203,8.168457,8.9658203   c0.1879883,0,0.3676758-0.1064453,0.4526367-0.2871094c0.1782227-0.3779297,0.4052734-0.7324219,0.675293-1.0546875   c0.1777344-0.2109375,0.1503906-0.5263672-0.0615234-0.7041016C9.0229492,6.7412109,8.7075195,6.7705078,8.5307617,6.9814453z"
       fill="#1D1D1B"
       id="path16"
       style="fill:#000000;fill-opacity:1" /></g></svg>
