<?xml version="1.0" encoding="UTF-8" standalone="no"?>
<svg
   xmlns:dc="http://purl.org/dc/elements/1.1/"
   xmlns:cc="http://creativecommons.org/ns#"
   xmlns:rdf="http://www.w3.org/1999/02/22-rdf-syntax-ns#"
   xmlns:svg="http://www.w3.org/2000/svg"
   xmlns="http://www.w3.org/2000/svg"
   xmlns:sodipodi="http://sodipodi.sourceforge.net/DTD/sodipodi-0.dtd"
   xmlns:inkscape="http://www.inkscape.org/namespaces/inkscape"
   enable-background="new 0 0 60 146"
   height="146px"
   id="Layer_1"
   version="1.1"
   viewBox="0 0 60 146"
   width="60px"
   xml:space="preserve"
   sodipodi:docname="temperature.svg"
   inkscape:version="1.0.2-2 (e86c870879, 2021-01-15)"><metadata
     id="metadata13"><rdf:RDF><cc:Work
         rdf:about=""><dc:format>image/svg+xml</dc:format><dc:type
           rdf:resource="http://purl.org/dc/dcmitype/StillImage" /></cc:Work></rdf:RDF></metadata><defs
     id="defs11" /><sodipodi:namedview
     pagecolor="#ffffff"
     bordercolor="#666666"
     borderopacity="1"
     objecttolerance="10"
     gridtolerance="10"
     guidetolerance="10"
     inkscape:pageopacity="0"
     inkscape:pageshadow="2"
     inkscape:window-width="2560"
     inkscape:window-height="1017"
     id="namedview9"
     showgrid="false"
     inkscape:zoom="5.8219178"
     inkscape:cx="30"
     inkscape:cy="73"
     inkscape:window-x="-8"
     inkscape:window-y="-8"
     inkscape:window-maximized="1"
     inkscape:current-layer="Layer_1" /><g
     id="g6"
     style="fill:#000000"><path
       d="M48,91.996V18c0-9.926-8.074-18-18-18c-9.925,0-18,8.074-18,18v73.996C4.495,97.603,0,106.414,0,116   c0,16.543,13.458,30,30,30s30-13.457,30-30C60,106.414,55.505,97.603,48,91.996z M30,138c-12.15,0-22-9.85-22-22   c0-8.547,4.878-15.951,12-19.594V18c0-5.523,4.477-10,10-10c5.523,0,10,4.477,10,10v78.406c7.121,3.643,12,11.047,12,19.594   C52,128.15,42.15,138,30,138z"
       fill="#323232"
       id="path2"
       style="fill:#000000" /><path
       d="M35.684,100.63V52.814H24.317v47.816c-6.253,2.312-10.72,8.312-10.72,15.369   c0,9.061,7.344,16.402,16.403,16.402S46.402,125.06,46.402,116C46.402,108.943,41.937,102.943,35.684,100.63z"
       fill="#323232"
       id="path4"
       style="fill:#000000" /></g></svg>
