<?xml version="1.0" ?><svg enable-background="new 0 0 26 26" id="Слой_1" version="1.1" viewBox="0 0 26 26" xml:space="preserve" xmlns="http://www.w3.org/2000/svg" xmlns:xlink="http://www.w3.org/1999/xlink"><path d="M22.0717163,14.718811c0.0307007-0.0374146,0.0565186-0.0752563,0.0794678-0.1178589  c0.022583-0.0415649,0.0396118-0.0836182,0.0540771-0.1294556c0.0153198-0.0483398,0.0245361-0.0960693,0.0297852-0.1473999  C22.2376709,14.2985229,22.25,14.2763062,22.25,14.25c0-0.0258789-0.012207-0.0478516-0.0147705-0.0730591  c-0.0024414-0.0252075,0.005188-0.0490112,0.0001221-0.0744019l-2.5-12.4995117  c-0.0050659-0.0254517-0.0214844-0.0446777-0.0289917-0.0689697c-0.0153809-0.0501099-0.0341797-0.0958862-0.0592041-0.1409912  c-0.0227051-0.0410767-0.0471191-0.078064-0.0766602-0.1136475c-0.0315552-0.038269-0.0651855-0.071106-0.1035767-0.102417  c-0.0368652-0.0300903-0.0740967-0.0554199-0.1159058-0.078125c-0.0415039-0.022522-0.0834961-0.0396118-0.1292114-0.0540771  c-0.0491333-0.0157471-0.0975952-0.0250854-0.1497192-0.0302124C19.0471802,1.012085,19.0255737,1,19,1h-9  C9.973938,1,9.9519043,1.0122681,9.9265747,1.0148315c-0.0502319,0.005188-0.0970459,0.0141602-0.1445923,0.0291748  C9.7335815,1.059021,9.6893921,1.0770874,9.645752,1.1010132C9.6066895,1.1224976,9.5718994,1.1463013,9.5371094,1.1742554  c-0.0407104,0.0327148-0.0762329,0.0672607-0.109314,0.107666c-0.0283813,0.0343628-0.0516357,0.0699463-0.0737305,0.109314  C9.3284302,1.4370728,9.309082,1.4836426,9.293457,1.534729C9.2860107,1.5588379,9.2697144,1.5778198,9.2646484,1.6030273  l-2.5,12.4995117c-0.0050659,0.0253906,0.0025635,0.0491943,0.0001221,0.0744019C6.762207,14.2021484,6.75,14.2241211,6.75,14.25  c0,0.0263062,0.0123291,0.0485229,0.0149536,0.0740967c0.005249,0.0513306,0.0144653,0.0990601,0.0297852,0.1473999  c0.0144653,0.0458374,0.0314941,0.0878906,0.0540771,0.1294556c0.0229492,0.0426025,0.0487671,0.0804443,0.0794678,0.1178589  c0.0305786,0.0372925,0.062561,0.0698853,0.0996704,0.100708c0.036377,0.0302734,0.0742188,0.0553589,0.116394,0.0784912  c0.0445557,0.0245972,0.0897827,0.0430908,0.1392212,0.0582886c0.0244751,0.0075684,0.0437622,0.0239258,0.069458,0.0290527  c0.0487061,0.0096436,0.0977173,0.0143433,0.1460571,0.0144653C7.4993896,14.9998169,7.4996948,15,7.5,15h6.25v4.5h-8.5v-2.25  c0-0.4140625-0.3359375-0.75-0.75-0.75s-0.75,0.3359375-0.75,0.75v6C3.75,23.6640625,4.0859375,24,4.5,24s0.75-0.3359375,0.75-0.75  V21h8.5v3.25c0,0.4140625,0.3359375,0.75,0.75,0.75s0.75-0.3359375,0.75-0.75V15h6.25  c0.0003052,0,0.0006104-0.0001831,0.0009155-0.0001831c0.0483398-0.0001221,0.0973511-0.0048218,0.1460571-0.0144653  c0.0256958-0.005127,0.0449829-0.0214844,0.069458-0.0290527c0.0494385-0.0151978,0.0946655-0.0336914,0.1392212-0.0582886  c0.0421753-0.0231323,0.0800171-0.0482178,0.116394-0.0784912C22.0091553,14.7886963,22.0411377,14.7561035,22.0717163,14.718811z   M8.414856,13.5l2.1998901-11h7.7705078l2.1998901,11H8.414856z" fill="#1D1D1B"/></svg>