<?xml version="1.0" ?><svg enable-background="new 0 0 26 26" id="Слой_1" version="1.1" viewBox="0 0 26 26" xml:space="preserve" xmlns="http://www.w3.org/2000/svg" xmlns:xlink="http://www.w3.org/1999/xlink"><path d="M22.5709839,14.7198486c0.0311279-0.0379028,0.057373-0.0762329,0.0805664-0.1194458  c0.0223389-0.0413208,0.0393066-0.0830078,0.0536499-0.128479c0.0152588-0.0483398,0.0244751-0.0961304,0.0297241-0.1473999  C22.7376099,14.2987671,22.75,14.2764282,22.75,14.25c0-0.0259399-0.012207-0.0479126-0.0147705-0.0731812  c-0.0024414-0.0250244,0.005127-0.048645,0.0001221-0.0737915l-2.5-12.5  c-0.005127-0.0256348-0.0214844-0.0449219-0.0290527-0.069397C20.19104,1.4841309,20.1725464,1.4387817,20.1478882,1.394165  c-0.0233765-0.0425415-0.0485229-0.0806885-0.0791016-0.1173096c-0.0301514-0.0362549-0.0620728-0.0675659-0.0984497-0.0975342  c-0.0390625-0.0322876-0.0786133-0.0593262-0.12323-0.0831299c-0.0390015-0.020813-0.078186-0.0367432-0.1209717-0.0505371  c-0.0513916-0.0167236-0.1022339-0.0265503-0.1569214-0.0316772C19.5452881,1.0116577,19.5245361,1,19.5,1h-9  c-0.0248413,0-0.0458374,0.0117798-0.0700684,0.0141602c-0.0551758,0.005127-0.1065063,0.0150757-0.1581421,0.0319214  c-0.0413208,0.0134888-0.0792847,0.0289307-0.1171875,0.0490112c-0.0465088,0.0245972-0.0878906,0.0526733-0.1282959,0.0864868  c-0.0345459,0.0288086-0.0648193,0.0587158-0.093689,0.0932007C9.901062,1.3125,9.875,1.3517456,9.8510742,1.3956909  c-0.0241699,0.0439453-0.0422363,0.088501-0.057251,0.1372681C9.7861938,1.5576172,9.7697754,1.5771484,9.7646484,1.6030273  l-2.5,12.5c-0.0050049,0.0251465,0.0025635,0.0487671,0.0001221,0.0737915C7.262207,14.2020874,7.25,14.2240601,7.25,14.25  c0,0.0264282,0.0123901,0.0487671,0.0150757,0.0745239c0.005249,0.0512695,0.0144653,0.0990601,0.0297241,0.1473999  c0.0143433,0.0454712,0.031311,0.0871582,0.0536499,0.128479c0.0231934,0.0432129,0.0494385,0.081543,0.0805664,0.1194458  c0.0300903,0.036499,0.0614014,0.0686035,0.0977783,0.098877c0.0369263,0.0308838,0.0754395,0.0563354,0.1183472,0.079834  c0.0440063,0.024231,0.088623,0.0424194,0.1374512,0.0574951c0.0246582,0.0076294,0.0440674,0.0241089,0.0699463,0.0292969  c0.0491943,0.0101318,0.0983276,0.0143433,0.1465454,0.0144653C7.9993896,14.9998169,7.9996948,15,8,15h6.25v5.25  c0,1.7919922-1.4580078,3.25-3.25,3.25s-3.25-1.4580078-3.25-3.25v-3c0-0.4140625-0.3359375-0.75-0.75-0.75H4.75v-2.25  c0-0.4140625-0.3359375-0.75-0.75-0.75s-0.75,0.3359375-0.75,0.75v6C3.25,20.6640625,3.5859375,21,4,21s0.75-0.3359375,0.75-0.75V18  h1.5v2.25C6.25,22.8691406,8.3808594,25,11,25s4.75-2.1308594,4.75-4.75V15H22c0.0003052,0,0.0006104-0.0001831,0.0009155-0.0001831  c0.0482178-0.0001221,0.0973511-0.0043335,0.1465454-0.0144653c0.0258789-0.005188,0.0452881-0.0216675,0.0699463-0.0292969  c0.0488281-0.0150757,0.0934448-0.0332642,0.1374512-0.0574951c0.0429077-0.0234985,0.0814209-0.0489502,0.1183472-0.079834  C22.5095825,14.7884521,22.5408936,14.7563477,22.5709839,14.7198486z M8.9147339,13.5l2.2000122-11h7.7705078l2.2000122,11  H8.9147339z" fill="#1D1D1B"/></svg>