<?xml version="1.0" ?><!DOCTYPE svg  PUBLIC '-//W3C//DTD SVG 1.1//EN'  'http://www.w3.org/Graphics/SVG/1.1/DTD/svg11.dtd'><svg height="100%" style="fill-rule:evenodd;clip-rule:evenodd;stroke-linejoin:round;stroke-miterlimit:2;" version="1.1" viewBox="0 0 134 134" width="100%" xml:space="preserve" xmlns="http://www.w3.org/2000/svg" xmlns:serif="http://www.serif.com/" xmlns:xlink="http://www.w3.org/1999/xlink"><rect height="133.333" id="water-alert-warning-leak-wet-leakage-notification" style="fill:none;" width="133.333" x="0" y="0"/><path d="M41.667,62.5c-16.098,0 -29.167,13.069 -29.167,29.167c0,16.097 13.069,29.166 29.167,29.166c16.097,0 29.166,-13.069 29.166,-29.166c0,-16.098 -13.069,-29.167 -29.166,-29.167Zm24.956,-38.442c-4.071,6.003 -11.075,16.703 -17.235,27.944c-1.105,2.017 -3.639,2.757 -5.656,1.652c-2.017,-1.105 -2.757,-3.64 -1.652,-5.656c9.599,-17.517 21.196,-33.753 21.196,-33.753c0.794,-1.111 2.082,-1.763 3.447,-1.745c1.366,0.019 2.636,0.706 3.399,1.838c0,0 8.441,12.527 8.738,12.987c6.023,9.34 13.826,22.272 19.112,34.042c3.753,8.359 6.195,16.202 6.195,21.966c0,17.461 -11.96,32.149 -28.127,36.316c-2.227,0.574 -4.501,-0.767 -5.075,-2.994c-0.574,-2.227 0.768,-4.501 2.995,-5.075c12.574,-3.241 21.873,-14.667 21.873,-28.247c0,-4.884 -2.283,-11.469 -5.463,-18.552c-5.116,-11.392 -12.684,-23.9 -18.513,-32.94c-0.166,-0.256 -2.888,-4.3 -5.234,-7.783Zm-24.956,46.775c11.498,0 20.833,9.335 20.833,20.834c0,11.498 -9.335,20.833 -20.833,20.833c-11.499,0 -20.834,-9.335 -20.834,-20.833c0,-11.499 9.335,-20.834 20.834,-20.834Zm0,29.167c2.299,0 4.166,1.867 4.166,4.167c0,2.299 -1.867,4.166 -4.166,4.166c-2.3,0 -4.167,-1.867 -4.167,-4.166c0,-2.3 1.867,-4.167 4.167,-4.167Zm-4.167,-20.757l0,12.424c0,2.299 1.867,4.166 4.167,4.166c2.299,0 4.166,-1.867 4.166,-4.166l0,-12.424c0,-2.3 -1.867,-4.167 -4.166,-4.167c-2.3,0 -4.167,1.867 -4.167,4.167Z"/></svg>