<?xml version="1.0" encoding="UTF-8" standalone="no"?>
<svg
   xmlns:dc="http://purl.org/dc/elements/1.1/"
   xmlns:cc="http://creativecommons.org/ns#"
   xmlns:rdf="http://www.w3.org/1999/02/22-rdf-syntax-ns#"
   xmlns:svg="http://www.w3.org/2000/svg"
   xmlns="http://www.w3.org/2000/svg"
   xmlns:sodipodi="http://sodipodi.sourceforge.net/DTD/sodipodi-0.dtd"
   xmlns:inkscape="http://www.inkscape.org/namespaces/inkscape"
   id="Layer_1"
   style="enable-background:new 0 0 48 48;"
   version="1.1"
   viewBox="0 0 48 48"
   xml:space="preserve"
   sodipodi:docname="zigbee_sensor2.svg"
   inkscape:version="1.0.2-2 (e86c870879, 2021-01-15)"><metadata
     id="metadata46"><rdf:RDF><cc:Work
         rdf:about=""><dc:format>image/svg+xml</dc:format><dc:type
           rdf:resource="http://purl.org/dc/dcmitype/StillImage" /><dc:title></dc:title></cc:Work></rdf:RDF></metadata><defs
     id="defs44" /><sodipodi:namedview
     pagecolor="#ffffff"
     bordercolor="#666666"
     borderopacity="1"
     objecttolerance="10"
     gridtolerance="10"
     guidetolerance="10"
     inkscape:pageopacity="0"
     inkscape:pageshadow="2"
     inkscape:window-width="2560"
     inkscape:window-height="1017"
     id="namedview42"
     showgrid="false"
     inkscape:zoom="6.2608413"
     inkscape:cx="5.8917582"
     inkscape:cy="17.335708"
     inkscape:window-x="-8"
     inkscape:window-y="-8"
     inkscape:window-maximized="1"
     inkscape:current-layer="Layer_1" /><g
     id="g39"
     transform="translate(0,6)"><path
       d="m 9.86,33.28 c 0.26,0 0.51,-0.1 0.71,-0.29 0.39,-0.39 0.39,-1.02 0,-1.41 C 6.98,27.99 5,23.22 5,18.14 5,13.06 6.98,8.3 10.56,4.71 c 0.39,-0.39 0.39,-1.02 0,-1.41 -0.39,-0.39 -1.02,-0.39 -1.41,0 -8.19,8.19 -8.19,21.51 0,29.7 0.2,0.19 0.45,0.28 0.71,0.28 z"
       id="path29" /><path
       d="m 38.85,3.29 c -0.39,-0.39 -1.02,-0.39 -1.41,0 -0.39,0.39 -0.39,1.02 0,1.41 7.41,7.41 7.41,19.46 0,26.87 -0.39,0.39 -0.39,1.02 0,1.41 0.2,0.2 0.45,0.29 0.71,0.29 0.26,0 0.51,-0.1 0.71,-0.29 8.18,-8.18 8.18,-21.5 -0.01,-29.69 z"
       id="path31" /><path
       d="m 14.81,27.33 c 0.2,0.2 0.45,0.29 0.71,0.29 0.26,0 0.51,-0.1 0.71,-0.29 0.39,-0.39 0.39,-1.02 0,-1.41 -4.29,-4.29 -4.29,-11.27 0,-15.56 0.39,-0.39 0.39,-1.02 0,-1.41 -0.39,-0.39 -1.02,-0.39 -1.41,0 -5.08,5.07 -5.08,13.32 -0.01,18.38 z"
       id="path33" /><path
       d="m 33.19,8.95 c -0.39,-0.39 -1.02,-0.39 -1.41,0 -0.39,0.39 -0.39,1.02 0,1.41 2.08,2.08 3.22,4.84 3.22,7.78 0,2.94 -1.14,5.7 -3.22,7.78 -0.39,0.39 -0.39,1.02 0,1.41 0.2,0.2 0.45,0.29 0.71,0.29 0.26,0 0.51,-0.1 0.71,-0.29 2.46,-2.46 3.81,-5.72 3.81,-9.19 0,-3.47 -1.36,-6.73 -3.82,-9.19 z"
       id="path35" /></g><path
     d="m 18.311513,20.039548 c -0.0652,0.01472 -0.130391,0.0515 -0.188343,0.09565 -0.825806,1.191811 -1.303905,2.641114 -1.303905,4.208125 a 7.2439191,7.3568657 0 0 0 7.243919,7.356867 c 2.173178,0 4.114546,-0.971106 5.432939,-2.501334 l -1.81098,0.18392 c -1.992076,0.220708 -4.020374,0.250135 -6.041428,0.08093 -0.514318,-0.0147 -1.028638,-0.147138 -1.49949,-0.3752 -0.622979,-0.28692 -1.043126,-0.897539 -1.101076,-1.589084 -0.0072,-0.117709 0.03622,-0.21335 0.115901,-0.308987 l 1.586419,-1.670009 5.512624,-5.811923 v -0.07357 h -3.035204 c -1.644368,0.02942 -3.281494,0.161851 -4.911376,0.404626 m 11.669954,8.350044 c 0.0652,-0.02208 0.130389,-0.04415 0.188342,-0.08093 0.717148,-1.14767 1.137295,-2.493978 1.137295,-3.965353 a 7.2439191,7.3568657 0 0 0 -7.24392,-7.356864 c -2.013809,0 -3.839277,0.831327 -5.150427,2.18499 h 0.20283 c 2.252858,-0.294276 4.534695,-0.367843 6.802041,-0.235419 0.680929,-0.0073 1.3691,0.125065 2.006566,0.382557 0.666439,0.264847 1.130051,0.890179 1.209734,1.618509 0,0.11771 -0.0507,0.242778 -0.130392,0.33106 l -6.599209,6.893383 -0.514319,0.559122 v 0.08092 h 2.998982 c 1.709567,-0.04413 3.404643,-0.183921 5.092477,-0.411983 z"
     id="path48"
     style="stroke-width:0.730016" /></svg>
